{"glyphs":{"0":{"ha":1097,"x_min":106,"x_max":1139,"o":"m 1139 604 q 943 174 1139 364 q 483 -17 747 -17 q 206 101 306 -17 q 106 407 106 219 q 308 843 106 658 q 761 1028 510 1028 q 1037 913 935 1028 q 1139 604 1139 799 m 886 929 q 867 983 886 965 q 811 1001 849 1001 q 731 969 768 1001 q 628 815 694 936 q 460 427 561 694 q 358 82 358 160 q 377 28 358 46 q 433 10 396 10 q 513 42 478 10 q 618 199 549 75 q 787 588 688 322 q 886 929 886 854 z "},"1":{"ha":733,"x_min":-94,"x_max":814,"o":"m 476 174 q 442 61 442 86 q 473 32 442 42 q 593 22 504 22 l 593 0 l -94 0 l -94 22 q -62 23 -83 22 q 3 28 -42 24 q 72 60 47 33 q 136 181 96 88 q 233 410 176 274 q 322 633 289 547 q 394 817 356 719 q 432 939 432 914 q 399 979 432 968 q 279 990 367 990 l 279 1013 l 814 1013 l 476 174 z "},"2":{"ha":969,"x_min":-72,"x_max":1028,"o":"m 496 988 q 364 947 417 988 q 311 864 311 906 q 329 829 311 842 q 379 811 346 815 q 463 779 432 811 q 493 699 493 747 q 447 594 493 638 q 339 551 401 551 q 213 597 261 551 q 165 717 165 642 q 224 872 165 801 q 359 974 283 942 q 498 1017 435 1007 q 619 1028 561 1028 q 917 957 806 1028 q 1028 769 1028 886 q 956 579 1028 653 q 789 464 883 506 q 527 372 694 422 q 338 289 360 321 l 400 289 q 486 290 435 289 l 733 290 q 836 306 801 290 q 893 353 871 322 q 928 405 915 383 q 963 463 942 426 l 981 463 l 794 0 l -72 0 l -72 14 l 343 326 q 596 561 510 451 q 682 806 682 671 q 633 940 682 892 q 496 988 583 988 z "},"3":{"ha":1028,"x_min":26,"x_max":1071,"o":"m 399 -17 q 135 49 243 -17 q 26 222 26 115 q 82 356 26 301 q 217 410 138 410 q 351 367 300 410 q 401 253 401 324 q 381 173 401 201 q 333 122 360 144 q 293 90 306 100 q 283 63 283 79 q 310 24 283 42 q 374 7 336 7 q 559 131 488 7 q 631 385 631 254 q 601 502 631 458 q 501 546 571 546 q 436 538 467 546 q 379 517 407 526 q 363 539 363 517 q 399 559 363 553 q 468 565 435 565 q 663 647 585 565 q 740 851 740 729 q 706 954 740 911 q 594 997 671 997 q 488 977 531 997 q 446 929 446 957 q 512 881 446 900 q 578 781 578 863 q 531 686 578 721 q 413 651 483 651 q 303 689 344 651 q 261 790 261 726 q 317 909 261 857 q 440 985 372 961 q 565 1019 508 1010 q 688 1028 622 1028 q 960 972 850 1028 q 1071 814 1071 915 q 969 635 1071 696 q 738 575 868 575 l 738 564 q 931 501 856 564 q 1007 349 1007 438 q 827 72 1007 161 q 399 -17 647 -17 z "},"4":{"ha":1007,"x_min":-7,"x_max":1103,"o":"m 472 276 l 644 697 q 501 585 599 661 q 301 433 403 508 q 81 278 200 357 l 253 276 l 472 276 m 779 217 q 728 61 728 88 q 759 32 728 42 q 879 22 790 22 l 879 0 l 206 0 l 206 22 q 238 23 217 22 q 305 29 258 24 q 376 67 351 35 q 450 217 400 99 l -7 217 l -7 251 q 323 485 136 346 q 660 745 510 625 q 993 1018 811 865 l 1103 1018 l 804 276 l 968 276 l 944 217 l 779 217 z "},"5":{"ha":919,"x_min":8,"x_max":1003,"o":"m 8 224 q 60 335 8 290 q 178 381 113 381 q 301 340 254 381 q 347 228 347 299 q 297 112 347 158 q 246 53 246 65 q 267 19 246 31 q 315 7 289 7 q 501 160 422 7 q 579 468 579 314 q 548 591 579 543 q 449 639 517 639 q 297 594 358 639 q 216 524 236 549 q 175 467 196 499 l 157 475 l 444 1021 l 457 1021 q 567 990 503 1006 q 714 975 631 975 q 892 990 821 975 q 992 1025 942 1007 q 1003 1015 1003 1025 q 958 915 1003 982 q 851 810 914 849 q 709 751 789 771 q 551 732 629 732 q 431 740 479 732 q 340 768 382 747 l 236 572 q 386 655 315 631 q 572 679 457 679 q 830 597 732 679 q 928 388 928 514 q 758 90 928 196 q 364 -17 589 -17 q 103 49 199 -17 q 8 224 8 114 z "},"6":{"ha":997,"x_min":108,"x_max":1106,"o":"m 682 536 q 665 596 682 574 q 615 618 649 618 q 548 588 576 618 q 495 513 519 557 q 424 315 471 468 q 378 99 378 161 q 395 36 378 57 q 446 15 413 15 q 565 132 515 15 q 649 359 615 249 q 682 536 682 469 m 946 1006 q 1056 940 1007 986 q 1106 835 1106 893 q 1062 726 1106 767 q 951 685 1018 685 q 835 725 886 685 q 785 828 785 765 q 789 873 785 858 q 803 906 793 888 q 836 941 814 924 q 858 971 858 958 q 852 991 858 979 q 811 1003 846 1003 q 731 972 769 1003 q 653 880 692 942 q 580 740 614 818 q 517 583 546 663 q 601 642 550 624 q 711 661 651 661 q 913 595 829 661 q 997 386 997 529 q 859 101 997 218 q 532 -17 721 -17 q 226 95 343 -17 q 108 390 108 207 q 167 640 108 519 q 329 849 225 761 q 547 983 433 938 q 794 1028 660 1028 q 878 1022 847 1028 q 946 1006 910 1017 z "},"7":{"ha":854,"x_min":64,"x_max":1132,"o":"m 1132 989 q 975 851 1061 928 q 786 672 889 774 q 599 427 683 571 q 497 182 515 283 q 468 22 478 81 q 381 -137 443 -86 q 235 -189 319 -189 q 110 -144 157 -189 q 64 -28 64 -99 q 130 158 64 68 q 308 342 196 247 q 505 499 421 438 q 673 622 589 561 q 806 722 757 683 l 804 729 q 712 727 783 729 q 624 725 640 725 l 326 725 q 229 710 257 725 q 172 647 201 696 l 147 606 l 129 610 l 329 1107 l 349 1107 q 344 1087 346 1099 q 342 1069 342 1075 q 357 1019 342 1028 q 428 1010 372 1010 q 724 1010 547 1010 q 1132 1013 900 1011 l 1132 989 z "},"8":{"ha":963,"x_min":67,"x_max":1022,"o":"m 221 668 q 357 929 221 831 q 682 1028 493 1028 q 930 963 838 1028 q 1022 797 1022 899 q 968 664 1022 722 q 819 585 914 606 q 918 478 882 539 q 954 354 954 417 q 814 83 954 183 q 467 -17 674 -17 q 183 53 300 -17 q 67 249 67 124 q 140 402 67 338 q 307 482 213 467 q 246 569 271 518 q 221 668 221 619 m 803 593 q 909 686 871 629 q 947 813 947 743 q 885 947 947 893 q 726 1000 824 1000 q 583 950 639 1000 q 528 832 528 900 q 560 742 528 781 q 623 687 592 704 q 718 638 654 669 q 803 593 782 606 m 321 472 q 212 386 257 447 q 167 240 167 325 q 244 78 167 146 q 446 10 321 10 q 606 57 538 10 q 674 189 674 104 q 640 281 674 242 q 531 357 606 319 q 408 420 457 394 q 321 472 358 446 z "},"9":{"ha":997,"x_min":39,"x_max":1036,"o":"m 1036 629 q 980 380 1036 499 q 823 171 924 261 q 608 32 722 81 q 342 -17 494 -17 q 122 40 204 -17 q 39 175 39 97 q 83 286 39 246 q 196 326 128 326 q 310 286 260 326 q 360 185 360 246 q 354 140 360 157 q 339 106 349 124 q 306 69 329 89 q 283 36 283 50 q 292 17 283 25 q 324 8 301 8 q 403 38 364 8 q 485 132 443 67 q 561 274 526 197 q 626 431 596 350 q 543 366 589 385 q 431 347 497 347 q 231 422 314 347 q 149 638 149 496 q 288 912 149 796 q 626 1028 428 1028 q 928 913 819 1028 q 1036 629 1036 797 m 771 914 q 756 976 771 956 q 704 997 740 997 q 631 964 660 997 q 567 849 603 931 q 495 648 531 767 q 460 475 460 529 q 476 413 460 433 q 525 392 493 392 q 595 424 564 392 q 651 505 626 456 q 724 701 676 554 q 771 914 771 849 z "}," ":{"ha":333,"x_min":0,"x_max":0,"o":""},"!":{"ha":650,"x_min":97,"x_max":667,"o":"m 574 651 q 424 494 472 551 q 315 308 375 438 l 296 315 q 333 456 321 386 q 344 576 344 525 l 340 768 q 411 951 340 874 q 557 1028 482 1028 q 635 977 604 1028 q 667 856 667 926 q 640 746 667 797 q 574 651 614 694 m 97 124 q 138 218 97 179 q 235 257 178 257 q 333 219 292 257 q 374 124 374 181 q 333 28 374 67 q 235 -11 293 -11 q 138 28 178 -11 q 97 124 97 67 z "},"\"":{"ha":536,"x_min":210,"x_max":715,"o":"m 231 558 l 210 567 q 240 704 226 628 q 254 826 254 781 q 258 910 254 888 q 273 963 261 933 q 324 1011 285 993 q 393 1029 363 1029 q 443 988 422 1029 q 464 917 464 947 q 355 732 464 876 q 231 558 246 588 m 482 558 l 461 567 q 492 704 478 628 q 506 826 506 781 q 509 910 506 888 q 524 963 513 933 q 575 1011 536 993 q 644 1029 614 1029 q 694 988 674 1029 q 715 917 715 947 q 606 732 715 876 q 482 558 497 588 z "},"#":{"ha":1026,"x_min":133,"x_max":1039,"o":"m 651 1006 l 685 997 l 578 732 l 788 732 l 897 1006 l 931 997 l 824 732 l 1039 732 l 972 567 l 757 567 l 697 418 l 913 418 l 846 254 l 632 254 l 521 -19 l 488 -11 l 596 254 l 386 254 l 275 -19 l 242 -11 l 350 254 l 133 254 l 199 418 l 415 418 l 474 567 l 258 567 l 325 732 l 542 732 l 651 1006 m 507 567 l 446 418 l 664 418 l 725 567 l 507 567 z "},"$":{"ha":938,"x_min":46,"x_max":1000,"o":"m 358 21 q 397 16 368 19 q 454 13 425 13 q 597 57 547 13 q 647 171 647 101 q 614 261 647 222 q 490 349 581 300 l 358 21 m 715 1025 l 754 1118 l 783 1110 l 747 1022 q 928 953 857 1007 q 1000 814 1000 900 q 960 719 1000 758 q 864 679 921 679 q 765 713 807 679 q 724 808 724 747 q 744 881 724 853 q 785 919 764 910 q 820 933 807 928 q 833 950 833 939 q 815 972 833 957 q 736 996 797 988 l 606 671 q 691 623 647 647 q 784 564 735 599 q 874 469 833 529 q 915 335 915 410 q 774 74 915 165 q 444 -17 632 -17 q 385 -13 410 -17 q 347 -6 360 -10 l 290 -146 l 263 -136 l 317 -1 q 124 78 201 25 q 46 222 46 132 q 88 324 46 281 q 190 368 131 368 q 296 331 254 368 q 338 229 338 293 q 304 144 338 175 q 231 108 271 114 q 208 92 208 108 q 246 58 208 78 q 328 25 283 38 l 464 363 q 380 410 413 392 q 331 440 347 429 q 228 550 263 493 q 193 683 193 607 q 337 933 193 839 q 635 1028 481 1028 l 715 1025 m 581 685 l 706 999 l 633 1000 q 506 960 561 1000 q 451 850 451 919 q 488 760 451 800 q 581 685 524 721 z "},"%":{"ha":1338,"x_min":122,"x_max":1365,"o":"m 1131 1022 l 382 -50 l 354 -32 l 1050 965 q 963 925 999 936 q 867 914 928 914 q 780 924 826 914 q 693 953 733 935 q 739 871 726 913 q 751 788 751 829 q 640 532 751 638 q 360 426 529 426 q 267 446 310 426 q 190 499 224 465 q 140 578 157 533 q 122 674 122 622 q 233 919 122 810 q 517 1028 343 1028 q 578 1022 553 1028 q 661 992 603 1015 q 778 956 719 969 q 875 942 838 942 q 990 956 949 942 q 1075 1004 1032 971 l 1099 1039 q 1114 1047 1106 1047 q 1130 1040 1124 1047 q 1131 1022 1136 1032 m 1365 329 q 1255 91 1365 199 q 974 -17 1144 -17 q 878 3 924 -17 q 800 58 833 24 q 751 135 767 92 q 736 235 736 179 q 848 477 736 369 q 1128 585 960 585 q 1222 565 1181 585 q 1300 508 1264 546 q 1351 421 1336 471 q 1365 329 1365 371 m 576 950 q 567 990 576 978 q 535 1001 558 1001 q 484 968 507 1001 q 426 863 461 935 q 344 667 392 790 q 297 503 297 544 q 306 464 297 476 q 340 451 315 451 q 399 497 372 451 q 459 611 426 543 q 534 792 492 679 q 576 950 576 906 m 1189 507 q 1178 547 1189 533 q 1147 560 1168 560 q 1090 515 1115 560 q 1034 409 1064 471 q 957 224 1004 347 q 910 60 910 101 q 919 21 910 33 q 953 8 928 8 q 1012 54 985 8 q 1072 167 1039 100 q 1147 350 1104 235 q 1189 507 1189 465 z "},"&":{"ha":1169,"x_min":50,"x_max":1219,"o":"m 346 533 q 314 610 324 578 q 304 696 304 642 q 411 925 304 822 q 657 1028 518 1028 q 808 990 754 1028 q 863 889 863 953 q 797 760 863 801 q 657 685 732 718 q 724 606 688 650 q 796 510 761 561 q 889 630 824 579 q 1043 681 954 681 q 1169 638 1118 681 q 1219 528 1219 596 q 1176 418 1219 463 q 1068 374 1133 374 q 960 406 1004 374 q 915 500 915 439 q 943 582 915 544 q 967 608 957 597 q 976 629 976 618 q 967 639 976 639 q 882 591 935 639 q 815 483 829 543 q 906 315 883 367 q 928 175 928 264 q 808 -114 928 6 q 521 -233 689 -233 q 455 -226 490 -233 q 388 -200 419 -218 l 394 -183 q 456 -203 419 -197 q 521 -210 492 -210 q 642 -167 594 -210 q 690 -44 690 -124 q 669 68 690 15 q 603 183 647 121 q 480 44 564 106 q 288 -17 396 -17 q 122 48 193 -17 q 50 211 50 113 q 110 389 50 324 q 346 533 169 454 m 646 699 q 730 767 699 726 q 761 871 761 807 q 737 968 761 931 q 647 1006 713 1006 q 565 978 606 1006 q 525 897 525 951 q 563 799 525 850 q 646 699 601 749 m 592 199 q 436 399 494 324 q 356 515 378 475 q 304 473 324 499 q 285 413 285 447 q 359 240 285 324 q 503 156 433 156 q 556 165 538 156 q 592 199 575 175 z "},"'":{"ha":285,"x_min":210,"x_max":467,"o":"m 231 560 l 210 568 q 239 703 226 628 q 251 826 251 779 q 255 910 251 888 q 270 963 258 933 q 322 1011 282 993 q 393 1029 361 1029 q 444 988 422 1029 q 467 917 467 946 q 369 752 467 869 q 231 560 271 635 z "},"(":{"ha":622,"x_min":61,"x_max":882,"o":"m 390 -260 l 390 -282 q 146 -125 231 -240 q 61 158 61 -10 q 142 502 61 319 q 390 849 222 685 q 836 1014 557 1014 l 882 1013 l 882 990 q 702 934 785 990 q 533 741 619 878 q 357 355 447 604 q 267 -42 267 106 q 294 -192 267 -146 q 390 -260 321 -237 z "},")":{"ha":622,"x_min":-214,"x_max":607,"o":"m 607 576 q 526 233 607 415 q 278 -115 446 50 q -168 -279 111 -279 l -214 -278 l -214 -256 q -34 -199 -117 -256 q 135 -6 49 -143 q 311 380 221 131 q 401 776 401 629 q 374 926 401 881 q 278 994 347 972 l 278 1017 q 522 860 438 975 q 607 576 607 744 z "},"*":{"ha":667,"x_min":213,"x_max":754,"o":"m 463 778 l 467 822 q 456 897 467 851 q 444 960 444 943 q 478 1013 444 989 q 543 1036 511 1036 q 583 1005 561 1036 q 604 944 604 974 q 551 872 604 924 q 476 774 497 821 l 488 757 q 592 797 538 761 q 668 832 647 832 q 726 801 697 832 q 754 747 754 769 q 726 700 754 731 q 665 669 697 669 q 596 702 650 669 q 486 740 542 735 l 478 725 q 553 636 496 683 q 610 565 610 589 q 589 505 610 538 q 556 472 568 472 q 488 488 524 472 q 451 546 451 503 q 461 606 451 561 q 471 672 471 650 q 470 689 471 681 q 464 721 469 697 l 444 728 q 378 622 411 699 q 300 546 346 546 q 253 553 279 546 q 219 572 226 561 q 213 611 213 582 q 231 678 213 654 q 318 706 250 701 q 436 740 386 711 l 436 756 q 331 785 394 779 q 253 796 268 792 q 226 827 238 800 q 215 883 215 854 q 221 916 215 907 q 251 935 226 925 q 300 944 275 944 q 375 874 344 944 q 444 769 406 804 l 463 778 z "},"+":{"ha":1157,"x_min":242,"x_max":1051,"o":"m 701 867 l 701 510 l 1051 510 l 1051 401 l 701 401 l 701 43 l 592 43 l 592 401 l 242 401 l 242 510 l 592 510 l 592 867 l 701 867 z "},",":{"ha":364,"x_min":-54,"x_max":293,"o":"m -54 -167 q 102 -113 26 -167 q 178 -10 178 -60 q 168 10 178 10 q 142 3 153 6 q 117 0 131 0 q 39 33 72 0 q 6 108 6 67 q 42 211 6 168 q 146 254 79 254 q 251 210 208 254 q 293 106 293 167 q 191 -98 293 -10 q -54 -186 89 -186 l -54 -167 z "},"-":{"ha":431,"x_min":-6,"x_max":440,"o":"m 75 419 l 440 419 l 360 218 l -6 218 l 75 419 z "},"­":{"ha":431,"x_min":-6,"x_max":440,"o":"m 75 419 l 440 419 l 360 218 l -6 218 l 75 419 z "},".":{"ha":364,"x_min":8,"x_max":285,"o":"m 8 124 q 49 218 8 179 q 146 257 89 257 q 244 219 203 257 q 285 124 285 181 q 244 28 285 67 q 146 -11 204 -11 q 49 28 89 -11 q 8 124 8 67 z "},"/":{"ha":417,"x_min":-86,"x_max":604,"o":"m -86 -126 l 544 1064 l 604 1036 l -28 -153 l -86 -126 z "},":":{"ha":433,"x_min":14,"x_max":447,"o":"m 14 124 q 54 218 14 179 q 151 257 94 257 q 249 219 208 257 q 290 124 290 181 q 250 28 290 67 q 151 -11 210 -11 q 54 28 94 -11 q 14 124 14 67 m 171 525 q 211 619 171 581 q 308 658 251 658 q 406 620 365 658 q 447 525 447 582 q 407 429 447 468 q 308 390 367 390 q 211 429 251 390 q 171 525 171 468 z "},";":{"ha":433,"x_min":-49,"x_max":447,"o":"m -49 -167 q 107 -112 31 -167 q 183 -10 183 -58 q 172 10 183 10 q 147 3 158 6 q 122 0 136 0 q 44 33 78 0 q 11 108 11 67 q 48 211 11 168 q 151 254 85 254 q 256 210 214 254 q 299 106 299 167 q 197 -98 299 -10 q -49 -186 94 -186 l -49 -167 m 171 525 q 211 619 171 581 q 308 658 251 658 q 406 620 365 658 q 447 525 447 582 q 407 429 447 468 q 308 390 367 390 q 211 429 251 390 q 171 525 171 468 z "},"<":{"ha":1157,"x_min":249,"x_max":1046,"o":"m 410 461 l 410 454 l 1046 197 l 1003 94 l 249 406 l 249 508 l 1003 819 l 1046 717 l 410 461 z "},"=":{"ha":1157,"x_min":254,"x_max":1042,"o":"m 1042 651 l 1042 543 l 254 543 l 254 651 l 1042 651 m 1042 371 l 1042 263 l 254 263 l 254 371 l 1042 371 z "},">":{"ha":1157,"x_min":250,"x_max":1047,"o":"m 1047 406 l 293 92 l 250 194 l 886 454 l 886 461 l 250 719 l 293 822 l 1047 508 l 1047 406 z "},"?":{"ha":718,"x_min":126,"x_max":771,"o":"m 126 124 q 167 218 126 179 q 264 257 207 257 q 362 219 321 257 q 403 124 403 181 q 363 28 403 67 q 264 -11 322 -11 q 167 28 207 -11 q 126 124 126 67 m 617 389 q 530 338 575 354 q 433 322 485 322 q 281 378 339 322 q 224 525 224 435 q 255 628 224 582 q 346 715 286 675 q 569 842 457 778 q 612 879 596 860 q 628 925 628 899 q 594 985 628 964 q 508 1006 560 1006 q 401 984 444 1006 q 357 936 357 963 q 396 908 357 925 q 435 853 435 892 q 412 799 435 819 q 354 779 389 779 q 303 803 322 779 q 283 858 283 826 q 347 974 283 921 q 508 1028 411 1028 q 697 960 624 1028 q 771 781 771 892 q 740 660 771 713 q 666 578 710 608 q 589 531 622 547 q 475 483 556 515 q 372 438 394 451 q 349 397 349 424 q 376 356 349 369 q 436 343 404 343 q 522 361 481 343 q 600 414 563 379 q 622 403 622 421 q 617 389 622 396 z "},"@":{"ha":1369,"x_min":119,"x_max":1351,"o":"m 881 435 q 901 524 901 494 q 892 553 901 543 q 864 563 883 563 q 813 528 842 563 q 756 440 783 494 q 710 350 728 386 q 688 303 692 314 l 628 167 q 599 90 608 119 q 589 46 589 61 q 594 29 589 35 q 610 24 600 24 q 690 67 644 24 q 764 172 736 111 l 825 303 q 856 374 840 338 q 881 435 872 410 m 1321 456 q 1224 722 1321 608 q 872 835 1126 835 q 444 646 626 835 q 263 207 263 457 q 395 -140 263 -18 q 722 -262 528 -262 q 944 -228 836 -262 q 1207 -81 1051 -193 l 1218 -97 q 977 -243 1107 -189 q 708 -297 847 -297 q 290 -165 461 -297 q 119 211 119 -33 q 340 697 119 500 q 863 894 560 894 q 1217 776 1082 894 q 1351 468 1351 658 q 1313 272 1351 358 q 1201 111 1274 185 q 1054 11 1129 38 q 921 -15 979 -15 q 809 19 854 -15 q 764 118 764 54 l 758 119 q 668 22 713 53 q 551 -8 624 -8 q 428 38 476 -8 q 381 164 381 85 q 516 461 381 313 q 818 610 651 610 q 890 590 860 610 q 921 529 921 571 q 919 517 919 521 l 925 517 l 960 597 l 1206 597 q 1143 463 1181 543 q 1053 267 1106 382 q 990 127 1001 153 q 979 78 979 101 q 989 46 979 57 q 1018 35 999 35 q 1100 58 1057 35 q 1201 144 1143 81 q 1290 281 1260 207 q 1321 456 1321 354 z "},"A":{"ha":1353,"x_min":-44,"x_max":1436,"o":"m 890 497 l 1081 971 q 936 904 1008 956 q 813 790 864 853 q 718 657 763 728 q 625 497 674 586 l 890 497 m 607 465 q 560 374 600 451 q 459 193 519 296 q 332 37 399 90 q 160 -17 265 -17 q 15 34 74 -17 q -44 172 -44 85 q 10 306 -44 251 q 147 361 65 361 q 274 316 222 361 q 326 193 326 271 q 315 132 326 160 q 290 91 304 104 q 247 60 275 78 q 218 28 218 42 q 233 19 228 19 q 308 51 263 19 q 399 152 353 83 q 497 320 444 221 q 631 563 549 419 q 763 780 714 707 q 938 936 813 853 q 1247 1019 1063 1019 q 1363 1017 1321 1019 q 1436 1010 1404 1014 l 1100 174 q 1065 63 1065 86 q 1106 26 1065 29 q 1213 22 1146 22 l 1213 0 l 540 0 l 540 22 q 580 24 557 22 q 637 30 603 26 q 695 60 671 33 q 758 176 719 88 l 878 465 l 607 465 z "},"B":{"ha":1300,"x_min":-72,"x_max":1293,"o":"m 526 -1 l -72 0 l -72 22 l 4 28 q 81 60 57 33 q 165 235 104 88 q 272 505 225 383 q 364 749 319 626 q 417 900 408 871 q 425 943 425 929 q 394 982 425 974 q 271 990 363 990 l 271 1013 l 822 1014 q 1012 1009 961 1014 q 1127 988 1063 1004 q 1242 916 1192 971 q 1293 769 1293 861 q 1204 601 1293 665 q 976 536 1115 536 l 918 538 l 918 525 q 1144 462 1051 525 q 1236 278 1236 399 q 1188 126 1236 189 q 1072 38 1140 63 q 903 6 1004 13 q 665 -1 803 -1 l 526 -1 m 615 517 l 424 24 q 528 24 475 24 q 652 33 581 25 q 784 145 724 42 q 844 363 844 249 q 827 469 844 431 q 747 514 810 508 l 669 518 l 615 517 m 625 542 q 808 560 756 542 q 911 678 861 579 q 961 882 961 776 q 942 956 961 926 q 881 986 924 986 l 801 989 l 625 542 z "},"C":{"ha":1040,"x_min":104,"x_max":1239,"o":"m 543 -17 q 229 107 354 -17 q 104 415 104 231 q 302 842 104 657 q 786 1028 500 1028 q 956 999 886 1028 q 1097 942 1025 971 q 1163 967 1131 942 q 1214 1028 1196 993 l 1239 1028 l 1042 536 l 1015 536 q 1017 640 1015 560 q 1019 729 1019 719 q 998 928 1019 872 q 893 985 976 985 q 783 947 839 985 q 676 839 728 908 q 581 690 624 769 q 512 539 539 611 q 467 390 485 467 q 450 253 450 313 q 485 88 450 144 q 613 31 521 31 q 728 54 679 31 q 820 115 778 78 q 889 194 863 153 q 939 283 915 235 l 964 272 q 796 60 906 138 q 543 -17 686 -17 z "},"D":{"ha":1304,"x_min":-81,"x_max":1339,"o":"m 1339 590 q 1275 325 1339 443 q 1100 133 1211 207 q 849 28 989 60 q 526 -3 708 -3 l -81 0 l -81 22 l -4 28 q 72 60 47 33 q 138 183 96 88 q 235 417 179 278 q 324 638 292 556 q 394 817 356 719 q 432 942 432 915 q 401 981 432 972 q 279 990 371 990 l 279 1013 l 819 1015 q 1216 888 1093 1015 q 1339 590 1339 760 m 1017 796 q 981 925 1017 872 q 906 983 946 978 q 847 988 867 988 q 810 989 828 989 q 701 728 793 950 q 518 279 610 506 q 415 24 426 53 l 538 24 q 869 285 722 24 q 1017 796 1017 546 z "},"E":{"ha":1236,"x_min":-81,"x_max":1388,"o":"m 622 538 q 657 538 640 538 q 727 547 674 539 q 858 614 781 556 q 979 760 935 672 l 1007 760 l 803 253 l 775 253 q 785 306 781 275 q 790 369 790 338 q 764 474 790 439 q 676 510 738 510 l 611 511 l 415 28 l 465 28 q 635 37 535 28 q 852 130 736 46 q 1044 291 968 214 q 1167 415 1121 368 l 1194 415 l 1028 0 l -81 0 l -81 22 l -4 28 q 72 60 47 33 q 140 190 96 88 q 219 378 185 293 q 315 617 254 463 q 403 844 375 772 q 431 942 431 915 q 407 981 431 971 q 292 990 383 990 l 292 1013 l 1388 1013 l 1214 582 l 1188 582 l 1182 679 q 1128 880 1169 793 q 1026 974 1088 967 q 913 983 965 981 q 819 985 861 985 l 801 985 l 622 538 z "},"F":{"ha":1135,"x_min":-74,"x_max":1376,"o":"m 479 174 q 458 109 468 143 q 447 65 447 75 q 476 31 447 39 q 599 22 504 22 l 599 0 l -74 0 l -74 22 l 3 28 q 78 61 54 33 q 147 195 103 89 q 227 392 192 301 q 307 601 263 483 q 379 796 351 719 q 415 901 407 872 q 424 943 424 929 q 396 980 424 969 q 283 990 368 990 l 283 1013 l 1376 1013 l 1171 497 l 1144 497 l 1147 586 q 1107 848 1147 731 q 999 974 1067 965 q 897 983 932 982 q 828 985 863 985 l 796 985 l 617 531 l 692 535 q 863 608 785 550 q 986 753 942 665 l 1014 753 l 804 232 l 776 232 q 788 294 782 256 q 793 358 793 332 q 767 466 793 429 q 679 503 740 503 l 606 504 l 479 174 z "},"G":{"ha":1225,"x_min":104,"x_max":1311,"o":"m 104 415 q 306 842 104 657 q 800 1028 508 1028 q 1007 1000 921 1028 q 1164 938 1085 968 q 1231 963 1200 938 q 1285 1028 1263 988 l 1311 1028 l 1122 557 l 1096 557 q 1099 624 1097 581 q 1100 688 1100 668 l 1097 785 q 1049 940 1097 893 q 924 986 1001 986 q 796 943 861 986 q 677 828 731 900 q 582 681 624 757 q 506 516 540 606 q 451 336 471 426 q 431 165 431 246 q 455 53 431 96 q 536 11 479 11 q 636 47 594 11 q 693 117 678 82 q 723 192 708 153 q 749 269 738 232 q 767 334 760 307 q 774 376 774 361 q 741 414 774 406 q 642 422 708 422 l 642 444 l 1274 444 l 1274 422 l 1232 418 q 1143 380 1164 418 q 1094 269 1122 342 q 1042 126 1065 197 q 1000 -7 1019 54 l 979 -7 q 948 54 971 24 q 847 85 925 85 q 686 34 789 85 q 492 -17 583 -17 q 212 106 319 -17 q 104 415 104 229 z "},"H":{"ha":1396,"x_min":-81,"x_max":1618,"o":"m 606 497 l 476 174 q 442 63 442 86 q 469 30 442 38 q 557 22 496 22 l 557 0 l -81 0 l -81 22 l -4 28 q 72 60 47 33 q 138 183 96 88 q 235 417 179 278 q 324 638 292 556 q 394 818 356 719 q 432 942 432 917 q 403 983 432 975 q 293 990 375 990 l 293 1013 l 928 1013 l 928 990 l 883 988 q 804 956 828 982 q 744 839 781 929 l 619 532 l 944 532 l 1064 836 q 1086 899 1078 871 q 1094 944 1094 928 q 1069 983 1094 976 q 979 990 1044 990 l 979 1013 l 1618 1013 l 1618 990 l 1546 986 q 1458 947 1479 981 q 1401 824 1438 913 q 1319 622 1365 736 q 1228 399 1272 508 q 1144 188 1185 289 q 1104 61 1104 86 q 1131 30 1104 38 q 1242 22 1157 22 l 1242 0 l 608 0 l 608 22 l 658 26 q 734 59 710 32 q 797 174 758 86 q 867 339 835 261 q 931 497 899 417 l 606 497 z "},"I":{"ha":733,"x_min":-81,"x_max":956,"o":"m 956 990 l 883 986 q 796 947 817 981 q 739 824 775 913 q 656 622 703 736 q 566 399 610 508 q 482 188 522 289 q 442 61 442 86 q 467 32 442 42 q 579 22 492 22 l 579 0 l -81 0 l -81 22 l -4 28 q 72 60 47 33 q 138 183 96 88 q 235 417 179 278 q 324 638 292 556 q 394 817 356 719 q 432 942 432 915 q 408 982 432 974 q 293 990 383 990 l 293 1013 l 956 1013 l 956 990 z "},"J":{"ha":944,"x_min":-33,"x_max":1185,"o":"m 439 339 q 599 734 549 594 q 656 900 649 874 q 664 942 664 926 q 641 980 664 969 q 513 990 618 990 l 513 1013 l 1185 1013 l 1185 990 l 1117 986 q 1029 947 1050 981 q 956 781 1008 913 q 870 561 904 650 q 776 332 836 472 q 578 88 715 192 q 231 -17 442 -17 q 45 36 124 -17 q -33 183 -33 89 q 17 312 -33 258 q 140 365 68 365 q 259 323 213 365 q 306 215 306 281 q 269 125 306 165 q 201 77 233 85 q 147 65 168 69 q 125 40 125 60 q 142 15 125 24 q 194 6 160 6 q 332 109 279 6 q 439 339 385 213 z "},"K":{"ha":1246,"x_min":-81,"x_max":1457,"o":"m 585 447 l 476 174 q 442 61 442 88 q 468 30 442 38 q 579 22 494 22 l 579 0 l -81 0 l -81 22 l -4 28 q 72 60 47 33 q 138 183 96 88 q 235 417 179 278 q 324 638 292 556 q 394 817 356 719 q 432 943 432 915 q 401 983 432 979 q 339 988 371 986 q 293 990 307 989 l 293 1013 l 956 1013 l 956 990 l 883 986 q 796 947 817 981 q 744 839 775 913 l 603 490 l 607 489 q 747 591 663 529 q 943 736 831 653 q 1106 858 1056 819 q 1174 920 1157 897 q 1192 960 1192 943 q 1172 984 1192 978 q 1093 990 1153 990 l 1093 1013 l 1457 1013 l 1457 990 q 1409 990 1442 990 q 1337 974 1376 989 q 1265 939 1297 960 q 1158 864 1232 918 l 958 714 l 1078 168 q 1110 64 1096 94 q 1156 28 1125 33 q 1205 23 1186 24 q 1239 22 1224 22 l 1239 0 l 649 0 l 649 22 l 713 25 q 744 38 738 25 q 751 74 751 50 q 723 235 751 100 q 665 501 694 369 l 585 447 z "},"L":{"ha":1178,"x_min":-81,"x_max":1213,"o":"m 960 1013 l 960 990 l 883 986 q 796 947 817 981 q 744 839 775 913 l 415 28 l 439 28 q 504 29 467 28 q 619 38 542 31 q 827 148 697 44 q 1044 344 957 251 q 1182 496 1131 438 l 1213 496 l 1014 0 l -81 0 l -81 22 l -4 28 q 72 60 47 33 q 146 202 96 88 q 238 419 196 317 q 298 567 281 522 q 374 764 315 611 q 432 944 432 917 q 405 981 432 972 q 293 990 378 990 l 293 1013 l 960 1013 z "},"M":{"ha":1753,"x_min":-44,"x_max":1975,"o":"m 490 326 q 419 159 447 214 q 337 44 390 104 q 160 -17 283 -17 q 15 35 75 -17 q -44 171 -44 86 q 10 307 -44 253 q 146 361 64 361 q 272 317 218 361 q 326 201 326 272 q 322 151 326 172 q 308 113 317 131 q 284 81 299 96 q 269 57 269 67 q 283 46 269 46 q 312 60 293 46 q 355 110 331 75 q 403 199 379 144 q 486 403 428 253 q 598 713 544 553 q 657 897 651 874 q 663 932 663 919 q 631 979 663 968 q 504 990 600 990 l 504 1013 l 1026 1013 l 1026 386 l 1457 1013 l 1975 1013 l 1975 990 l 1903 986 q 1815 947 1836 981 q 1723 740 1794 913 q 1602 445 1651 567 q 1517 227 1553 324 q 1471 101 1481 131 q 1461 64 1461 72 q 1492 29 1461 36 q 1599 22 1522 22 l 1599 0 l 939 0 l 939 22 l 1015 28 q 1091 60 1067 33 q 1156 179 1115 88 q 1249 405 1196 271 q 1367 704 1303 539 q 1463 947 1432 869 l 1451 953 l 800 0 l 706 0 l 706 925 l 700 925 q 616 671 653 781 q 558 505 579 561 q 490 326 538 449 z "},"N":{"ha":1444,"x_min":-44,"x_max":1674,"o":"m 1674 1013 l 1674 990 l 1604 985 q 1523 944 1556 979 q 1447 803 1490 910 q 1316 481 1403 697 q 1189 164 1229 264 q 1124 0 1149 64 l 933 0 l 693 900 q 611 658 651 775 q 555 497 571 540 q 493 333 539 453 q 419 159 447 214 q 337 44 390 104 q 160 -17 283 -17 q 15 35 75 -17 q -44 171 -44 86 q 10 307 -44 253 q 146 361 64 361 q 272 317 218 361 q 326 201 326 272 q 322 151 326 172 q 308 113 317 131 q 284 81 299 96 q 269 57 269 67 q 283 46 269 46 q 311 58 294 46 q 353 108 328 71 q 403 199 379 144 q 465 347 428 253 q 548 571 501 440 q 623 788 594 701 q 657 896 651 874 q 663 932 663 918 q 628 978 663 967 q 497 990 593 990 l 497 1013 l 1001 1013 l 1201 285 q 1251 405 1215 319 q 1317 568 1286 490 q 1383 736 1349 646 q 1427 857 1418 826 q 1436 908 1436 888 q 1398 973 1436 956 q 1265 990 1360 990 l 1265 1013 l 1674 1013 z "},"O":{"ha":1188,"x_min":104,"x_max":1229,"o":"m 1229 589 q 1017 167 1229 350 q 543 -17 804 -17 q 222 108 339 -17 q 104 415 104 232 q 319 847 104 665 q 813 1028 533 1028 q 1113 903 996 1028 q 1229 589 1229 778 m 940 881 q 919 969 940 939 q 842 1000 897 1000 q 759 976 792 1000 q 685 894 726 953 q 591 723 644 836 q 497 508 538 610 q 426 301 457 407 q 394 131 394 194 q 416 42 394 72 q 493 11 438 11 q 576 35 543 11 q 649 116 608 58 q 744 290 689 174 q 845 528 799 407 q 916 741 892 649 q 940 881 940 833 z "},"P":{"ha":1186,"x_min":-81,"x_max":1297,"o":"m 586 449 q 637 449 604 449 q 737 457 669 450 q 884 598 804 464 q 964 850 964 732 q 942 947 964 910 q 876 985 919 985 l 807 988 l 586 449 m 575 424 l 476 174 q 443 63 443 88 q 471 30 443 38 q 593 22 499 22 l 593 0 l -81 0 l -81 22 l -4 28 q 72 60 47 33 q 138 183 96 88 q 235 417 179 278 q 324 638 292 556 q 385 797 356 719 q 424 901 415 874 q 432 944 432 928 q 406 982 432 974 q 293 990 381 990 l 293 1013 l 889 1014 q 1075 993 993 1014 q 1204 937 1157 972 q 1274 853 1251 901 q 1297 750 1297 804 q 1165 507 1297 596 q 843 418 1032 418 q 692 419 758 418 q 575 424 625 421 z "},"Q":{"ha":1204,"x_min":104,"x_max":1229,"o":"m 394 131 q 445 179 411 163 q 521 196 479 196 q 594 180 561 196 q 663 135 628 164 q 749 298 701 194 q 844 524 796 401 q 916 740 892 647 q 940 879 940 832 q 919 969 940 938 q 842 1000 897 1000 q 702 917 760 1000 q 591 722 644 835 q 498 508 538 608 q 426 301 458 408 q 394 131 394 193 m 539 11 q 505 120 522 96 q 460 144 488 144 q 419 133 435 144 q 396 101 404 122 q 421 36 396 63 q 493 10 446 10 l 539 11 m 976 -14 q 1120 22 1072 -14 q 1186 142 1168 58 l 1206 142 q 1169 -19 1206 79 q 1048 -195 1132 -118 q 831 -272 964 -272 q 628 -190 696 -272 q 544 -17 560 -108 q 222 107 339 -17 q 104 415 104 231 q 319 847 104 665 q 813 1028 533 1028 q 1113 903 996 1028 q 1229 589 1229 778 q 1104 254 1229 410 q 789 32 979 99 q 976 -14 868 -14 z "},"R":{"ha":1290,"x_min":-81,"x_max":1304,"o":"m 618 528 l 740 532 q 901 644 833 532 q 968 878 968 757 q 881 985 968 985 l 807 988 l 618 528 m 607 503 l 476 174 q 442 61 442 88 q 469 31 442 39 q 579 22 496 22 l 579 0 l -81 0 l -81 22 l -4 28 q 72 60 47 33 q 138 183 96 88 q 235 417 179 278 q 324 638 292 556 q 394 818 356 719 q 432 942 432 917 q 406 981 432 972 q 293 990 379 990 l 293 1013 l 919 1014 q 1203 958 1101 1014 q 1304 786 1304 903 q 1190 585 1304 657 q 925 514 1075 514 l 890 515 l 890 507 q 991 474 957 488 q 1061 419 1025 461 q 1109 344 1097 378 q 1121 260 1121 311 q 1105 142 1121 203 q 1089 72 1089 81 q 1092 50 1089 60 q 1115 40 1096 40 q 1163 63 1136 40 q 1209 112 1190 86 q 1241 161 1228 138 q 1271 219 1254 185 l 1289 213 q 1167 39 1239 94 q 979 -17 1096 -17 q 796 39 861 -17 q 731 203 731 94 q 757 334 731 243 q 783 435 783 425 q 769 484 783 465 q 717 503 754 503 l 674 504 l 607 503 z "},"S":{"ha":986,"x_min":-29,"x_max":1088,"o":"m 488 -17 q 310 26 399 -17 q 133 115 221 69 q 62 73 106 115 q -6 -17 18 31 l -29 -17 l 176 489 l 201 489 q 199 431 200 469 q 197 376 197 393 q 207 261 197 310 q 245 149 217 213 q 342 48 274 86 q 501 10 411 10 q 636 58 585 10 q 688 169 688 107 q 660 247 688 211 q 548 330 632 283 q 347 442 464 376 q 211 679 211 538 q 340 924 211 819 q 650 1028 469 1028 q 819 1000 744 1028 q 957 939 888 969 q 1013 961 990 939 q 1061 1028 1035 983 l 1088 1028 l 917 606 l 892 606 q 896 649 894 624 q 897 708 897 674 q 892 803 897 764 q 868 890 888 843 q 799 969 849 936 q 657 1001 749 1001 q 526 962 586 1001 q 465 856 465 922 q 492 775 465 813 q 556 717 519 738 q 679 648 592 696 q 821 566 767 600 q 915 469 875 532 q 954 332 954 407 q 822 82 954 181 q 488 -17 690 -17 z "},"T":{"ha":1125,"x_min":103,"x_max":1379,"o":"m 661 174 q 626 61 626 86 q 764 22 626 22 l 764 0 l 104 0 l 104 22 l 181 28 q 256 60 232 33 q 325 190 281 88 q 444 479 369 293 q 567 788 518 665 q 646 988 615 910 l 607 983 q 387 845 528 976 q 126 567 246 714 l 103 567 l 282 1013 l 1379 1013 l 1200 567 l 1176 567 q 1134 876 1176 769 q 1032 983 1092 983 l 989 986 l 661 174 z "},"U":{"ha":1185,"x_min":167,"x_max":1476,"o":"m 1175 776 q 1199 849 1188 808 q 1211 913 1211 890 q 1177 974 1211 958 q 1054 990 1143 990 l 1054 1013 l 1476 1013 l 1476 990 l 1383 983 q 1299 944 1332 978 q 1219 794 1265 911 q 1110 519 1172 678 q 1002 265 1049 361 q 865 76 956 169 q 546 -17 774 -17 q 263 67 360 -17 q 167 269 167 150 q 174 320 167 294 q 221 444 182 346 l 379 836 q 410 942 410 917 q 382 981 410 972 q 271 990 354 990 l 271 1013 l 933 1013 l 933 990 l 861 986 q 774 947 794 981 q 717 824 753 913 q 644 647 681 736 q 563 446 608 558 q 508 305 518 333 q 488 240 497 276 q 479 178 479 203 q 520 72 479 111 q 628 32 561 32 q 787 67 714 32 q 898 153 860 101 q 963 253 936 206 q 1003 334 989 300 q 1092 561 1018 368 q 1175 776 1167 754 z "},"V":{"ha":1271,"x_min":122,"x_max":1465,"o":"m 921 751 q 783 542 876 688 q 588 236 689 396 q 436 -6 488 76 l 276 -6 l 276 833 l 274 900 q 255 962 269 944 q 197 985 240 979 l 122 990 l 122 1013 l 767 1013 l 767 990 l 692 986 q 634 966 649 982 q 615 903 619 950 l 613 836 l 613 331 q 708 478 644 379 q 831 667 771 576 q 953 842 890 757 q 1085 977 1015 926 q 1258 1028 1154 1028 q 1404 979 1343 1028 q 1465 847 1465 931 q 1415 706 1465 763 q 1282 650 1364 650 q 1152 692 1207 650 q 1097 806 1097 733 q 1103 853 1097 835 q 1121 890 1110 872 q 1151 928 1132 907 q 1169 963 1169 950 q 1154 974 1169 974 q 1122 967 1139 974 q 1077 936 1106 960 q 1014 873 1049 913 q 921 751 979 833 z "},"W":{"ha":1869,"x_min":122,"x_max":2063,"o":"m 869 675 l 425 -6 l 276 -6 l 276 833 l 274 900 q 255 962 269 944 q 197 985 240 979 l 122 990 l 122 1013 l 717 1013 l 717 990 l 688 988 q 633 967 646 983 q 615 903 619 951 l 613 836 l 613 342 l 869 731 l 869 833 l 867 900 q 854 962 863 940 q 794 989 846 983 l 767 990 l 767 1013 l 1360 1013 l 1360 990 l 1285 986 q 1227 966 1242 982 q 1208 903 1213 950 l 1206 836 l 1206 338 q 1264 428 1236 386 q 1388 614 1292 471 q 1547 842 1483 757 q 1681 977 1611 926 q 1856 1028 1750 1028 q 2003 976 1944 1028 q 2063 840 2063 924 q 2008 704 2063 758 q 1872 650 1954 650 q 1744 694 1797 650 q 1692 811 1692 739 q 1698 853 1692 838 q 1715 889 1704 869 q 1746 929 1726 908 q 1765 964 1765 950 q 1750 976 1765 976 q 1719 967 1738 976 q 1669 933 1700 958 q 1601 863 1638 908 q 1522 757 1565 818 q 1371 530 1478 696 q 1174 220 1264 364 q 1032 -6 1083 76 l 869 -6 l 869 675 z "},"X":{"ha":1061,"x_min":-161,"x_max":1313,"o":"m 481 429 q 316 278 407 363 q 183 152 225 194 q 128 90 140 110 q 115 56 115 71 q 144 29 115 36 q 228 22 172 22 l 228 0 l -161 0 l -161 22 l -99 25 q -12 47 -47 32 q 92 119 22 61 q 310 311 163 176 q 474 460 458 446 l 376 860 q 339 955 358 931 q 279 986 319 979 l 224 990 l 224 1013 l 839 1013 l 839 990 l 779 988 q 724 972 740 983 q 707 919 707 961 q 730 794 707 894 q 763 650 753 694 q 886 765 831 713 q 995 870 942 817 q 1049 957 1049 924 q 947 990 1049 990 l 947 1013 l 1313 1013 l 1313 990 l 1264 988 q 1174 965 1211 981 q 1080 901 1138 950 q 924 763 1022 853 q 769 621 825 672 q 831 353 807 456 q 878 163 856 251 q 919 54 901 75 q 978 26 936 33 l 1036 22 l 1036 0 l 418 0 l 418 22 q 451 23 433 22 q 509 28 468 24 q 550 99 550 33 q 522 244 550 125 q 481 429 494 364 z "},"Y":{"ha":1199,"x_min":79,"x_max":1392,"o":"m 735 492 q 806 633 768 558 q 899 810 843 707 q 1019 971 956 914 q 1190 1028 1082 1028 q 1333 976 1274 1028 q 1392 842 1392 924 q 1339 704 1392 758 q 1203 650 1286 650 q 1075 694 1129 650 q 1021 810 1021 739 q 1025 850 1021 836 q 1038 881 1029 864 q 1061 919 1046 899 q 1076 954 1076 939 q 1064 964 1076 964 q 1022 940 1047 964 q 964 865 997 917 q 874 703 931 814 q 784 522 818 592 q 733 417 750 453 l 636 174 q 601 60 601 82 q 633 30 601 38 q 739 22 664 22 l 739 0 l 79 0 l 79 22 l 156 28 q 231 60 207 33 q 292 172 256 88 q 357 326 329 257 q 410 458 385 394 q 376 566 399 494 q 331 702 353 638 q 278 848 308 767 q 235 953 249 929 q 191 982 221 976 q 142 988 161 988 q 106 990 122 989 l 106 1013 l 754 1013 l 754 990 q 640 977 672 983 q 607 919 607 971 q 619 853 607 896 q 638 789 632 810 l 729 492 l 735 492 z "},"Z":{"ha":1158,"x_min":-39,"x_max":1313,"o":"m 386 28 l 538 33 q 839 192 640 33 q 1150 489 1038 351 l 1178 489 l 981 0 l -39 0 l -39 22 l 888 979 l 888 986 l 768 981 q 467 833 658 981 q 158 549 275 686 l 131 549 l 317 1013 l 1313 1013 l 1313 988 l 386 35 l 386 28 z "},"[":{"ha":650,"x_min":-110,"x_max":881,"o":"m -110 -174 l 371 1019 q 518 989 447 999 q 675 979 589 979 q 793 992 742 979 q 844 1042 844 1004 q 831 1083 844 1065 q 832 1096 825 1090 q 846 1101 839 1101 q 881 1019 881 1067 q 829 899 881 936 q 701 861 778 861 q 533 903 611 861 q 393 981 456 944 l -57 -135 q 111 -49 42 -82 q 263 -15 181 -15 q 391 -52 340 -15 q 442 -174 442 -89 q 407 -250 442 -221 q 394 -251 401 -256 q 392 -237 386 -246 q 406 -196 406 -219 q 352 -147 406 -160 q 236 -133 299 -133 q 67 -143 149 -133 q -92 -174 -15 -153 l -110 -174 z "},"\\":{"ha":501,"x_min":122,"x_max":529,"o":"m 529 -142 l 468 -154 l 122 1049 l 185 1064 l 529 -142 z "},"]":{"ha":650,"x_min":-151,"x_max":839,"o":"m 839 1019 l 358 -174 q 211 -143 282 -153 q 54 -133 140 -133 q -64 -146 -12 -133 q -115 -196 -115 -158 q -101 -237 -115 -219 q -103 -250 -96 -244 q -117 -256 -110 -256 q -151 -174 -151 -221 q -100 -53 -151 -90 q 28 -15 -49 -15 q 195 -57 118 -15 q 336 -135 272 -99 l 786 981 q 618 894 688 928 q 467 861 549 861 q 338 898 389 861 q 288 1019 288 935 q 322 1096 288 1067 q 335 1097 328 1101 q 338 1083 343 1092 q 324 1042 324 1065 q 377 992 324 1006 q 493 979 431 979 q 663 989 581 979 q 821 1019 744 999 l 839 1019 z "},"^":{"ha":1157,"x_min":286,"x_max":1011,"o":"m 653 851 l 646 851 l 389 326 l 286 369 l 599 1013 l 699 1013 l 1011 369 l 908 326 l 653 851 z "},"_":{"ha":694,"x_min":0,"x_max":694,"o":"m 694 -118 l 694 -226 l 0 -226 l 0 -118 l 694 -118 z "},"`":{"ha":694,"x_min":261,"x_max":557,"o":"m 557 740 l 546 726 q 358 815 451 771 q 285 869 310 843 q 261 929 261 894 q 269 985 261 976 q 297 1001 278 994 q 336 1007 315 1007 q 403 974 376 1007 q 474 833 442 888 q 557 740 506 778 z "},"a":{"ha":919,"x_min":17,"x_max":932,"o":"m 932 658 l 692 131 q 678 94 688 122 q 668 60 668 67 q 673 42 668 49 q 688 36 678 36 q 742 64 707 36 q 816 142 776 92 q 888 256 856 193 l 906 247 q 826 119 867 175 q 724 24 785 63 q 576 -14 663 -14 q 472 24 507 -14 q 438 139 438 63 q 334 22 383 58 q 207 -14 285 -14 q 70 40 124 -14 q 17 179 17 93 q 167 508 17 343 q 501 672 318 672 q 579 651 544 672 q 614 586 614 631 l 610 553 l 658 658 l 932 658 m 596 583 q 587 616 596 606 q 558 626 578 626 q 498 585 532 626 q 410 439 464 543 q 301 208 356 335 q 247 44 247 82 q 253 25 247 32 q 269 18 258 18 q 351 60 313 18 q 411 133 390 103 q 466 234 432 163 q 548 418 500 306 q 596 583 596 531 z "},"b":{"ha":821,"x_min":43,"x_max":799,"o":"m 569 582 q 561 621 569 608 q 535 633 553 633 q 501 622 519 633 q 456 578 482 610 q 393 470 429 547 q 300 249 357 393 q 243 53 243 106 q 285 8 243 8 q 348 51 317 8 q 427 186 379 93 q 522 406 475 279 q 569 582 569 532 m 614 672 q 743 617 688 672 q 799 454 799 561 q 670 135 799 285 q 322 -14 542 -14 q 128 53 213 -14 q 43 231 43 121 q 57 307 43 268 q 94 397 78 356 q 149 530 110 438 q 219 696 188 622 q 282 851 250 769 q 314 956 314 932 q 280 987 314 983 q 207 990 246 990 l 207 1013 l 617 1013 l 438 583 q 508 649 475 626 q 614 672 542 672 z "},"c":{"ha":681,"x_min":19,"x_max":733,"o":"m 525 649 q 457 611 494 649 q 379 500 419 574 q 314 335 339 426 q 289 174 289 244 q 313 62 289 93 q 382 31 338 31 q 444 42 417 31 q 506 79 472 54 q 563 131 540 104 q 611 193 586 157 l 631 179 q 473 28 551 69 q 306 -14 394 -14 q 110 49 201 -14 q 19 233 19 113 q 166 535 19 399 q 517 672 313 672 q 685 628 638 672 q 733 529 733 583 q 698 433 733 469 q 607 396 663 396 q 524 425 557 396 q 490 497 490 454 q 523 575 490 533 q 556 632 556 617 q 548 644 556 640 q 525 649 540 649 z "},"d":{"ha":918,"x_min":22,"x_max":1053,"o":"m 581 571 q 571 604 581 593 q 542 615 561 615 q 485 579 515 615 q 404 441 456 543 q 297 210 353 339 q 240 46 240 82 q 247 26 240 33 q 264 19 253 19 q 351 60 314 19 q 410 130 389 100 q 456 215 431 160 q 531 397 482 269 q 581 571 581 525 m 696 131 q 680 88 685 103 q 675 61 675 74 q 680 47 675 51 q 694 42 685 42 q 780 97 738 42 q 840 181 822 153 q 885 257 857 210 l 903 249 q 822 114 857 164 q 728 25 786 64 q 597 -14 671 -14 q 491 26 533 -14 q 449 132 449 65 l 450 150 q 344 27 396 68 q 214 -14 292 -14 q 75 44 128 -14 q 22 204 22 103 q 155 518 22 364 q 456 672 288 672 q 562 647 524 672 q 600 568 600 622 l 599 547 q 652 683 607 569 q 715 844 697 797 q 742 915 733 890 q 750 951 750 939 q 728 984 750 978 q 629 990 706 990 l 629 1013 l 1053 1013 l 696 131 z "},"e":{"ha":704,"x_min":19,"x_max":743,"o":"m 308 324 q 485 433 406 335 q 564 606 564 531 q 558 638 564 626 q 533 649 553 649 q 472 615 503 649 q 407 522 442 582 q 348 413 372 463 q 308 324 324 364 m 304 308 q 289 240 296 282 q 282 169 282 197 q 303 60 282 92 q 367 28 325 28 q 424 35 399 28 q 482 63 449 43 q 552 119 515 82 q 611 193 589 157 l 631 179 q 493 42 572 97 q 301 -14 414 -14 q 109 48 199 -14 q 19 229 19 110 q 170 534 19 396 q 525 672 321 672 q 682 628 621 672 q 743 528 743 585 q 615 363 743 418 q 304 308 488 308 z "},"f":{"ha":513,"x_min":-378,"x_max":890,"o":"m 207 614 l 61 614 l 79 658 l 228 658 q 331 813 261 728 q 499 963 400 899 q 708 1028 597 1028 q 840 992 789 1028 q 890 893 890 957 q 852 805 890 840 q 758 769 814 769 q 687 795 717 769 q 657 861 657 821 q 688 946 657 910 q 718 992 718 982 q 686 1004 718 1004 q 561 900 611 1004 q 482 658 511 796 l 661 658 l 643 614 l 472 614 q 440 467 461 557 q 384 269 419 376 q 300 69 349 163 q 185 -109 251 -24 q 19 -259 118 -194 q -193 -324 -79 -324 q -324 -280 -271 -324 q -378 -167 -378 -236 q -339 -81 -378 -118 q -246 -43 -300 -43 q -158 -73 -196 -43 q -121 -150 -121 -103 q -156 -244 -121 -207 q -190 -287 -190 -282 q -171 -300 -190 -300 q -60 -242 -101 -300 q 18 -32 -19 -183 q 92 265 56 119 q 156 482 129 411 q 207 614 182 553 z "},"g":{"ha":871,"x_min":-85,"x_max":917,"o":"m 589 579 q 579 615 589 603 q 549 626 569 626 q 492 585 525 626 q 411 449 460 544 q 306 217 363 354 q 250 44 250 81 q 256 25 250 32 q 272 18 261 18 q 356 61 317 18 q 412 130 394 104 q 465 231 429 156 q 544 417 500 307 q 589 579 589 526 m 917 658 q 817 402 871 538 q 682 76 764 267 q 467 -218 600 -114 q 118 -322 333 -322 q -26 -276 33 -322 q -85 -168 -85 -231 q -49 -78 -85 -118 q 47 -39 -14 -39 q 138 -74 100 -39 q 175 -158 175 -108 q 144 -233 175 -203 q 64 -264 114 -264 q 49 -275 49 -264 q 66 -292 49 -285 q 117 -300 83 -300 q 247 -237 190 -300 q 353 -66 304 -174 q 449 146 403 42 l 444 147 q 343 28 397 71 q 211 -14 289 -14 q 72 40 128 -14 q 17 182 17 94 q 162 510 17 347 q 493 672 307 672 q 574 651 540 672 q 608 581 608 631 l 607 557 l 650 658 l 917 658 z "},"h":{"ha":879,"x_min":-47,"x_max":850,"o":"m 850 208 q 732 42 786 99 q 574 -14 678 -14 q 462 31 500 -14 q 424 144 424 75 q 446 253 424 199 q 500 359 467 294 q 572 497 533 424 q 611 608 611 571 q 605 631 611 624 q 586 638 599 638 q 538 622 561 638 q 472 558 514 607 q 393 418 431 508 l 222 0 l -47 0 q 47 231 -10 92 q 178 553 104 369 q 284 817 253 738 q 323 918 315 896 q 331 956 331 940 q 285 988 331 988 l 224 990 l 224 1013 l 633 1013 l 440 549 q 531 642 494 611 q 647 672 568 672 q 769 631 715 672 q 822 506 822 589 q 812 431 822 458 q 765 326 801 403 q 681 160 729 250 q 633 49 633 69 q 640 33 633 39 q 657 28 646 28 q 735 77 694 28 q 797 158 776 126 q 832 217 818 190 l 850 208 z "},"i":{"ha":511,"x_min":43,"x_max":592,"o":"m 43 447 q 178 629 121 586 q 304 672 236 672 q 410 631 365 672 q 456 508 456 590 q 439 426 456 472 q 393 320 422 381 q 313 169 364 260 q 261 51 261 78 q 267 33 261 39 q 286 26 274 26 q 326 44 301 26 q 375 90 351 61 q 424 158 399 119 q 467 226 450 196 l 485 217 q 359 40 410 94 q 206 -14 308 -14 q 92 30 131 -14 q 53 140 53 74 q 66 220 53 185 q 122 339 79 256 q 196 488 164 422 q 238 576 228 553 q 247 611 247 600 q 242 626 247 621 q 228 631 238 631 q 195 613 218 631 q 135 552 172 596 q 61 439 99 508 l 43 447 m 326 897 q 365 990 326 954 q 458 1026 404 1026 q 553 990 514 1026 q 592 897 592 954 q 552 805 592 842 q 458 768 513 768 q 365 805 403 768 q 326 897 326 842 z "},"j":{"ha":482,"x_min":-411,"x_max":586,"o":"m 242 608 q 238 625 242 619 q 224 631 233 631 q 153 583 189 631 q 96 501 117 536 q 53 425 75 465 l 33 433 q 154 615 100 557 q 300 672 208 672 q 406 631 361 672 q 451 507 451 590 q 418 351 451 454 q 305 67 385 249 q 95 -218 225 -114 q -221 -322 -35 -322 q -360 -280 -310 -322 q -411 -176 -411 -237 q -377 -90 -411 -126 q -285 -53 -343 -53 q -202 -83 -236 -53 q -168 -160 -168 -112 q -190 -224 -168 -196 q -238 -256 -212 -251 q -278 -265 -264 -261 q -292 -278 -292 -268 q -282 -295 -292 -290 q -251 -300 -272 -300 q -133 -240 -187 -300 q -44 -110 -79 -181 q 42 83 -10 -39 q 122 274 93 204 q 189 448 150 344 q 235 574 228 551 q 242 608 242 596 m 321 897 q 360 990 321 954 q 453 1026 399 1026 q 547 990 508 1026 q 586 897 586 954 q 547 805 586 842 q 453 768 507 768 q 359 805 397 768 q 321 897 321 842 z "},"k":{"ha":864,"x_min":-47,"x_max":896,"o":"m 364 351 l 222 0 l -47 0 q 47 231 -10 92 q 178 553 104 369 q 284 817 253 738 q 323 918 315 896 q 331 956 331 940 q 285 988 331 988 l 224 990 l 224 1013 l 633 1013 l 371 369 q 482 424 444 378 q 548 534 518 488 q 638 626 578 581 q 764 672 697 672 q 860 641 825 672 q 896 557 896 610 q 858 464 896 501 q 768 426 821 426 q 689 456 721 426 q 657 531 657 485 q 676 593 657 564 q 719 639 697 615 q 710 642 714 642 q 642 590 674 642 q 596 504 618 547 q 546 442 569 461 q 464 385 522 422 q 561 363 513 382 q 634 319 610 344 q 665 269 658 293 q 671 218 671 244 q 662 147 671 185 q 643 71 653 110 q 649 49 643 57 q 665 42 654 42 q 732 85 696 42 q 786 153 768 128 q 826 217 804 179 l 843 207 q 715 38 778 89 q 546 -14 651 -14 q 430 28 479 -14 q 381 139 381 69 q 403 230 381 161 q 425 310 425 299 q 413 345 425 339 q 364 351 401 351 z "},"l":{"ha":485,"x_min":18,"x_max":617,"o":"m 285 860 q 308 921 301 901 q 314 956 314 940 q 291 984 314 978 q 207 990 268 990 l 207 1013 l 617 1013 q 501 730 569 897 q 338 327 433 563 q 237 78 242 92 q 232 49 232 64 q 238 31 232 36 q 251 25 243 25 q 327 71 289 25 q 392 157 365 117 q 442 233 419 197 l 461 224 q 331 43 386 100 q 190 -14 276 -14 q 67 36 115 -14 q 18 150 18 86 q 25 208 18 182 q 46 268 32 235 l 285 860 z "},"m":{"ha":1340,"x_min":-14,"x_max":1331,"o":"m 1331 218 q 1199 45 1258 104 q 1035 -14 1140 -14 q 926 32 963 -14 q 889 140 889 78 q 900 219 889 186 q 930 292 911 253 q 1008 449 949 332 q 1068 601 1068 567 q 1062 624 1068 617 q 1042 631 1056 631 q 1001 611 1025 631 q 943 545 978 592 q 876 433 908 499 q 792 253 844 367 q 714 85 739 139 q 675 0 689 31 l 404 0 q 467 141 411 15 q 578 388 524 267 q 640 525 633 510 q 655 563 647 540 q 663 601 663 585 q 656 624 663 617 q 638 632 650 632 q 596 613 619 632 q 548 561 572 593 q 500 490 524 529 q 461 418 476 451 l 257 0 l -14 0 l 226 528 q 240 560 229 535 q 250 606 250 586 q 244 626 250 619 q 228 632 239 632 q 188 614 214 632 q 137 567 163 596 q 86 500 111 538 q 32 410 61 463 l 15 418 q 156 619 89 565 q 296 672 224 672 q 406 626 361 672 q 450 515 450 581 q 447 464 450 485 q 439 424 444 443 l 443 422 q 580 624 521 575 q 710 672 639 672 q 828 633 782 672 q 875 528 875 593 q 868 472 875 497 q 853 431 857 443 q 974 617 924 561 q 1128 672 1025 672 q 1240 632 1196 672 q 1285 507 1285 592 q 1270 424 1285 460 q 1224 322 1256 388 q 1144 164 1193 257 q 1094 50 1094 71 q 1100 31 1094 38 q 1115 24 1106 24 q 1200 73 1156 24 q 1268 157 1244 122 q 1314 228 1292 192 l 1331 218 z "},"n":{"ha":933,"x_min":-10,"x_max":917,"o":"m 718 672 q 830 631 783 672 q 876 508 876 590 q 861 428 876 471 q 824 338 846 386 q 744 179 801 289 q 688 50 688 69 q 693 33 688 39 q 710 28 699 28 q 747 44 724 28 q 812 107 771 61 q 899 244 853 153 l 917 235 q 794 53 853 121 q 628 -14 735 -14 q 517 31 554 -14 q 479 140 479 75 q 489 213 479 185 q 548 340 499 240 q 629 504 597 440 q 661 604 661 568 q 656 624 661 618 q 638 631 650 631 q 595 610 621 631 q 535 543 569 589 q 463 418 500 497 l 261 0 l -10 0 l 226 528 q 246 574 235 549 q 257 611 257 600 q 253 625 257 621 q 240 629 249 629 q 196 612 221 629 q 147 567 171 594 q 94 497 122 539 q 38 408 65 454 l 19 417 q 151 603 86 533 q 310 672 215 672 q 415 631 376 672 q 453 517 453 590 q 447 456 453 483 q 436 413 440 429 q 556 605 499 538 q 718 672 614 672 z "},"o":{"ha":768,"x_min":24,"x_max":744,"o":"m 744 397 q 610 113 744 240 q 283 -14 476 -14 q 178 8 225 -14 q 77 88 131 31 q 24 261 24 144 q 156 544 24 415 q 485 672 289 672 q 590 651 546 672 q 675 586 635 629 q 730 495 715 543 q 744 397 744 447 m 553 601 q 542 636 553 624 q 508 649 532 649 q 454 615 483 649 q 370 472 425 581 q 265 237 315 363 q 215 60 215 111 q 226 20 215 33 q 260 7 238 7 q 310 38 283 7 q 387 165 336 68 q 495 403 438 263 q 553 601 553 544 z "},"p":{"ha":876,"x_min":-256,"x_max":860,"o":"m 860 440 q 738 137 860 288 q 444 -14 617 -14 q 343 11 382 -14 q 304 108 304 36 q 235 -53 271 32 q 189 -168 200 -139 q 167 -226 178 -197 q 157 -267 157 -256 q 178 -294 157 -289 q 276 -299 200 -299 l 276 -321 l -256 -321 l -256 -299 q -233 -297 -247 -299 q -190 -292 -219 -296 q -136 -267 -160 -287 q -68 -144 -112 -247 l 215 528 q 231 569 225 550 q 236 601 236 588 q 232 620 236 614 q 218 626 228 626 q 178 610 200 626 q 131 562 157 593 q 74 485 104 531 q 25 400 44 440 l 7 408 q 128 595 60 518 q 286 672 196 672 q 398 628 358 672 q 438 504 438 585 l 435 469 q 533 622 489 571 q 660 672 576 672 q 800 610 740 672 q 860 440 860 549 m 633 589 q 626 626 633 614 q 603 638 618 638 q 532 590 571 638 q 457 466 493 543 q 373 263 421 389 q 325 88 325 138 q 335 45 325 60 q 367 31 346 31 q 426 73 400 31 q 493 196 451 115 q 584 407 535 276 q 633 589 633 538 z "},"q":{"ha":857,"x_min":22,"x_max":908,"o":"m 593 603 q 583 638 593 626 q 551 649 572 649 q 494 609 525 649 q 410 464 464 569 q 301 228 356 358 q 247 54 247 99 q 254 28 247 38 q 275 19 261 19 q 357 63 317 19 q 439 188 397 106 q 537 412 481 271 q 593 603 593 553 m 908 658 l 567 -168 q 535 -268 535 -244 q 555 -293 535 -287 q 640 -299 575 -299 l 640 -321 l 107 -321 l 107 -299 q 134 -298 121 -299 q 183 -292 147 -297 q 243 -266 218 -287 q 308 -144 268 -244 l 399 78 q 319 8 353 29 q 228 -14 286 -14 q 81 45 140 -14 q 22 204 22 104 q 163 522 22 372 q 519 672 303 672 q 648 646 594 672 q 733 550 701 619 l 894 664 l 908 658 z "},"r":{"ha":768,"x_min":-15,"x_max":819,"o":"m 819 544 q 782 440 819 483 q 688 397 744 397 q 601 426 638 397 q 564 506 564 454 q 576 551 564 531 q 601 596 588 572 q 588 608 601 608 q 531 555 567 608 q 457 418 496 501 l 256 0 l -15 0 l 224 528 q 236 560 231 542 q 242 594 242 579 q 238 613 242 607 q 224 618 233 618 q 185 600 207 618 q 142 556 163 582 q 92 482 122 531 q 43 399 61 433 l 25 406 q 176 623 113 574 q 319 672 240 672 q 419 631 386 672 q 451 517 451 589 q 444 461 451 489 q 432 419 438 433 l 436 418 q 549 611 500 550 q 689 672 599 672 q 787 632 754 672 q 819 544 819 592 z "},"s":{"ha":625,"x_min":-19,"x_max":642,"o":"m 431 672 q 580 628 518 672 q 642 519 642 585 q 612 437 642 471 q 536 403 582 403 q 461 435 496 403 q 426 511 426 467 q 440 556 426 536 q 469 585 453 576 q 509 598 485 593 q 533 617 533 603 q 510 640 533 629 q 447 651 488 651 q 356 624 392 651 q 319 554 319 597 q 332 501 319 521 q 376 453 344 482 l 488 356 q 543 285 525 321 q 561 201 561 249 q 465 42 561 99 q 253 -15 369 -15 q 65 38 149 -15 q -19 178 -19 92 q 12 256 -19 224 q 92 289 43 289 q 167 256 132 289 q 201 178 201 222 q 183 122 201 146 q 143 94 165 99 q 106 85 121 89 q 92 69 92 82 q 130 28 92 50 q 221 7 168 7 q 303 33 268 7 q 338 101 338 60 q 325 157 338 138 q 287 199 313 176 q 223 256 261 222 q 165 313 185 289 q 133 362 144 338 q 122 425 122 386 q 206 595 122 518 q 431 672 290 672 z "},"t":{"ha":501,"x_min":22,"x_max":636,"o":"m 636 658 l 618 614 l 463 614 l 253 107 q 240 72 243 83 q 238 50 238 61 q 243 31 238 38 q 258 25 249 25 q 301 41 276 25 q 351 84 325 57 q 406 151 378 111 q 453 226 435 192 l 471 217 q 340 44 403 103 q 183 -14 276 -14 q 63 34 103 -14 q 22 149 22 82 q 29 202 22 179 q 53 268 36 225 l 197 614 l 78 614 l 96 658 l 215 658 l 326 926 l 594 926 l 482 658 l 636 658 z "},"u":{"ha":933,"x_min":19,"x_max":943,"o":"m 214 -14 q 102 26 149 -14 q 56 149 56 67 q 72 232 56 186 q 117 339 89 278 q 196 494 146 400 q 246 606 246 588 q 241 624 246 618 q 225 629 236 629 q 188 613 211 629 q 142 571 165 596 q 90 501 119 546 q 38 415 60 457 l 19 424 q 145 607 88 542 q 306 672 203 672 q 415 627 378 672 q 453 518 453 582 q 431 410 453 463 q 390 322 410 367 q 319 185 369 278 q 269 56 269 92 q 276 35 269 42 q 293 28 282 28 q 364 74 326 28 q 426 160 401 121 q 471 240 451 200 l 672 658 l 943 658 l 707 131 q 690 88 700 113 q 681 51 681 63 q 685 37 681 42 q 697 32 689 32 q 772 71 738 32 q 836 155 806 110 q 901 261 867 200 l 918 251 q 782 54 842 122 q 624 -14 722 -14 q 519 27 557 -14 q 481 142 481 68 q 488 201 481 172 q 499 246 494 231 q 367 50 422 114 q 214 -14 313 -14 z "},"v":{"ha":736,"x_min":22,"x_max":743,"o":"m 282 -14 q 122 31 189 -14 q 56 161 56 75 q 69 233 56 199 q 112 330 82 268 q 194 488 142 392 q 246 606 246 585 q 240 624 246 618 q 224 629 235 629 q 182 611 207 629 q 122 551 157 593 q 42 428 86 510 l 22 436 q 145 608 85 543 q 306 672 206 672 q 419 628 385 672 q 453 518 453 585 q 442 439 453 469 q 399 342 431 408 q 324 199 360 272 q 289 88 289 126 q 301 42 289 57 q 346 26 314 26 q 549 138 440 26 q 657 333 657 249 q 583 435 657 381 q 508 560 508 489 q 542 640 508 608 q 619 672 575 672 q 713 633 683 672 q 743 528 743 594 q 607 167 743 349 q 282 -14 471 -14 z "},"w":{"ha":1179,"x_min":18,"x_max":1188,"o":"m 214 -14 q 102 26 149 -14 q 56 149 56 67 q 74 235 56 186 q 113 329 92 285 q 190 481 135 374 q 246 606 246 589 q 240 624 246 618 q 224 629 235 629 q 176 603 207 629 q 125 554 146 578 q 83 497 104 531 q 36 415 63 463 l 18 424 q 142 603 81 535 q 306 672 204 672 q 416 628 379 672 q 453 518 453 583 q 443 442 453 469 q 399 342 433 414 l 293 129 q 276 90 283 110 q 269 54 269 71 q 276 33 269 40 q 296 26 283 26 q 378 88 329 26 q 471 240 426 150 l 667 658 l 938 658 l 789 342 q 718 181 743 243 q 693 82 693 119 q 710 39 693 50 q 760 28 728 28 q 974 142 854 28 q 1093 343 1093 256 q 1024 435 1093 388 q 954 557 954 482 q 989 640 954 608 q 1068 672 1024 672 q 1158 635 1128 672 q 1188 535 1188 599 q 1033 174 1188 361 q 690 -14 878 -14 q 528 33 593 -14 q 463 179 463 81 q 356 35 410 83 q 214 -14 303 -14 z "},"x":{"ha":928,"x_min":-58,"x_max":986,"o":"m 986 556 q 953 476 986 510 q 875 443 919 443 q 814 467 839 443 q 789 526 789 490 q 803 577 789 557 q 833 604 817 597 q 863 617 849 611 q 878 635 878 624 q 872 651 878 646 q 854 656 867 656 q 758 598 810 656 q 664 460 707 540 q 576 265 621 379 q 532 96 532 151 q 547 47 532 64 q 592 31 563 31 q 676 49 636 31 q 756 104 717 68 q 828 188 794 140 q 893 290 861 235 l 914 282 q 744 65 840 143 q 519 -14 647 -14 q 369 34 429 -14 q 308 157 308 82 q 200 39 264 92 q 75 -14 136 -14 q -22 18 14 -14 q -58 108 -58 50 q -26 190 -58 154 q 53 225 7 225 q 120 201 94 225 q 146 135 146 176 q 127 81 146 101 q 90 54 108 61 q 56 41 71 47 q 40 24 40 35 q 47 8 40 14 q 67 3 54 3 q 178 65 136 3 q 262 201 221 128 q 348 390 303 275 q 393 554 393 504 q 378 608 393 589 q 331 628 363 628 q 244 603 286 628 q 167 544 201 579 q 109 475 133 508 q 58 397 85 442 l 39 407 q 199 603 108 535 q 411 672 289 672 q 557 633 503 672 q 628 513 611 593 q 736 626 678 579 q 860 672 794 672 q 953 641 921 672 q 986 556 986 610 z "},"y":{"ha":882,"x_min":-69,"x_max":935,"o":"m 135 -322 q -11 -275 47 -322 q -69 -164 -69 -228 q -32 -75 -69 -114 q 69 -36 6 -36 q 160 -70 122 -36 q 199 -154 199 -104 q 126 -250 199 -229 q 75 -258 90 -256 q 60 -275 60 -260 q 74 -294 60 -287 q 118 -300 89 -300 q 250 -236 190 -300 q 352 -89 310 -172 q 464 156 394 -6 l 460 157 q 349 31 407 75 q 211 -12 292 -12 q 100 27 147 -12 q 53 149 53 67 q 71 235 53 186 q 112 332 89 283 q 190 483 135 381 q 246 606 246 586 q 240 622 246 617 q 224 628 235 628 q 151 581 189 628 q 83 488 113 533 q 38 415 54 443 l 19 424 q 151 612 97 551 q 306 672 206 672 q 415 627 378 672 q 453 518 453 582 q 442 439 453 469 q 403 350 431 408 q 322 190 375 292 q 268 56 268 88 q 274 35 268 42 q 293 28 281 28 q 329 40 308 28 q 374 77 350 53 q 426 141 399 101 q 484 242 454 181 q 571 435 514 304 q 640 597 628 565 q 664 658 651 628 l 935 658 q 878 519 915 611 q 803 335 842 428 q 684 65 764 242 q 468 -217 604 -112 q 135 -322 332 -322 z "},"z":{"ha":747,"x_min":-32,"x_max":782,"o":"m 553 393 l 551 400 q 519 394 544 397 q 486 392 494 392 q 347 424 429 392 q 215 456 265 456 q 126 426 151 456 q 89 340 100 396 l 74 340 q 147 576 74 479 q 358 672 219 672 q 550 596 446 672 q 703 519 654 519 q 744 533 725 519 q 763 569 763 547 q 761 579 763 576 q 756 583 760 582 q 738 579 751 583 q 710 575 724 575 q 678 590 693 575 q 664 624 664 604 q 681 659 664 646 q 718 672 699 672 q 767 651 751 672 q 782 596 782 631 q 735 491 782 542 q 618 414 688 440 q 533 376 588 396 q 439 346 479 356 l 304 315 q 236 301 274 308 q 165 279 199 293 l 168 272 q 206 282 181 278 q 250 286 232 286 q 386 255 289 286 q 528 224 483 224 q 647 253 604 224 q 706 356 689 282 l 721 356 q 638 95 721 204 q 408 -14 556 -14 q 222 74 340 -14 q 67 163 103 163 q 7 144 31 163 q -17 86 -17 125 q -8 53 -17 68 q 14 39 0 39 q 75 96 42 96 q 114 80 103 96 q 125 46 125 64 q 104 1 125 17 q 57 -14 83 -14 q -6 13 19 -14 q -32 89 -32 40 q 9 192 -32 143 q 111 264 50 242 q 203 306 138 281 q 315 343 268 331 q 407 363 363 356 q 484 376 451 369 q 553 393 517 382 z "},"{":{"ha":557,"x_min":28,"x_max":797,"o":"m 797 988 q 635 956 693 988 q 551 855 576 924 q 511 727 526 786 q 465 590 496 668 q 360 467 435 511 q 192 415 285 424 l 192 407 q 283 367 244 401 q 321 268 321 332 q 249 78 321 219 q 178 -132 178 -62 q 211 -221 178 -193 q 322 -249 244 -249 l 322 -274 q 114 -235 200 -274 q 28 -76 28 -196 q 129 139 28 13 q 231 322 231 265 q 199 381 231 360 q 86 401 167 401 l 86 426 q 301 494 261 426 q 340 663 340 561 q 360 812 340 760 q 426 913 381 864 q 547 988 471 961 q 729 1015 622 1015 l 797 1013 l 797 988 z "},"|":{"ha":618,"x_min":321,"x_max":428,"o":"m 321 1047 l 428 1047 l 428 -342 l 321 -342 l 321 1047 z "},"}":{"ha":557,"x_min":-201,"x_max":568,"o":"m 568 815 q 467 600 568 726 q 365 417 365 474 q 397 358 365 379 q 510 338 429 338 l 510 313 q 303 253 351 313 q 256 107 256 194 l 256 76 q 235 -73 256 -21 q 170 -174 215 -125 q 49 -249 125 -222 q -133 -276 -26 -276 l -201 -274 l -201 -249 q -39 -217 -97 -249 q 61 -71 19 -185 q 115 113 88 21 q 236 272 161 228 q 404 324 311 315 l 404 332 q 313 372 351 338 q 275 471 275 407 q 347 660 275 519 q 418 871 418 801 q 385 960 418 932 q 274 988 351 988 l 274 1013 q 482 974 396 1013 q 568 815 568 935 z "},"~":{"ha":1157,"x_min":240,"x_max":1054,"o":"m 1054 614 q 995 401 1054 486 q 825 315 936 315 q 749 328 783 315 q 678 367 715 340 l 568 446 q 517 478 542 467 q 464 489 492 489 q 372 434 406 489 q 339 299 339 379 l 240 299 q 300 506 240 417 q 469 596 360 596 q 544 582 507 596 q 603 553 582 568 q 671 506 625 539 q 735 460 717 472 q 780 435 754 447 q 831 422 806 422 q 923 476 890 422 q 956 614 956 531 l 1054 614 z "},"Ä":{"ha":1353,"x_min":-44,"x_max":1492,"o":"m 890 497 l 1081 971 q 936 904 1008 956 q 813 790 864 853 q 718 657 763 728 q 625 497 674 586 l 890 497 m 607 465 q 560 374 600 451 q 459 193 519 296 q 332 37 399 90 q 160 -17 265 -17 q 15 34 74 -17 q -44 172 -44 85 q 10 306 -44 251 q 147 361 65 361 q 274 316 222 361 q 326 193 326 271 q 315 132 326 160 q 290 91 304 104 q 247 60 275 78 q 218 28 218 42 q 233 19 228 19 q 308 51 263 19 q 399 152 353 83 q 497 320 444 221 q 631 563 549 419 q 763 780 714 707 q 938 936 813 853 q 1247 1019 1063 1019 q 1363 1017 1321 1019 q 1436 1010 1404 1014 l 1100 174 q 1065 63 1065 86 q 1106 26 1065 29 q 1213 22 1146 22 l 1213 0 l 540 0 l 540 22 q 580 24 557 22 q 637 30 603 26 q 695 60 671 33 q 758 176 719 88 l 878 465 l 607 465 m 1003 1204 q 1031 1267 1003 1239 q 1096 1294 1058 1294 q 1160 1268 1133 1294 q 1186 1204 1186 1242 q 1161 1138 1186 1164 q 1096 1111 1136 1111 q 1031 1139 1058 1111 q 1003 1204 1003 1167 m 1308 1204 q 1336 1267 1308 1239 q 1400 1294 1364 1294 q 1465 1267 1438 1294 q 1492 1204 1492 1240 q 1465 1138 1492 1164 q 1400 1111 1439 1111 q 1336 1139 1364 1111 q 1308 1204 1308 1167 z "},"Å":{"ha":1353,"x_min":-44,"x_max":1436,"o":"m 890 497 l 1081 971 q 936 904 1008 956 q 813 790 864 853 q 718 657 763 728 q 625 497 674 586 l 890 497 m 607 465 q 560 374 600 451 q 459 193 519 296 q 332 37 399 90 q 160 -17 265 -17 q 15 34 74 -17 q -44 172 -44 85 q 10 306 -44 251 q 147 361 65 361 q 274 316 222 361 q 326 193 326 271 q 315 132 326 160 q 290 91 304 104 q 247 60 275 78 q 218 28 218 42 q 233 19 228 19 q 308 51 263 19 q 399 152 353 83 q 497 320 444 221 q 631 563 549 419 q 763 780 714 707 q 938 936 813 853 q 1247 1019 1063 1019 q 1363 1017 1321 1019 q 1436 1010 1404 1014 l 1100 174 q 1065 63 1065 86 q 1106 26 1065 29 q 1213 22 1146 22 l 1213 0 l 540 0 l 540 22 q 580 24 557 22 q 637 30 603 26 q 695 60 671 33 q 758 176 719 88 l 878 465 l 607 465 m 1153 1222 q 1178 1158 1153 1183 q 1242 1133 1203 1133 q 1306 1158 1281 1133 q 1332 1222 1332 1182 q 1306 1287 1332 1261 q 1242 1313 1281 1313 q 1178 1288 1203 1313 q 1153 1222 1153 1263 m 1096 1222 q 1139 1325 1096 1285 q 1243 1365 1182 1365 q 1348 1326 1304 1365 q 1392 1222 1392 1286 q 1348 1120 1392 1161 q 1243 1079 1304 1079 q 1140 1120 1183 1079 q 1096 1222 1096 1161 z "},"Ç":{"ha":1040,"x_min":104,"x_max":1239,"o":"m 543 -17 q 229 107 354 -17 q 104 415 104 231 q 302 842 104 657 q 786 1028 500 1028 q 956 999 886 1028 q 1097 942 1025 971 q 1163 967 1131 942 q 1214 1028 1196 993 l 1239 1028 l 1042 536 l 1015 536 q 1017 640 1015 560 q 1019 729 1019 719 q 998 928 1019 872 q 893 985 976 985 q 783 947 839 985 q 676 839 728 908 q 581 690 624 769 q 512 539 539 611 q 467 390 485 467 q 450 253 450 313 q 485 88 450 144 q 613 31 521 31 q 728 54 679 31 q 820 115 778 78 q 889 194 863 153 q 939 283 915 235 l 964 272 q 796 60 906 138 q 543 -17 686 -17 m 396 0 l 321 -82 q 344 -79 328 -81 q 372 -78 360 -78 q 484 -111 453 -78 q 515 -186 515 -144 q 444 -302 515 -265 q 300 -339 374 -339 q 226 -320 256 -339 q 196 -271 196 -301 q 209 -238 196 -254 q 244 -222 222 -222 q 282 -237 271 -222 q 293 -271 293 -251 q 278 -311 293 -283 q 308 -321 278 -317 q 363 -290 338 -321 q 388 -208 388 -258 q 367 -153 388 -171 q 306 -135 347 -135 q 265 -140 279 -135 q 246 -147 251 -144 l 240 -137 l 367 0 l 396 0 z "},"É":{"ha":1236,"x_min":-81,"x_max":1388,"o":"m 622 538 q 657 538 640 538 q 727 547 674 539 q 858 614 781 556 q 979 760 935 672 l 1007 760 l 803 253 l 775 253 q 785 306 781 275 q 790 369 790 338 q 764 474 790 439 q 676 510 738 510 l 611 511 l 415 28 l 465 28 q 635 37 535 28 q 852 130 736 46 q 1044 291 968 214 q 1167 415 1121 368 l 1194 415 l 1028 0 l -81 0 l -81 22 l -4 28 q 72 60 47 33 q 140 190 96 88 q 219 378 185 293 q 315 617 254 463 q 403 844 375 772 q 431 942 431 915 q 407 981 431 971 q 292 990 383 990 l 292 1013 l 1388 1013 l 1214 582 l 1188 582 l 1182 679 q 1128 880 1169 793 q 1026 974 1088 967 q 913 983 965 981 q 819 985 861 985 l 801 985 l 622 538 m 900 1156 q 796 1116 860 1136 q 674 1078 732 1096 l 665 1092 q 772 1181 726 1126 l 872 1317 q 900 1339 888 1333 q 932 1344 913 1344 q 978 1335 957 1344 q 1006 1316 1000 1326 q 1011 1281 1011 1306 q 988 1208 1011 1232 q 900 1156 965 1185 z "},"Ñ":{"ha":1444,"x_min":-44,"x_max":1674,"o":"m 1674 1013 l 1674 990 l 1604 985 q 1523 944 1556 979 q 1447 803 1490 910 q 1316 481 1403 697 q 1189 164 1229 264 q 1124 0 1149 64 l 933 0 l 693 900 q 611 658 651 775 q 555 497 571 540 q 493 333 539 453 q 419 159 447 214 q 337 44 390 104 q 160 -17 283 -17 q 15 35 75 -17 q -44 171 -44 86 q 10 307 -44 253 q 146 361 64 361 q 272 317 218 361 q 326 201 326 272 q 322 151 326 172 q 308 113 317 131 q 284 81 299 96 q 269 57 269 67 q 283 46 269 46 q 311 58 294 46 q 353 108 328 71 q 403 199 379 144 q 465 347 428 253 q 548 571 501 440 q 623 788 594 701 q 657 896 651 874 q 663 932 663 918 q 628 978 663 967 q 497 990 593 990 l 497 1013 l 1001 1013 l 1201 285 q 1251 405 1215 319 q 1317 568 1286 490 q 1383 736 1349 646 q 1427 857 1418 826 q 1436 908 1436 888 q 1398 973 1436 956 q 1265 990 1360 990 l 1265 1013 l 1674 1013 m 1040 1174 q 992 1163 1007 1174 q 946 1111 976 1151 l 921 1111 q 1024 1245 976 1206 q 1133 1285 1072 1285 q 1233 1260 1174 1285 q 1325 1235 1293 1235 q 1376 1249 1357 1235 q 1422 1299 1396 1263 l 1447 1299 q 1344 1163 1392 1203 q 1233 1124 1296 1124 q 1130 1149 1199 1124 q 1040 1174 1061 1174 z "},"Ö":{"ha":1188,"x_min":104,"x_max":1229,"o":"m 1229 589 q 1017 167 1229 350 q 543 -17 804 -17 q 222 108 339 -17 q 104 415 104 232 q 319 847 104 665 q 813 1028 533 1028 q 1113 903 996 1028 q 1229 589 1229 778 m 940 881 q 919 969 940 939 q 842 1000 897 1000 q 759 976 792 1000 q 685 894 726 953 q 591 723 644 836 q 497 508 538 610 q 426 301 457 407 q 394 131 394 194 q 416 42 394 72 q 493 11 438 11 q 576 35 543 11 q 649 116 608 58 q 744 290 689 174 q 845 528 799 407 q 916 741 892 649 q 940 881 940 833 m 643 1204 q 671 1267 643 1239 q 736 1294 699 1294 q 800 1268 774 1294 q 826 1204 826 1242 q 801 1138 826 1164 q 736 1111 776 1111 q 671 1139 699 1111 q 643 1204 643 1167 m 949 1204 q 976 1267 949 1239 q 1040 1294 1004 1294 q 1105 1267 1078 1294 q 1132 1204 1132 1240 q 1106 1138 1132 1164 q 1040 1111 1079 1111 q 976 1139 1004 1111 q 949 1204 949 1167 z "},"Ü":{"ha":1185,"x_min":167,"x_max":1476,"o":"m 1175 776 q 1199 849 1188 808 q 1211 913 1211 890 q 1177 974 1211 958 q 1054 990 1143 990 l 1054 1013 l 1476 1013 l 1476 990 l 1383 983 q 1299 944 1332 978 q 1219 794 1265 911 q 1110 519 1172 678 q 1002 265 1049 361 q 865 76 956 169 q 546 -17 774 -17 q 263 67 360 -17 q 167 269 167 150 q 174 320 167 294 q 221 444 182 346 l 379 836 q 410 942 410 917 q 382 981 410 972 q 271 990 354 990 l 271 1013 l 933 1013 l 933 990 l 861 986 q 774 947 794 981 q 717 824 753 913 q 644 647 681 736 q 563 446 608 558 q 508 305 518 333 q 488 240 497 276 q 479 178 479 203 q 520 72 479 111 q 628 32 561 32 q 787 67 714 32 q 898 153 860 101 q 963 253 936 206 q 1003 334 989 300 q 1092 561 1018 368 q 1175 776 1167 754 m 725 1204 q 753 1267 725 1239 q 818 1294 781 1294 q 882 1268 856 1294 q 908 1204 908 1242 q 883 1138 908 1164 q 818 1111 858 1111 q 753 1139 781 1111 q 725 1204 725 1167 m 1031 1204 q 1058 1267 1031 1239 q 1122 1294 1086 1294 q 1187 1267 1160 1294 q 1214 1204 1214 1240 q 1188 1138 1214 1164 q 1122 1111 1161 1111 q 1058 1139 1086 1111 q 1031 1204 1031 1167 z "},"á":{"ha":919,"x_min":17,"x_max":932,"o":"m 932 658 l 692 131 q 678 94 688 122 q 668 60 668 67 q 673 42 668 49 q 688 36 678 36 q 742 64 707 36 q 816 142 776 92 q 888 256 856 193 l 906 247 q 826 119 867 175 q 724 24 785 63 q 576 -14 663 -14 q 472 24 507 -14 q 438 139 438 63 q 334 22 383 58 q 207 -14 285 -14 q 70 40 124 -14 q 17 179 17 93 q 167 508 17 343 q 501 672 318 672 q 579 651 544 672 q 614 586 614 631 l 610 553 l 658 658 l 932 658 m 596 583 q 587 616 596 606 q 558 626 578 626 q 498 585 532 626 q 410 439 464 543 q 301 208 356 335 q 247 44 247 82 q 253 25 247 32 q 269 18 258 18 q 351 60 313 18 q 411 133 390 103 q 466 234 432 163 q 548 418 500 306 q 596 583 596 531 m 742 808 q 638 769 701 789 q 515 731 574 749 l 507 744 q 614 833 568 779 l 714 969 q 742 992 729 986 q 774 997 754 997 q 820 988 799 997 q 847 969 842 979 q 853 933 853 958 q 830 861 853 885 q 742 808 807 838 z "},"à":{"ha":919,"x_min":17,"x_max":932,"o":"m 932 658 l 692 131 q 678 94 688 122 q 668 60 668 67 q 673 42 668 49 q 688 36 678 36 q 742 64 707 36 q 816 142 776 92 q 888 256 856 193 l 906 247 q 826 119 867 175 q 724 24 785 63 q 576 -14 663 -14 q 472 24 507 -14 q 438 139 438 63 q 334 22 383 58 q 207 -14 285 -14 q 70 40 124 -14 q 17 179 17 93 q 167 508 17 343 q 501 672 318 672 q 579 651 544 672 q 614 586 614 631 l 610 553 l 658 658 l 932 658 m 596 583 q 587 616 596 606 q 558 626 578 626 q 498 585 532 626 q 410 439 464 543 q 301 208 356 335 q 247 44 247 82 q 253 25 247 32 q 269 18 258 18 q 351 60 313 18 q 411 133 390 103 q 466 234 432 163 q 548 418 500 306 q 596 583 596 531 m 781 740 l 769 726 q 582 815 675 771 q 509 869 533 843 q 485 929 485 894 q 493 985 485 976 q 520 1001 501 994 q 560 1007 539 1007 q 626 974 600 1007 q 697 833 665 888 q 781 740 729 778 z "},"â":{"ha":919,"x_min":17,"x_max":932,"o":"m 932 658 l 692 131 q 678 94 688 122 q 668 60 668 67 q 673 42 668 49 q 688 36 678 36 q 742 64 707 36 q 816 142 776 92 q 888 256 856 193 l 906 247 q 826 119 867 175 q 724 24 785 63 q 576 -14 663 -14 q 472 24 507 -14 q 438 139 438 63 q 334 22 383 58 q 207 -14 285 -14 q 70 40 124 -14 q 17 179 17 93 q 167 508 17 343 q 501 672 318 672 q 579 651 544 672 q 614 586 614 631 l 610 553 l 658 658 l 932 658 m 596 583 q 587 616 596 606 q 558 626 578 626 q 498 585 532 626 q 410 439 464 543 q 301 208 356 335 q 247 44 247 82 q 253 25 247 32 q 269 18 258 18 q 351 60 313 18 q 411 133 390 103 q 466 234 432 163 q 548 418 500 306 q 596 583 596 531 m 844 719 l 829 714 q 755 805 793 758 q 700 861 717 851 q 589 807 667 851 q 439 719 511 763 l 426 731 l 669 982 l 789 982 l 844 719 z "},"ä":{"ha":919,"x_min":17,"x_max":932,"o":"m 932 658 l 692 131 q 678 94 688 122 q 668 60 668 67 q 673 42 668 49 q 688 36 678 36 q 742 64 707 36 q 816 142 776 92 q 888 256 856 193 l 906 247 q 826 119 867 175 q 724 24 785 63 q 576 -14 663 -14 q 472 24 507 -14 q 438 139 438 63 q 334 22 383 58 q 207 -14 285 -14 q 70 40 124 -14 q 17 179 17 93 q 167 508 17 343 q 501 672 318 672 q 579 651 544 672 q 614 586 614 631 l 610 553 l 658 658 l 932 658 m 596 583 q 587 616 596 606 q 558 626 578 626 q 498 585 532 626 q 410 439 464 543 q 301 208 356 335 q 247 44 247 82 q 253 25 247 32 q 269 18 258 18 q 351 60 313 18 q 411 133 390 103 q 466 234 432 163 q 548 418 500 306 q 596 583 596 531 m 411 857 q 439 919 411 892 q 504 947 467 947 q 568 921 542 947 q 594 857 594 894 q 569 790 594 817 q 504 764 544 764 q 439 792 467 764 q 411 857 411 819 m 717 857 q 744 919 717 892 q 808 947 772 947 q 873 920 846 947 q 900 857 900 893 q 874 790 900 817 q 808 764 847 764 q 744 792 772 764 q 717 857 717 819 z "},"ã":{"ha":919,"x_min":17,"x_max":949,"o":"m 932 658 l 692 131 q 678 94 688 122 q 668 60 668 67 q 673 42 668 49 q 688 36 678 36 q 742 64 707 36 q 816 142 776 92 q 888 256 856 193 l 906 247 q 826 119 867 175 q 724 24 785 63 q 576 -14 663 -14 q 472 24 507 -14 q 438 139 438 63 q 334 22 383 58 q 207 -14 285 -14 q 70 40 124 -14 q 17 179 17 93 q 167 508 17 343 q 501 672 318 672 q 579 651 544 672 q 614 586 614 631 l 610 553 l 658 658 l 932 658 m 596 583 q 587 616 596 606 q 558 626 578 626 q 498 585 532 626 q 410 439 464 543 q 301 208 356 335 q 247 44 247 82 q 253 25 247 32 q 269 18 258 18 q 351 60 313 18 q 411 133 390 103 q 466 234 432 163 q 548 418 500 306 q 596 583 596 531 m 542 826 q 493 815 508 826 q 447 764 478 804 l 422 764 q 526 898 478 858 q 635 938 574 938 q 735 913 675 938 q 826 888 794 888 q 878 901 858 888 q 924 951 897 915 l 949 951 q 845 816 893 856 q 735 776 797 776 q 631 801 700 776 q 542 826 563 826 z "},"å":{"ha":919,"x_min":17,"x_max":932,"o":"m 932 658 l 692 131 q 678 94 688 122 q 668 60 668 67 q 673 42 668 49 q 688 36 678 36 q 742 64 707 36 q 816 142 776 92 q 888 256 856 193 l 906 247 q 826 119 867 175 q 724 24 785 63 q 576 -14 663 -14 q 472 24 507 -14 q 438 139 438 63 q 334 22 383 58 q 207 -14 285 -14 q 70 40 124 -14 q 17 179 17 93 q 167 508 17 343 q 501 672 318 672 q 579 651 544 672 q 614 586 614 631 l 610 553 l 658 658 l 932 658 m 596 583 q 587 616 596 606 q 558 626 578 626 q 498 585 532 626 q 410 439 464 543 q 301 208 356 335 q 247 44 247 82 q 253 25 247 32 q 269 18 258 18 q 351 60 313 18 q 411 133 390 103 q 466 234 432 163 q 548 418 500 306 q 596 583 596 531 m 547 875 q 572 811 547 836 q 636 786 597 786 q 701 810 675 786 q 726 875 726 835 q 701 940 726 914 q 636 965 675 965 q 572 940 597 965 q 547 875 547 915 m 490 875 q 533 978 490 938 q 638 1018 576 1018 q 742 978 699 1018 q 786 875 786 939 q 742 773 786 814 q 638 732 699 732 q 534 773 578 732 q 490 875 490 814 z "},"ç":{"ha":681,"x_min":15,"x_max":733,"o":"m 525 649 q 457 611 494 649 q 379 500 419 574 q 314 335 339 426 q 289 174 289 244 q 313 62 289 93 q 382 31 338 31 q 444 42 417 31 q 506 79 472 54 q 563 131 540 104 q 611 193 586 157 l 631 179 q 473 28 551 69 q 306 -14 394 -14 q 110 49 201 -14 q 19 233 19 113 q 166 535 19 399 q 517 672 313 672 q 685 628 638 672 q 733 529 733 583 q 698 433 733 469 q 607 396 663 396 q 524 425 557 396 q 490 497 490 454 q 523 575 490 533 q 556 632 556 617 q 548 644 556 640 q 525 649 540 649 m 215 0 l 140 -82 q 163 -79 147 -81 q 192 -78 179 -78 q 303 -111 272 -78 q 335 -186 335 -144 q 264 -302 335 -265 q 119 -339 193 -339 q 45 -320 75 -339 q 15 -271 15 -301 q 28 -238 15 -254 q 64 -222 42 -222 q 101 -237 90 -222 q 113 -271 113 -251 q 97 -311 113 -283 q 128 -321 97 -317 q 182 -290 157 -321 q 207 -208 207 -258 q 187 -153 207 -171 q 125 -135 167 -135 q 85 -140 99 -135 q 65 -147 71 -144 l 60 -137 l 186 0 l 215 0 z "},"é":{"ha":704,"x_min":19,"x_max":746,"o":"m 308 324 q 485 433 406 335 q 564 606 564 531 q 558 638 564 626 q 533 649 553 649 q 472 615 503 649 q 407 522 442 582 q 348 413 372 463 q 308 324 324 364 m 304 308 q 289 240 296 282 q 282 169 282 197 q 303 60 282 92 q 367 28 325 28 q 424 35 399 28 q 482 63 449 43 q 552 119 515 82 q 611 193 589 157 l 631 179 q 493 42 572 97 q 301 -14 414 -14 q 109 48 199 -14 q 19 229 19 110 q 170 534 19 396 q 525 672 321 672 q 682 628 621 672 q 743 528 743 585 q 615 363 743 418 q 304 308 488 308 m 635 808 q 531 769 594 789 q 408 731 467 749 l 400 744 q 507 833 461 779 l 607 969 q 635 992 622 986 q 667 997 647 997 q 713 988 692 997 q 740 969 735 979 q 746 933 746 958 q 723 861 746 885 q 635 808 700 838 z "},"è":{"ha":704,"x_min":19,"x_max":743,"o":"m 308 324 q 485 433 406 335 q 564 606 564 531 q 558 638 564 626 q 533 649 553 649 q 472 615 503 649 q 407 522 442 582 q 348 413 372 463 q 308 324 324 364 m 304 308 q 289 240 296 282 q 282 169 282 197 q 303 60 282 92 q 367 28 325 28 q 424 35 399 28 q 482 63 449 43 q 552 119 515 82 q 611 193 589 157 l 631 179 q 493 42 572 97 q 301 -14 414 -14 q 109 48 199 -14 q 19 229 19 110 q 170 534 19 396 q 525 672 321 672 q 682 628 621 672 q 743 528 743 585 q 615 363 743 418 q 304 308 488 308 m 563 740 l 551 726 q 364 815 457 771 q 291 869 315 843 q 267 929 267 894 q 275 985 267 976 q 302 1001 283 994 q 342 1007 321 1007 q 408 974 382 1007 q 479 833 447 888 q 563 740 511 778 z "},"ê":{"ha":704,"x_min":19,"x_max":743,"o":"m 308 324 q 485 433 406 335 q 564 606 564 531 q 558 638 564 626 q 533 649 553 649 q 472 615 503 649 q 407 522 442 582 q 348 413 372 463 q 308 324 324 364 m 304 308 q 289 240 296 282 q 282 169 282 197 q 303 60 282 92 q 367 28 325 28 q 424 35 399 28 q 482 63 449 43 q 552 119 515 82 q 611 193 589 157 l 631 179 q 493 42 572 97 q 301 -14 414 -14 q 109 48 199 -14 q 19 229 19 110 q 170 534 19 396 q 525 672 321 672 q 682 628 621 672 q 743 528 743 585 q 615 363 743 418 q 304 308 488 308 m 682 719 l 667 714 q 592 805 631 758 q 538 861 554 851 q 426 807 504 851 q 276 719 349 763 l 264 731 l 507 982 l 626 982 l 682 719 z "},"ë":{"ha":704,"x_min":19,"x_max":765,"o":"m 308 324 q 485 433 406 335 q 564 606 564 531 q 558 638 564 626 q 533 649 553 649 q 472 615 503 649 q 407 522 442 582 q 348 413 372 463 q 308 324 324 364 m 304 308 q 289 240 296 282 q 282 169 282 197 q 303 60 282 92 q 367 28 325 28 q 424 35 399 28 q 482 63 449 43 q 552 119 515 82 q 611 193 589 157 l 631 179 q 493 42 572 97 q 301 -14 414 -14 q 109 48 199 -14 q 19 229 19 110 q 170 534 19 396 q 525 672 321 672 q 682 628 621 672 q 743 528 743 585 q 615 363 743 418 q 304 308 488 308 m 276 857 q 304 919 276 892 q 369 947 332 947 q 433 921 407 947 q 460 857 460 894 q 435 790 460 817 q 369 764 410 764 q 304 792 332 764 q 276 857 276 819 m 582 857 q 610 919 582 892 q 674 947 638 947 q 738 920 711 947 q 765 857 765 893 q 739 790 765 817 q 674 764 713 764 q 610 792 638 764 q 582 857 582 819 z "},"í":{"ha":511,"x_min":43,"x_max":649,"o":"m 43 447 q 178 629 121 586 q 304 672 236 672 q 410 631 365 672 q 456 508 456 590 q 439 426 456 472 q 393 320 422 381 q 313 169 364 260 q 261 51 261 78 q 267 33 261 39 q 286 26 274 26 q 326 44 301 26 q 375 90 351 61 q 424 158 399 119 q 467 226 450 196 l 485 217 q 359 40 410 94 q 206 -14 308 -14 q 92 30 131 -14 q 53 140 53 74 q 66 220 53 185 q 122 339 79 256 q 196 488 164 422 q 238 576 228 553 q 247 611 247 600 q 242 626 247 621 q 228 631 238 631 q 195 613 218 631 q 135 552 172 596 q 61 439 99 508 l 43 447 m 538 808 q 433 769 497 789 q 311 731 369 749 l 303 744 q 410 833 364 779 l 510 969 q 538 992 525 986 q 569 997 550 997 q 616 988 594 997 q 643 969 638 979 q 649 933 649 958 q 626 861 649 885 q 538 808 603 838 z "},"ì":{"ha":511,"x_min":43,"x_max":485,"o":"m 43 447 q 178 629 121 586 q 304 672 236 672 q 410 631 365 672 q 456 508 456 590 q 439 426 456 472 q 393 320 422 381 q 313 169 364 260 q 261 51 261 78 q 267 33 261 39 q 286 26 274 26 q 326 44 301 26 q 375 90 351 61 q 424 158 399 119 q 467 226 450 196 l 485 217 q 359 40 410 94 q 206 -14 308 -14 q 92 30 131 -14 q 53 140 53 74 q 66 220 53 185 q 122 339 79 256 q 196 488 164 422 q 238 576 228 553 q 247 611 247 600 q 242 626 247 621 q 228 631 238 631 q 195 613 218 631 q 135 552 172 596 q 61 439 99 508 l 43 447 m 465 740 l 454 726 q 267 815 360 771 q 194 869 218 843 q 169 929 169 894 q 178 985 169 976 q 205 1001 186 994 q 244 1007 224 1007 q 311 974 285 1007 q 382 833 350 888 q 465 740 414 778 z "},"î":{"ha":511,"x_min":43,"x_max":585,"o":"m 43 447 q 178 629 121 586 q 304 672 236 672 q 410 631 365 672 q 456 508 456 590 q 439 426 456 472 q 393 320 422 381 q 313 169 364 260 q 261 51 261 78 q 267 33 261 39 q 286 26 274 26 q 326 44 301 26 q 375 90 351 61 q 424 158 399 119 q 467 226 450 196 l 485 217 q 359 40 410 94 q 206 -14 308 -14 q 92 30 131 -14 q 53 140 53 74 q 66 220 53 185 q 122 339 79 256 q 196 488 164 422 q 238 576 228 553 q 247 611 247 600 q 242 626 247 621 q 228 631 238 631 q 195 613 218 631 q 135 552 172 596 q 61 439 99 508 l 43 447 m 585 719 l 569 714 q 495 805 533 758 q 440 861 457 851 q 329 807 407 851 q 179 719 251 763 l 167 731 l 410 982 l 529 982 l 585 719 z "},"ï":{"ha":511,"x_min":43,"x_max":668,"o":"m 43 447 q 178 629 121 586 q 304 672 236 672 q 410 631 365 672 q 456 508 456 590 q 439 426 456 472 q 393 320 422 381 q 313 169 364 260 q 261 51 261 78 q 267 33 261 39 q 286 26 274 26 q 326 44 301 26 q 375 90 351 61 q 424 158 399 119 q 467 226 450 196 l 485 217 q 359 40 410 94 q 206 -14 308 -14 q 92 30 131 -14 q 53 140 53 74 q 66 220 53 185 q 122 339 79 256 q 196 488 164 422 q 238 576 228 553 q 247 611 247 600 q 242 626 247 621 q 228 631 238 631 q 195 613 218 631 q 135 552 172 596 q 61 439 99 508 l 43 447 m 179 857 q 207 919 179 892 q 272 947 235 947 q 336 921 310 947 q 363 857 363 894 q 338 790 363 817 q 272 764 313 764 q 207 792 235 764 q 179 857 179 819 m 485 857 q 513 919 485 892 q 576 947 540 947 q 641 920 614 947 q 668 857 668 893 q 642 790 668 817 q 576 764 615 764 q 513 792 540 764 q 485 857 485 819 z "},"ñ":{"ha":933,"x_min":-10,"x_max":917,"o":"m 718 672 q 830 631 783 672 q 876 508 876 590 q 861 428 876 471 q 824 338 846 386 q 744 179 801 289 q 688 50 688 69 q 693 33 688 39 q 710 28 699 28 q 747 44 724 28 q 812 107 771 61 q 899 244 853 153 l 917 235 q 794 53 853 121 q 628 -14 735 -14 q 517 31 554 -14 q 479 140 479 75 q 489 213 479 185 q 548 340 499 240 q 629 504 597 440 q 661 604 661 568 q 656 624 661 618 q 638 631 650 631 q 595 610 621 631 q 535 543 569 589 q 463 418 500 497 l 261 0 l -10 0 l 226 528 q 246 574 235 549 q 257 611 257 600 q 253 625 257 621 q 240 629 249 629 q 196 612 221 629 q 147 567 171 594 q 94 497 122 539 q 38 408 65 454 l 19 417 q 151 603 86 533 q 310 672 215 672 q 415 631 376 672 q 453 517 453 590 q 447 456 453 483 q 436 413 440 429 q 556 605 499 538 q 718 672 614 672 m 507 826 q 458 815 474 826 q 413 764 443 804 l 388 764 q 491 898 443 858 q 600 938 539 938 q 700 913 640 938 q 792 888 760 888 q 843 901 824 888 q 889 951 863 915 l 914 951 q 810 816 858 856 q 700 776 763 776 q 597 801 665 776 q 507 826 528 826 z "},"ó":{"ha":768,"x_min":24,"x_max":778,"o":"m 744 397 q 610 113 744 240 q 283 -14 476 -14 q 178 8 225 -14 q 77 88 131 31 q 24 261 24 144 q 156 544 24 415 q 485 672 289 672 q 590 651 546 672 q 675 586 635 629 q 730 495 715 543 q 744 397 744 447 m 553 601 q 542 636 553 624 q 508 649 532 649 q 454 615 483 649 q 370 472 425 581 q 265 237 315 363 q 215 60 215 111 q 226 20 215 33 q 260 7 238 7 q 310 38 283 7 q 387 165 336 68 q 495 403 438 263 q 553 601 553 544 m 667 808 q 563 769 626 789 q 440 731 499 749 l 432 744 q 539 833 493 779 l 639 969 q 667 992 654 986 q 699 997 679 997 q 745 988 724 997 q 772 969 767 979 q 778 933 778 958 q 755 861 778 885 q 667 808 732 838 z "},"ò":{"ha":768,"x_min":24,"x_max":744,"o":"m 744 397 q 610 113 744 240 q 283 -14 476 -14 q 178 8 225 -14 q 77 88 131 31 q 24 261 24 144 q 156 544 24 415 q 485 672 289 672 q 590 651 546 672 q 675 586 635 629 q 730 495 715 543 q 744 397 744 447 m 553 601 q 542 636 553 624 q 508 649 532 649 q 454 615 483 649 q 370 472 425 581 q 265 237 315 363 q 215 60 215 111 q 226 20 215 33 q 260 7 238 7 q 310 38 283 7 q 387 165 336 68 q 495 403 438 263 q 553 601 553 544 m 678 740 l 667 726 q 479 815 572 771 q 406 869 431 843 q 382 929 382 894 q 390 985 382 976 q 417 1001 399 994 q 457 1007 436 1007 q 524 974 497 1007 q 594 833 563 888 q 678 740 626 778 z "},"ô":{"ha":768,"x_min":24,"x_max":744,"o":"m 744 397 q 610 113 744 240 q 283 -14 476 -14 q 178 8 225 -14 q 77 88 131 31 q 24 261 24 144 q 156 544 24 415 q 485 672 289 672 q 590 651 546 672 q 675 586 635 629 q 730 495 715 543 q 744 397 744 447 m 553 601 q 542 636 553 624 q 508 649 532 649 q 454 615 483 649 q 370 472 425 581 q 265 237 315 363 q 215 60 215 111 q 226 20 215 33 q 260 7 238 7 q 310 38 283 7 q 387 165 336 68 q 495 403 438 263 q 553 601 553 544 m 714 719 l 699 714 q 624 805 663 758 q 569 861 586 851 q 458 807 536 851 q 308 719 381 763 l 296 731 l 539 982 l 658 982 l 714 719 z "},"ö":{"ha":768,"x_min":24,"x_max":797,"o":"m 744 397 q 610 113 744 240 q 283 -14 476 -14 q 178 8 225 -14 q 77 88 131 31 q 24 261 24 144 q 156 544 24 415 q 485 672 289 672 q 590 651 546 672 q 675 586 635 629 q 730 495 715 543 q 744 397 744 447 m 553 601 q 542 636 553 624 q 508 649 532 649 q 454 615 483 649 q 370 472 425 581 q 265 237 315 363 q 215 60 215 111 q 226 20 215 33 q 260 7 238 7 q 310 38 283 7 q 387 165 336 68 q 495 403 438 263 q 553 601 553 544 m 308 857 q 336 919 308 892 q 401 947 364 947 q 465 921 439 947 q 492 857 492 894 q 467 790 492 817 q 401 764 442 764 q 336 792 364 764 q 308 857 308 819 m 614 857 q 642 919 614 892 q 706 947 669 947 q 770 920 743 947 q 797 857 797 893 q 771 790 797 817 q 706 764 744 764 q 642 792 669 764 q 614 857 614 819 z "},"õ":{"ha":768,"x_min":24,"x_max":832,"o":"m 744 397 q 610 113 744 240 q 283 -14 476 -14 q 178 8 225 -14 q 77 88 131 31 q 24 261 24 144 q 156 544 24 415 q 485 672 289 672 q 590 651 546 672 q 675 586 635 629 q 730 495 715 543 q 744 397 744 447 m 553 601 q 542 636 553 624 q 508 649 532 649 q 454 615 483 649 q 370 472 425 581 q 265 237 315 363 q 215 60 215 111 q 226 20 215 33 q 260 7 238 7 q 310 38 283 7 q 387 165 336 68 q 495 403 438 263 q 553 601 553 544 m 425 826 q 376 815 392 826 q 331 764 361 804 l 306 764 q 409 898 361 858 q 518 938 457 938 q 618 913 558 938 q 710 888 678 888 q 761 901 742 888 q 807 951 781 915 l 832 951 q 728 816 776 856 q 618 776 681 776 q 515 801 583 776 q 425 826 446 826 z "},"ú":{"ha":933,"x_min":19,"x_max":943,"o":"m 214 -14 q 102 26 149 -14 q 56 149 56 67 q 72 232 56 186 q 117 339 89 278 q 196 494 146 400 q 246 606 246 588 q 241 624 246 618 q 225 629 236 629 q 188 613 211 629 q 142 571 165 596 q 90 501 119 546 q 38 415 60 457 l 19 424 q 145 607 88 542 q 306 672 203 672 q 415 627 378 672 q 453 518 453 582 q 431 410 453 463 q 390 322 410 367 q 319 185 369 278 q 269 56 269 92 q 276 35 269 42 q 293 28 282 28 q 364 74 326 28 q 426 160 401 121 q 471 240 451 200 l 672 658 l 943 658 l 707 131 q 690 88 700 113 q 681 51 681 63 q 685 37 681 42 q 697 32 689 32 q 772 71 738 32 q 836 155 806 110 q 901 261 867 200 l 918 251 q 782 54 842 122 q 624 -14 722 -14 q 519 27 557 -14 q 481 142 481 68 q 488 201 481 172 q 499 246 494 231 q 367 50 422 114 q 214 -14 313 -14 m 749 808 q 644 769 708 789 q 522 731 581 749 l 514 744 q 621 833 575 779 l 721 969 q 749 992 736 986 q 781 997 761 997 q 827 988 806 997 q 854 969 849 979 q 860 933 860 958 q 837 861 860 885 q 749 808 814 838 z "},"ù":{"ha":933,"x_min":19,"x_max":943,"o":"m 214 -14 q 102 26 149 -14 q 56 149 56 67 q 72 232 56 186 q 117 339 89 278 q 196 494 146 400 q 246 606 246 588 q 241 624 246 618 q 225 629 236 629 q 188 613 211 629 q 142 571 165 596 q 90 501 119 546 q 38 415 60 457 l 19 424 q 145 607 88 542 q 306 672 203 672 q 415 627 378 672 q 453 518 453 582 q 431 410 453 463 q 390 322 410 367 q 319 185 369 278 q 269 56 269 92 q 276 35 269 42 q 293 28 282 28 q 364 74 326 28 q 426 160 401 121 q 471 240 451 200 l 672 658 l 943 658 l 707 131 q 690 88 700 113 q 681 51 681 63 q 685 37 681 42 q 697 32 689 32 q 772 71 738 32 q 836 155 806 110 q 901 261 867 200 l 918 251 q 782 54 842 122 q 624 -14 722 -14 q 519 27 557 -14 q 481 142 481 68 q 488 201 481 172 q 499 246 494 231 q 367 50 422 114 q 214 -14 313 -14 m 676 740 l 665 726 q 478 815 571 771 q 405 869 429 843 q 381 929 381 894 q 389 985 381 976 q 416 1001 397 994 q 456 1007 435 1007 q 522 974 496 1007 q 593 833 561 888 q 676 740 625 778 z "},"û":{"ha":933,"x_min":19,"x_max":943,"o":"m 214 -14 q 102 26 149 -14 q 56 149 56 67 q 72 232 56 186 q 117 339 89 278 q 196 494 146 400 q 246 606 246 588 q 241 624 246 618 q 225 629 236 629 q 188 613 211 629 q 142 571 165 596 q 90 501 119 546 q 38 415 60 457 l 19 424 q 145 607 88 542 q 306 672 203 672 q 415 627 378 672 q 453 518 453 582 q 431 410 453 463 q 390 322 410 367 q 319 185 369 278 q 269 56 269 92 q 276 35 269 42 q 293 28 282 28 q 364 74 326 28 q 426 160 401 121 q 471 240 451 200 l 672 658 l 943 658 l 707 131 q 690 88 700 113 q 681 51 681 63 q 685 37 681 42 q 697 32 689 32 q 772 71 738 32 q 836 155 806 110 q 901 261 867 200 l 918 251 q 782 54 842 122 q 624 -14 722 -14 q 519 27 557 -14 q 481 142 481 68 q 488 201 481 172 q 499 246 494 231 q 367 50 422 114 q 214 -14 313 -14 m 796 719 l 781 714 q 706 805 744 758 q 651 861 668 851 q 540 807 618 851 q 390 719 463 763 l 378 731 l 621 982 l 740 982 l 796 719 z "},"ü":{"ha":933,"x_min":19,"x_max":943,"o":"m 214 -14 q 102 26 149 -14 q 56 149 56 67 q 72 232 56 186 q 117 339 89 278 q 196 494 146 400 q 246 606 246 588 q 241 624 246 618 q 225 629 236 629 q 188 613 211 629 q 142 571 165 596 q 90 501 119 546 q 38 415 60 457 l 19 424 q 145 607 88 542 q 306 672 203 672 q 415 627 378 672 q 453 518 453 582 q 431 410 453 463 q 390 322 410 367 q 319 185 369 278 q 269 56 269 92 q 276 35 269 42 q 293 28 282 28 q 364 74 326 28 q 426 160 401 121 q 471 240 451 200 l 672 658 l 943 658 l 707 131 q 690 88 700 113 q 681 51 681 63 q 685 37 681 42 q 697 32 689 32 q 772 71 738 32 q 836 155 806 110 q 901 261 867 200 l 918 251 q 782 54 842 122 q 624 -14 722 -14 q 519 27 557 -14 q 481 142 481 68 q 488 201 481 172 q 499 246 494 231 q 367 50 422 114 q 214 -14 313 -14 m 390 857 q 418 919 390 892 q 483 947 446 947 q 547 921 521 947 q 574 857 574 894 q 549 790 574 817 q 483 764 524 764 q 418 792 446 764 q 390 857 390 819 m 696 857 q 724 919 696 892 q 788 947 751 947 q 852 920 825 947 q 879 857 879 893 q 853 790 879 817 q 788 764 826 764 q 724 792 751 764 q 696 857 696 819 z "},"†":{"ha":667,"x_min":51,"x_max":656,"o":"m 371 597 q 306 614 328 608 q 249 633 283 619 q 183 676 214 647 q 153 735 153 704 q 172 781 153 760 q 215 803 190 803 q 269 750 269 803 q 263 724 269 740 q 256 699 256 707 q 260 684 256 690 q 286 668 264 678 q 338 649 308 658 q 382 639 368 639 l 386 649 q 382 682 383 664 q 381 725 381 700 q 406 816 381 783 q 481 874 431 849 l 488 888 q 453 950 453 913 q 474 999 453 981 q 528 1018 496 1018 q 549 1015 535 1018 l 557 1035 q 574 1047 564 1047 q 588 1033 588 1047 l 578 1004 q 606 978 597 994 q 615 942 615 963 q 590 889 615 907 q 529 871 565 871 l 525 860 q 540 816 535 836 q 544 776 544 796 q 510 685 544 718 q 440 631 476 651 l 436 619 q 499 603 468 611 q 567 579 531 594 q 630 541 604 564 q 656 488 656 518 q 638 438 656 465 q 594 411 619 411 q 556 424 574 411 q 538 464 538 438 q 544 493 538 475 q 551 519 551 511 q 524 546 551 533 q 465 567 496 558 q 417 581 435 575 l 404 550 l 424 481 l 142 -161 l 82 -192 l 76 -190 l 51 -124 l 293 536 l 361 569 l 371 597 z "},"°":{"ha":457,"x_min":138,"x_max":546,"o":"m 342 1026 q 485 967 425 1026 q 546 826 546 908 q 486 686 546 744 q 340 628 426 628 q 197 685 256 628 q 138 826 138 743 q 197 968 138 910 q 342 1026 257 1026 m 467 828 q 431 917 467 881 q 342 953 394 953 q 253 917 290 953 q 215 828 215 881 q 252 738 215 775 q 342 701 289 701 q 431 739 394 701 q 467 828 467 776 z "},"¢":{"ha":708,"x_min":42,"x_max":756,"o":"m 535 438 l 372 36 q 415 31 390 31 q 556 83 494 31 q 667 210 618 135 l 686 196 q 549 42 617 97 q 351 -14 482 -14 l 260 -243 l 232 -232 l 319 -12 q 129 53 217 -12 q 42 243 42 119 q 189 538 42 404 q 543 672 336 672 l 594 669 l 676 872 l 706 864 l 625 665 q 727 610 699 650 q 756 529 756 571 q 720 433 756 469 q 629 396 685 396 q 576 406 600 396 q 535 438 551 417 m 346 53 l 515 472 l 513 497 q 546 576 513 526 q 579 633 579 625 q 547 649 578 649 q 415 532 478 649 q 332 334 353 415 q 311 175 311 253 q 320 99 311 129 q 346 53 329 69 z "},"£":{"ha":1069,"x_min":-94,"x_max":1158,"o":"m 60 232 q -30 198 10 232 q -69 113 -69 164 q -35 45 -69 71 q 47 19 -1 19 q 179 46 121 19 q 293 121 238 72 q 183 200 240 168 q 60 232 126 232 m 1158 831 q 1118 731 1158 774 q 1022 688 1078 688 q 920 722 961 688 q 879 819 879 757 q 898 889 879 860 q 937 928 917 918 q 985 947 957 939 q 1013 967 1013 954 q 998 990 1013 981 q 944 1000 983 1000 q 819 950 869 1000 q 769 804 769 900 q 774 736 769 783 q 778 658 778 689 q 776 610 778 631 q 767 561 775 590 l 985 561 l 969 522 l 753 522 q 656 388 718 436 q 556 310 594 339 q 669 296 601 303 q 781 289 738 289 q 982 332 928 289 q 1067 453 1036 375 l 1085 453 q 938 106 1051 228 q 625 -17 824 -17 q 460 13 522 -17 q 326 94 399 42 q 188 21 258 47 q 50 -6 118 -6 q -52 27 -10 -6 q -94 113 -94 60 q 37 277 -94 217 q 308 338 168 338 q 449 326 374 338 q 419 424 449 364 q 386 522 390 485 l 179 522 l 194 561 l 381 561 q 417 746 381 663 q 567 928 453 829 q 892 1028 682 1028 q 1083 978 1008 1028 q 1158 831 1158 928 z "},"§":{"ha":831,"x_min":14,"x_max":893,"o":"m 421 574 q 351 676 374 629 q 328 772 328 724 q 415 949 328 871 q 640 1028 501 1028 q 823 977 753 1028 q 893 847 893 926 q 857 758 893 794 q 768 722 821 722 q 688 750 726 722 q 649 828 649 778 q 678 907 649 872 q 749 942 707 942 q 772 958 772 942 q 742 988 772 974 q 664 1003 713 1003 q 562 966 604 1003 q 519 874 519 929 q 535 809 519 840 q 568 755 550 778 q 651 663 586 732 q 739 566 715 594 q 778 500 763 538 q 793 421 793 463 q 713 254 793 318 q 508 190 632 190 l 486 190 q 567 69 551 104 q 583 -1 583 35 q 487 -194 583 -118 q 247 -269 390 -269 q 83 -222 151 -269 q 14 -101 14 -174 q 49 -6 14 -44 q 143 33 83 33 q 226 3 190 33 q 261 -75 261 -26 q 233 -148 261 -114 q 160 -186 204 -182 q 136 -201 136 -186 q 165 -231 136 -215 q 239 -246 194 -246 q 348 -208 304 -246 q 392 -110 392 -169 q 382 -55 392 -82 q 349 0 372 -28 q 260 102 325 28 q 176 201 194 176 q 142 264 158 226 q 126 342 126 301 q 214 509 126 444 q 421 574 301 574 m 475 199 q 550 251 521 210 q 579 339 579 293 q 525 460 579 393 l 431 564 q 361 514 390 556 q 332 417 332 472 q 344 358 332 385 q 392 292 357 331 l 475 199 z "},"•":{"ha":817,"x_min":144,"x_max":822,"o":"m 144 508 q 244 748 144 649 q 483 847 343 847 q 723 748 624 847 q 822 508 822 649 q 723 269 822 368 q 483 169 624 169 q 244 269 343 169 q 144 508 144 368 z "},"¶":{"ha":815,"x_min":60,"x_max":1040,"o":"m 583 108 q 494 -106 535 -33 q 400 -209 453 -178 q 313 -251 347 -240 q 240 -261 278 -261 q 113 -218 167 -261 q 60 -100 60 -175 q 108 24 60 -28 q 233 76 156 76 q 329 44 294 76 q 364 -37 364 13 q 338 -110 364 -83 q 269 -137 311 -137 q 202 -113 226 -137 q 178 -51 178 -89 q 191 -12 178 -35 q 204 14 204 10 q 190 21 196 21 q 117 -11 144 21 q 89 -92 89 -43 q 133 -195 89 -156 q 247 -235 176 -235 q 394 -181 338 -235 q 478 -71 450 -128 q 542 92 507 -14 l 593 242 q 275 347 383 264 q 167 575 167 431 q 235 800 167 697 q 400 945 304 903 q 578 1001 496 988 q 825 1014 660 1014 l 1040 1013 l 1040 990 l 968 986 q 889 953 913 981 q 838 860 865 925 q 769 671 811 794 q 676 391 728 547 q 583 108 625 235 z "},"ß":{"ha":901,"x_min":-404,"x_max":915,"o":"m 790 888 q 764 976 790 949 q 692 1004 738 1004 q 550 919 613 1004 q 447 635 488 833 q 369 311 407 436 q 276 79 332 186 q 156 -110 219 -28 q -7 -258 92 -193 q -219 -324 -106 -324 q -351 -280 -297 -324 q -404 -167 -404 -236 q -365 -81 -404 -118 q -272 -43 -326 -43 q -185 -76 -224 -43 q -147 -157 -147 -108 q -217 -286 -147 -214 q -193 -300 -217 -300 q -87 -240 -129 -300 q -7 -31 -44 -181 q 72 278 31 119 q 130 486 113 438 q 197 651 147 535 q 384 897 247 767 q 700 1028 521 1028 q 862 988 808 1028 q 915 888 915 949 q 873 778 915 822 q 743 703 831 735 q 723 678 729 693 q 717 650 717 663 q 727 585 717 615 q 760 521 738 556 q 801 454 782 486 q 838 385 819 422 q 865 313 856 349 q 874 239 874 276 q 789 60 874 135 q 579 -14 704 -14 q 434 22 500 -14 q 368 132 368 58 q 397 208 368 178 q 474 239 426 239 q 542 215 511 239 q 574 149 574 192 q 540 69 574 96 q 507 35 507 43 q 522 15 507 22 q 564 8 536 8 q 628 41 604 8 q 653 124 653 74 q 643 188 653 160 q 611 257 633 217 l 544 369 q 513 433 524 406 q 503 496 503 461 q 581 617 503 565 q 701 697 658 669 q 767 780 743 725 q 790 888 790 835 z "},"®":{"ha":1389,"x_min":215,"x_max":1310,"o":"m 1310 479 q 1150 92 1310 251 q 763 -68 990 -68 q 375 92 535 -68 q 215 479 215 251 q 375 867 215 707 q 763 1026 535 1026 q 1150 867 990 1026 q 1310 479 1310 707 m 721 478 l 721 282 l 722 244 q 774 188 722 196 l 818 185 l 818 165 l 424 165 l 424 185 l 463 188 q 500 203 490 192 q 514 242 510 214 l 515 279 l 515 682 l 514 722 q 499 760 510 749 q 463 775 489 772 l 425 779 l 425 799 l 794 799 q 924 792 875 799 q 1005 765 974 786 q 1054 713 1036 743 q 1072 640 1072 682 q 1062 579 1072 608 q 1022 524 1051 550 q 960 490 993 497 q 869 482 928 482 q 951 456 932 463 q 994 433 971 449 q 1037 385 1017 418 q 1069 314 1057 353 q 1088 262 1081 275 q 1115 249 1096 249 q 1145 272 1139 249 q 1151 339 1151 296 l 1171 339 q 1167 269 1171 292 q 1144 219 1163 247 q 1000 157 1093 157 q 841 263 858 157 q 818 413 824 368 q 794 467 808 460 q 738 478 781 475 l 721 478 m 792 501 q 843 549 825 507 q 861 642 861 590 q 843 722 861 683 q 799 769 825 761 q 755 777 772 776 q 721 778 738 778 l 721 500 l 760 500 q 792 501 783 500 m 1265 481 q 1119 836 1265 689 q 764 983 974 983 q 407 836 554 983 q 260 481 260 689 q 406 122 260 269 q 764 -25 551 -25 q 1119 122 974 -25 q 1265 481 1265 269 z "},"©":{"ha":1389,"x_min":214,"x_max":1308,"o":"m 1308 478 q 1149 92 1308 253 q 761 -69 989 -69 q 374 91 535 -69 q 214 478 214 251 q 374 865 214 704 q 761 1026 533 1026 q 1149 865 989 1026 q 1308 478 1308 704 m 1264 478 q 1118 835 1264 688 q 761 982 972 982 q 404 835 550 982 q 258 478 258 688 q 404 121 258 268 q 761 -26 550 -26 q 1117 120 971 -26 q 1264 478 1264 267 m 779 150 q 526 243 624 150 q 429 481 429 336 q 526 719 429 628 q 778 811 624 811 q 894 790 849 811 l 983 738 q 1019 756 1008 738 q 1029 803 1029 774 l 1054 803 l 1054 526 l 1032 526 q 947 717 983 661 q 828 774 911 774 q 713 691 749 774 q 676 493 676 608 q 722 283 676 371 q 853 194 767 194 q 977 249 929 194 q 1043 399 1025 304 l 1067 394 q 986 219 1054 288 q 779 150 918 150 z "},"™":{"ha":1017,"x_min":254,"x_max":1161,"o":"m 254 1013 l 638 1013 l 638 853 l 621 853 q 576 942 606 889 q 521 996 547 996 l 506 996 l 506 697 q 533 667 510 669 l 563 665 l 563 649 l 325 649 l 325 665 l 358 667 q 385 696 385 667 l 386 719 l 386 996 l 371 996 q 316 944 344 996 q 269 853 288 892 l 254 853 l 254 1013 m 725 725 l 726 701 q 757 667 726 671 l 786 664 l 786 649 l 642 649 l 642 664 l 669 667 q 699 701 699 671 l 700 725 l 700 940 l 699 964 q 689 984 694 976 q 669 993 683 992 l 651 996 l 651 1013 l 829 1013 l 906 810 l 979 1013 l 1161 1013 l 1161 996 l 1132 994 q 1104 963 1104 990 l 1103 940 l 1103 719 l 1104 697 q 1131 667 1104 671 l 1156 664 l 1156 649 l 932 649 l 932 664 l 956 665 q 983 696 981 668 l 983 889 l 986 958 l 969 908 l 878 649 l 842 649 l 728 936 l 725 725 z "},"´":{"ha":694,"x_min":394,"x_max":740,"o":"m 629 808 q 525 769 589 789 q 403 731 461 749 l 394 744 q 501 833 456 779 l 601 969 q 629 992 617 986 q 661 997 642 997 q 708 988 686 997 q 735 969 729 979 q 740 933 740 958 q 717 861 740 885 q 629 808 694 838 z "},"¨":{"ha":694,"x_min":271,"x_max":760,"o":"m 271 857 q 299 919 271 892 q 364 947 326 947 q 428 921 401 947 q 454 857 454 894 q 429 790 454 817 q 364 764 404 764 q 299 792 326 764 q 271 857 271 819 m 576 857 q 604 919 576 892 q 668 947 632 947 q 733 920 706 947 q 760 857 760 893 q 733 790 760 817 q 668 764 707 764 q 604 792 632 764 q 576 857 576 819 z "},"Æ":{"ha":1831,"x_min":-44,"x_max":1978,"o":"m 472 217 q 332 37 399 90 q 160 -17 265 -17 q 15 34 74 -17 q -44 172 -44 85 q 10 306 -44 251 q 147 361 65 361 q 274 316 222 361 q 326 193 326 271 q 315 132 326 160 q 290 91 304 104 q 247 60 275 78 q 218 28 218 42 q 233 19 228 19 q 308 51 263 19 q 399 152 353 83 q 497 320 444 221 q 601 514 549 419 q 721 722 654 608 q 933 935 811 856 q 1244 1014 1056 1014 l 1978 1013 l 1804 582 l 1778 582 l 1772 679 q 1719 880 1760 793 q 1607 975 1678 967 q 1496 984 1536 983 q 1426 985 1456 985 l 1240 525 l 1285 529 q 1449 603 1376 543 q 1567 753 1521 663 l 1594 753 l 1390 246 l 1363 246 q 1373 296 1368 267 q 1378 357 1378 325 q 1355 463 1378 428 q 1274 497 1332 497 l 1229 499 l 1042 28 l 1090 28 q 1258 37 1157 28 q 1467 130 1358 46 q 1646 291 1576 214 q 1757 415 1715 368 l 1785 415 l 1618 0 l 542 0 l 542 22 l 618 28 q 699 63 672 35 q 760 176 725 90 l 886 492 l 621 492 q 554 363 582 417 q 472 217 526 308 m 638 521 l 899 521 l 1079 967 q 935 903 1004 951 q 815 792 865 856 q 722 664 764 729 q 638 521 681 599 z "},"Ø":{"ha":1188,"x_min":104,"x_max":1229,"o":"m 403 210 q 394 131 394 164 q 416 42 394 72 q 493 11 438 11 q 576 35 542 11 q 652 118 611 60 q 745 288 693 176 q 833 492 797 399 q 889 647 868 586 q 918 739 910 708 l 403 210 m 929 796 q 940 881 940 847 q 919 969 940 939 q 842 1000 897 1000 q 758 976 793 1000 q 684 894 724 951 q 588 718 644 838 q 503 531 531 599 q 450 383 476 463 q 413 263 424 304 l 929 796 m 244 86 q 140 231 176 144 q 104 415 104 317 q 319 847 104 665 q 813 1028 533 1028 q 952 1006 888 1028 q 1069 942 1017 983 l 1160 1035 l 1181 1014 l 1092 922 q 1193 776 1157 863 q 1229 589 1229 690 q 1017 167 1229 350 q 543 -17 804 -17 q 391 5 460 -17 q 267 68 322 26 l 171 -32 l 151 -11 l 244 86 z "},"±":{"ha":1157,"x_min":250,"x_max":1046,"o":"m 593 225 l 593 508 l 250 508 l 250 617 l 593 617 l 593 926 l 703 926 l 703 617 l 1046 617 l 1046 508 l 703 508 l 703 225 l 1046 225 l 1046 117 l 250 117 l 250 225 l 593 225 z "},"Ҫ":{"ha":1040,"x_min":104,"x_max":1239,"o":"m 543 -17 q 229 107 354 -17 q 104 415 104 231 q 302 842 104 657 q 786 1028 500 1028 q 956 999 886 1028 q 1097 942 1025 971 q 1163 967 1131 942 q 1214 1028 1196 993 l 1239 1028 l 1042 536 l 1015 536 q 1017 640 1015 560 q 1019 729 1019 719 q 998 928 1019 872 q 893 985 976 985 q 783 947 839 985 q 676 839 728 908 q 581 690 624 769 q 512 539 539 611 q 467 390 485 467 q 450 253 450 313 q 485 88 450 144 q 613 31 521 31 q 728 54 679 31 q 820 115 778 78 q 889 194 863 153 q 939 283 915 235 l 964 272 q 796 60 906 138 q 543 -17 686 -17 m 396 0 l 321 -82 q 344 -79 328 -81 q 372 -78 360 -78 q 484 -111 453 -78 q 515 -186 515 -144 q 444 -302 515 -265 q 300 -339 374 -339 q 226 -320 256 -339 q 196 -271 196 -301 q 209 -238 196 -254 q 244 -222 222 -222 q 282 -237 271 -222 q 293 -271 293 -251 q 278 -311 293 -283 q 308 -321 278 -317 q 363 -290 338 -321 q 388 -208 388 -258 q 367 -153 388 -171 q 306 -135 347 -135 q 265 -140 279 -135 q 246 -147 251 -144 l 240 -137 l 367 0 l 396 0 z "},"ć":{"ha":681,"x_min":19,"x_max":740,"o":"m 525 649 q 457 611 494 649 q 379 500 419 574 q 314 335 339 426 q 289 174 289 244 q 313 62 289 93 q 382 31 338 31 q 444 42 417 31 q 506 79 472 54 q 563 131 540 104 q 611 193 586 157 l 631 179 q 473 28 551 69 q 306 -14 394 -14 q 110 49 201 -14 q 19 233 19 113 q 166 535 19 399 q 517 672 313 672 q 685 628 638 672 q 733 529 733 583 q 698 433 733 469 q 607 396 663 396 q 524 425 557 396 q 490 497 490 454 q 523 575 490 533 q 556 632 556 617 q 548 644 556 640 q 525 649 540 649 m 629 808 q 525 769 589 789 q 403 731 461 749 l 394 744 q 501 833 456 779 l 601 969 q 629 992 617 986 q 661 997 642 997 q 708 988 686 997 q 735 969 729 979 q 740 933 740 958 q 717 861 740 885 q 629 808 694 838 z "},"¥":{"ha":1022,"x_min":61,"x_max":1303,"o":"m 354 585 q 299 769 326 685 q 261 890 272 854 q 228 957 244 936 q 186 983 211 978 q 142 988 161 988 q 106 990 122 989 l 106 1013 l 754 1013 l 754 990 q 638 975 669 990 q 606 919 606 960 q 622 824 606 890 q 665 660 639 757 q 718 467 690 563 q 795 565 750 507 q 919 724 840 622 q 1013 847 999 826 q 1038 892 1028 867 q 1049 935 1049 918 q 1022 977 1049 964 q 921 990 994 990 l 921 1013 l 1303 1013 l 1303 990 q 1269 986 1286 988 q 1215 976 1251 985 q 1150 947 1178 968 q 1082 880 1122 925 q 976 751 1042 835 q 844 585 910 667 l 1056 585 l 1040 546 l 814 546 l 719 426 l 710 404 l 964 404 l 949 365 l 694 365 l 618 174 q 583 61 583 88 q 607 31 583 40 q 721 22 631 22 l 721 0 l 61 0 l 61 22 l 138 28 q 213 60 189 33 q 276 176 238 88 l 354 365 l 65 365 l 81 404 l 369 404 l 392 458 l 367 546 l 157 546 l 172 585 l 354 585 z "},"µ":{"ha":928,"x_min":-31,"x_max":935,"o":"m 935 313 q 901 160 925 229 q 842 54 878 92 q 780 2 807 17 q 714 -12 753 -12 q 643 17 665 -12 q 621 97 621 47 q 624 146 621 122 q 633 190 628 169 l 628 193 q 494 47 575 108 q 333 -14 414 -14 q 227 28 263 -14 q 192 154 192 71 l 192 196 q 197 226 196 217 l 192 226 q 129 56 154 142 q 104 -71 104 -31 q 139 -215 139 -189 q 110 -292 139 -264 q 46 -321 82 -321 q -11 -299 8 -321 q -31 -247 -31 -278 q 31 -53 -31 -192 q 135 176 93 86 q 182 278 178 267 l 242 514 q 289 628 261 585 q 381 672 317 672 q 432 654 415 672 q 449 607 449 636 q 393 468 449 554 q 288 306 338 382 l 286 286 q 313 208 286 238 q 397 178 340 178 q 527 215 469 178 q 621 317 585 251 q 631 412 621 356 q 658 532 640 468 q 704 634 676 596 q 792 672 732 672 q 844 654 828 672 q 861 608 861 636 q 785 410 861 522 q 667 239 708 299 q 703 188 679 208 q 768 168 726 168 q 858 201 824 168 q 915 313 893 235 l 935 313 z "},"đ":{"ha":918,"x_min":22,"x_max":1135,"o":"m 581 571 q 571 604 581 593 q 542 615 561 615 q 485 579 515 615 q 404 441 456 543 q 297 210 353 339 q 240 46 240 82 q 247 26 240 33 q 264 19 253 19 q 351 60 314 19 q 410 130 389 100 q 456 215 431 160 q 531 397 482 269 q 581 571 581 525 m 978 828 l 1135 828 l 1119 790 l 963 790 l 696 131 q 680 88 685 103 q 675 61 675 74 q 680 47 675 51 q 694 42 685 42 q 780 97 738 42 q 840 181 822 153 q 885 257 857 210 l 903 249 q 822 114 857 164 q 728 25 786 64 q 597 -14 671 -14 q 491 26 533 -14 q 449 132 449 65 l 450 150 q 344 27 396 68 q 214 -14 292 -14 q 75 44 128 -14 q 22 204 22 103 q 155 518 22 364 q 456 672 288 672 q 562 647 524 672 q 600 568 600 622 l 599 547 l 693 790 l 517 790 l 532 828 l 708 828 q 750 951 750 933 q 728 984 750 978 q 629 990 706 990 l 629 1013 l 1053 1013 l 978 828 z "},"č":{"ha":681,"x_min":19,"x_max":788,"o":"m 525 649 q 457 611 494 649 q 379 500 419 574 q 314 335 339 426 q 289 174 289 244 q 313 62 289 93 q 382 31 338 31 q 444 42 417 31 q 506 79 472 54 q 563 131 540 104 q 611 193 586 157 l 631 179 q 473 28 551 69 q 306 -14 394 -14 q 110 49 201 -14 q 19 233 19 113 q 166 535 19 399 q 517 672 313 672 q 685 628 638 672 q 733 529 733 583 q 698 433 733 469 q 607 396 663 396 q 524 425 557 396 q 490 497 490 454 q 523 575 490 533 q 556 632 556 617 q 548 644 556 640 q 525 649 540 649 m 369 989 l 385 994 q 459 903 421 950 q 514 847 497 857 q 625 901 547 857 q 775 989 703 946 l 788 978 l 544 726 l 425 726 l 369 989 z "},"Ğ":{"ha":1225,"x_min":104,"x_max":1311,"o":"m 104 415 q 306 842 104 657 q 800 1028 508 1028 q 1007 1000 921 1028 q 1164 938 1085 968 q 1231 963 1200 938 q 1285 1028 1263 988 l 1311 1028 l 1122 557 l 1096 557 q 1099 624 1097 581 q 1100 688 1100 668 l 1097 785 q 1049 940 1097 893 q 924 986 1001 986 q 796 943 861 986 q 677 828 731 900 q 582 681 624 757 q 506 516 540 606 q 451 336 471 426 q 431 165 431 246 q 455 53 431 96 q 536 11 479 11 q 636 47 594 11 q 693 117 678 82 q 723 192 708 153 q 749 269 738 232 q 767 334 760 307 q 774 376 774 361 q 741 414 774 406 q 642 422 708 422 l 642 444 l 1274 444 l 1274 422 l 1232 418 q 1143 380 1164 418 q 1094 269 1122 342 q 1042 126 1065 197 q 1000 -7 1019 54 l 979 -7 q 948 54 971 24 q 847 85 925 85 q 686 34 789 85 q 492 -17 583 -17 q 212 106 319 -17 q 104 415 104 229 m 742 1349 l 763 1349 l 761 1331 q 794 1249 761 1281 q 899 1218 828 1218 q 1028 1253 972 1218 q 1114 1350 1085 1288 l 1135 1350 q 1028 1163 1104 1235 q 867 1092 953 1092 q 761 1132 797 1092 q 725 1246 725 1172 q 742 1349 725 1292 z "},"ğ":{"ha":871,"x_min":-85,"x_max":917,"o":"m 589 579 q 579 615 589 603 q 549 626 569 626 q 492 585 525 626 q 411 449 460 544 q 306 217 363 354 q 250 44 250 81 q 256 25 250 32 q 272 18 261 18 q 356 61 317 18 q 412 130 394 104 q 465 231 429 156 q 544 417 500 307 q 589 579 589 526 m 917 658 q 817 402 871 538 q 682 76 764 267 q 467 -218 600 -114 q 118 -322 333 -322 q -26 -276 33 -322 q -85 -168 -85 -231 q -49 -78 -85 -118 q 47 -39 -14 -39 q 138 -74 100 -39 q 175 -158 175 -108 q 144 -233 175 -203 q 64 -264 114 -264 q 49 -275 49 -264 q 66 -292 49 -285 q 117 -300 83 -300 q 247 -237 190 -300 q 353 -66 304 -174 q 449 146 403 42 l 444 147 q 343 28 397 71 q 211 -14 289 -14 q 72 40 128 -14 q 17 182 17 94 q 162 510 17 347 q 493 672 307 672 q 574 651 540 672 q 608 581 608 631 l 607 557 l 650 658 l 917 658 m 499 1001 l 519 1001 l 518 983 q 551 902 518 933 q 656 871 585 871 q 785 906 729 871 q 871 1003 842 940 l 892 1003 q 785 816 861 888 q 624 744 710 744 q 518 785 554 744 q 482 899 482 825 q 499 1001 482 944 z "},"ª":{"ha":875,"x_min":149,"x_max":956,"o":"m 956 1015 l 776 642 q 764 613 771 629 q 757 589 757 597 q 762 578 757 582 q 775 574 767 574 q 857 619 811 574 q 931 725 903 665 l 951 714 q 844 577 900 628 q 683 526 789 526 q 594 552 628 526 q 560 625 560 578 l 554 626 q 474 549 511 572 q 371 526 436 526 q 256 568 301 526 q 210 674 210 610 q 324 913 210 799 q 593 1028 439 1028 q 665 1010 635 1028 q 694 956 694 993 l 725 1015 l 956 1015 m 672 957 q 663 980 672 972 q 636 988 654 988 q 591 958 617 988 q 523 851 565 928 q 444 691 481 774 q 408 578 408 608 q 413 565 408 569 q 428 560 418 560 q 497 597 454 560 q 572 699 539 635 q 639 839 606 764 q 672 957 672 914 m 231 339 l 678 339 l 663 300 l 215 300 l 231 339 m 164 172 l 610 172 l 594 133 l 149 133 l 164 172 z "},"º":{"ha":736,"x_min":75,"x_max":803,"o":"m 157 339 l 604 339 l 589 300 l 142 300 l 157 339 m 90 172 l 536 172 l 521 133 l 75 133 l 90 172 m 803 819 q 701 614 803 701 q 438 526 599 526 q 349 543 392 526 q 272 588 307 560 q 224 654 242 617 q 206 733 206 692 q 308 941 206 854 q 572 1028 411 1028 q 661 1013 625 1028 q 738 965 697 997 q 788 895 772 933 q 803 819 803 857 m 631 961 q 621 994 631 983 q 590 1004 611 1004 q 534 966 558 1004 q 474 854 510 928 q 410 707 439 781 q 381 596 381 633 q 391 560 381 572 q 421 549 401 549 q 474 585 453 549 q 532 692 496 621 q 599 844 568 763 q 631 961 631 925 z "},"æ":{"ha":1169,"x_min":17,"x_max":1211,"o":"m 594 583 q 585 616 594 606 q 558 626 576 626 q 498 586 531 626 q 411 442 465 546 q 302 210 357 338 q 247 49 247 83 q 253 28 247 35 q 272 21 260 21 q 360 72 314 21 q 463 228 407 122 q 557 434 519 335 q 594 583 594 533 m 1099 179 q 963 40 1043 94 q 769 -14 883 -14 q 578 46 667 -14 q 490 233 490 106 q 358 38 415 89 q 207 -14 300 -14 q 70 40 124 -14 q 17 179 17 93 q 167 508 17 343 q 501 672 318 672 q 588 648 563 672 q 614 585 614 624 l 611 558 l 656 658 l 893 658 q 1003 669 981 669 q 1154 631 1097 669 q 1211 532 1211 592 q 1083 365 1211 421 q 772 308 954 308 q 757 240 764 282 q 750 169 750 197 q 772 60 750 92 q 835 28 793 28 q 892 35 867 28 q 950 63 917 43 q 1020 119 983 82 q 1079 193 1057 157 l 1099 179 m 776 324 q 953 433 874 335 q 1032 606 1032 531 q 1026 638 1032 626 q 1001 649 1021 649 q 940 615 971 649 q 875 522 910 582 q 816 413 840 463 q 776 324 792 364 z "},"ø":{"ha":768,"x_min":24,"x_max":744,"o":"m 499 408 l 228 128 q 219 92 224 113 q 215 58 215 71 q 226 20 215 33 q 260 7 236 7 q 323 53 290 7 q 393 174 356 99 q 453 299 431 250 q 499 408 475 349 m 249 193 l 522 478 q 544 550 538 524 q 551 600 551 576 q 541 637 551 625 q 508 649 531 649 q 443 601 478 649 q 372 478 408 553 q 303 330 335 404 q 249 193 271 256 m 114 51 q 47 145 69 92 q 24 261 24 199 q 156 544 24 415 q 485 672 289 672 q 574 657 535 672 q 650 611 614 642 l 721 685 l 743 665 l 671 590 q 728 497 711 550 q 744 397 744 444 q 610 113 744 240 q 283 -14 476 -14 q 206 -2 242 -14 q 136 33 169 10 l 58 -49 l 38 -28 l 114 51 z "},"¿":{"ha":718,"x_min":101,"x_max":747,"o":"m 747 893 q 707 799 747 838 q 610 760 667 760 q 512 798 553 760 q 471 893 471 836 q 511 989 471 950 q 610 1028 551 1028 q 707 989 667 1028 q 747 893 747 950 m 256 622 q 342 673 294 657 q 439 689 389 689 q 591 630 533 689 q 649 482 649 571 q 618 381 649 425 q 526 296 588 336 q 303 169 414 232 q 261 132 276 151 q 244 86 244 113 q 278 26 244 47 q 364 6 313 6 q 472 27 428 6 q 515 75 515 49 q 476 103 515 86 q 438 158 438 119 q 460 212 438 192 q 518 232 483 232 q 569 208 550 232 q 589 153 589 185 q 525 37 589 90 q 364 -17 461 -17 q 175 51 249 -17 q 101 231 101 119 q 132 351 101 299 q 206 433 163 403 q 283 480 250 464 q 397 528 317 496 q 501 574 478 560 q 524 614 524 588 q 496 655 524 642 q 436 668 468 668 q 351 651 392 668 q 272 597 310 633 q 250 608 250 590 q 256 622 250 615 z "},"¡":{"ha":650,"x_min":129,"x_max":700,"o":"m 222 360 q 372 517 324 460 q 481 703 421 574 l 500 696 q 463 556 475 625 q 451 435 451 486 l 456 243 q 385 60 456 138 q 239 -17 314 -17 q 160 34 192 -17 q 129 156 129 85 q 156 265 129 214 q 222 360 182 317 m 700 893 q 660 799 700 838 q 563 760 619 760 q 465 798 506 760 q 424 893 424 836 q 464 989 424 950 q 563 1028 504 1028 q 660 989 619 1028 q 700 893 700 950 z "},"¬":{"ha":1157,"x_min":254,"x_max":1042,"o":"m 1042 513 l 1042 176 l 925 176 l 925 404 l 254 404 l 254 513 l 1042 513 z "},"ƒ":{"ha":894,"x_min":-203,"x_max":1072,"o":"m 657 538 l 865 538 l 850 499 l 650 499 q 580 238 626 372 q 463 -7 533 103 q 269 -210 392 -117 q 13 -303 146 -303 q -137 -259 -72 -303 q -203 -144 -203 -215 q -166 -52 -203 -92 q -69 -12 -129 -12 q 22 -44 -17 -12 q 60 -125 60 -75 q 43 -203 60 -174 q 4 -260 24 -231 q 28 -278 4 -278 q 116 -237 82 -278 q 177 -107 150 -196 q 224 97 204 -18 q 263 320 244 213 q 303 499 282 428 l 114 499 l 129 538 l 315 538 q 367 679 343 622 q 458 820 392 736 q 627 966 524 904 q 869 1028 731 1028 q 1018 987 964 1028 q 1072 883 1072 946 q 1038 794 1072 829 q 951 760 1003 760 q 860 788 894 760 q 825 857 825 815 q 853 941 825 907 q 882 988 882 975 q 876 1002 882 997 q 856 1007 869 1007 q 768 950 801 1007 q 717 826 735 893 q 684 676 700 760 q 657 538 668 593 z "},"Ş":{"ha":986,"x_min":-29,"x_max":1088,"o":"m 488 -17 q 310 26 399 -17 q 133 115 221 69 q 62 73 106 115 q -6 -17 18 31 l -29 -17 l 176 489 l 201 489 q 199 431 200 469 q 197 376 197 393 q 207 261 197 310 q 245 149 217 213 q 342 48 274 86 q 501 10 411 10 q 636 58 585 10 q 688 169 688 107 q 660 247 688 211 q 548 330 632 283 q 347 442 464 376 q 211 679 211 538 q 340 924 211 819 q 650 1028 469 1028 q 819 1000 744 1028 q 957 939 888 969 q 1013 961 990 939 q 1061 1028 1035 983 l 1088 1028 l 917 606 l 892 606 q 896 649 894 624 q 897 708 897 674 q 892 803 897 764 q 868 890 888 843 q 799 969 849 936 q 657 1001 749 1001 q 526 962 586 1001 q 465 856 465 922 q 492 775 465 813 q 556 717 519 738 q 679 648 592 696 q 821 566 767 600 q 915 469 875 532 q 954 332 954 407 q 822 82 954 181 q 488 -17 690 -17 m 396 0 l 321 -82 q 344 -79 328 -81 q 372 -78 360 -78 q 484 -111 453 -78 q 515 -186 515 -144 q 444 -302 515 -265 q 300 -339 374 -339 q 226 -320 256 -339 q 196 -271 196 -301 q 209 -238 196 -254 q 244 -222 222 -222 q 282 -237 271 -222 q 293 -271 293 -251 q 278 -311 293 -283 q 308 -321 278 -317 q 363 -290 338 -321 q 388 -208 388 -258 q 367 -153 388 -171 q 306 -135 347 -135 q 265 -140 279 -135 q 246 -147 251 -144 l 240 -137 l 367 0 l 396 0 z "},"ş":{"ha":625,"x_min":-19,"x_max":642,"o":"m 431 672 q 580 628 518 672 q 642 519 642 585 q 612 437 642 471 q 536 403 582 403 q 461 435 496 403 q 426 511 426 467 q 440 556 426 536 q 469 585 453 576 q 509 598 485 593 q 533 617 533 603 q 510 640 533 629 q 447 651 488 651 q 356 624 392 651 q 319 554 319 597 q 332 501 319 521 q 376 453 344 482 l 488 356 q 543 285 525 321 q 561 201 561 249 q 465 42 561 99 q 253 -15 369 -15 q 65 38 149 -15 q -19 178 -19 92 q 12 256 -19 224 q 92 289 43 289 q 167 256 132 289 q 201 178 201 222 q 183 122 201 146 q 143 94 165 99 q 106 85 121 89 q 92 69 92 82 q 130 28 92 50 q 221 7 168 7 q 303 33 268 7 q 338 101 338 60 q 325 157 338 138 q 287 199 313 176 q 223 256 261 222 q 165 313 185 289 q 133 362 144 338 q 122 425 122 386 q 206 595 122 518 q 431 672 290 672 m 222 0 l 147 -82 q 170 -79 154 -81 q 199 -78 186 -78 q 310 -111 279 -78 q 342 -186 342 -144 q 271 -302 342 -265 q 126 -339 200 -339 q 52 -320 82 -339 q 22 -271 22 -301 q 35 -238 22 -254 q 71 -222 49 -222 q 108 -237 97 -222 q 119 -271 119 -251 q 104 -311 119 -283 q 135 -321 104 -317 q 189 -290 164 -321 q 214 -208 214 -258 q 194 -153 214 -171 q 132 -135 174 -135 q 92 -140 106 -135 q 72 -147 78 -144 l 67 -137 l 193 0 l 222 0 z "},"«":{"ha":692,"x_min":51,"x_max":692,"o":"m 306 97 l 290 89 l 51 321 l 65 360 l 474 590 l 483 572 q 371 463 433 525 q 249 332 308 400 q 274 198 258 254 q 306 97 289 142 m 532 118 l 517 108 l 311 318 l 324 353 l 682 563 l 692 546 q 594 444 650 503 q 489 328 539 386 q 509 210 497 263 q 532 118 521 158 z "},"»":{"ha":682,"x_min":-1,"x_max":638,"o":"m 383 582 l 399 590 l 638 358 l 624 319 l 215 89 l 206 107 q 318 217 256 154 q 440 347 381 279 q 415 481 431 425 q 383 582 400 538 m 367 328 l 8 118 l -1 135 q 74 208 22 157 q 200 346 125 260 q 181 469 192 415 q 158 564 169 522 l 174 572 l 379 363 l 367 328 z "},"…":{"ha":1389,"x_min":103,"x_max":1296,"o":"m 103 119 q 142 210 103 172 q 236 249 182 249 q 331 212 292 249 q 371 119 371 175 q 331 27 371 65 q 236 -11 292 -11 q 142 27 182 -11 q 103 119 103 65 m 565 119 q 605 210 565 172 q 699 249 644 249 q 794 212 754 249 q 833 119 833 175 q 794 27 833 65 q 699 -11 754 -11 q 605 27 644 -11 q 565 119 565 65 m 1028 119 q 1067 210 1028 172 q 1161 249 1107 249 q 1256 212 1217 249 q 1296 119 1296 175 q 1256 27 1296 65 q 1161 -11 1217 -11 q 1067 27 1107 -11 q 1028 119 1028 65 z "}," ":{"ha":333,"x_min":0,"x_max":0,"o":""},"À":{"ha":1353,"x_min":-44,"x_max":1436,"o":"m 890 497 l 1081 971 q 936 904 1008 956 q 813 790 864 853 q 718 657 763 728 q 625 497 674 586 l 890 497 m 607 465 q 560 374 600 451 q 459 193 519 296 q 332 37 399 90 q 160 -17 265 -17 q 15 34 74 -17 q -44 172 -44 85 q 10 306 -44 251 q 147 361 65 361 q 274 316 222 361 q 326 193 326 271 q 315 132 326 160 q 290 91 304 104 q 247 60 275 78 q 218 28 218 42 q 233 19 228 19 q 308 51 263 19 q 399 152 353 83 q 497 320 444 221 q 631 563 549 419 q 763 780 714 707 q 938 936 813 853 q 1247 1019 1063 1019 q 1363 1017 1321 1019 q 1436 1010 1404 1014 l 1100 174 q 1065 63 1065 86 q 1106 26 1065 29 q 1213 22 1146 22 l 1213 0 l 540 0 l 540 22 q 580 24 557 22 q 637 30 603 26 q 695 60 671 33 q 758 176 719 88 l 878 465 l 607 465 m 1317 1088 l 1306 1074 q 1118 1163 1211 1118 q 1045 1216 1069 1190 q 1021 1276 1021 1242 q 1029 1333 1021 1324 q 1056 1348 1038 1342 q 1096 1354 1075 1354 q 1163 1321 1136 1354 q 1233 1180 1201 1235 q 1317 1088 1265 1125 z "},"Ã":{"ha":1353,"x_min":-44,"x_max":1485,"o":"m 890 497 l 1081 971 q 936 904 1008 956 q 813 790 864 853 q 718 657 763 728 q 625 497 674 586 l 890 497 m 607 465 q 560 374 600 451 q 459 193 519 296 q 332 37 399 90 q 160 -17 265 -17 q 15 34 74 -17 q -44 172 -44 85 q 10 306 -44 251 q 147 361 65 361 q 274 316 222 361 q 326 193 326 271 q 315 132 326 160 q 290 91 304 104 q 247 60 275 78 q 218 28 218 42 q 233 19 228 19 q 308 51 263 19 q 399 152 353 83 q 497 320 444 221 q 631 563 549 419 q 763 780 714 707 q 938 936 813 853 q 1247 1019 1063 1019 q 1363 1017 1321 1019 q 1436 1010 1404 1014 l 1100 174 q 1065 63 1065 86 q 1106 26 1065 29 q 1213 22 1146 22 l 1213 0 l 540 0 l 540 22 q 580 24 557 22 q 637 30 603 26 q 695 60 671 33 q 758 176 719 88 l 878 465 l 607 465 m 1078 1174 q 1029 1163 1044 1174 q 983 1111 1014 1151 l 958 1111 q 1062 1245 1014 1206 q 1171 1285 1110 1285 q 1271 1260 1211 1285 q 1363 1235 1331 1235 q 1414 1249 1394 1235 q 1460 1299 1433 1263 l 1485 1299 q 1381 1163 1429 1203 q 1271 1124 1333 1124 q 1167 1149 1236 1124 q 1078 1174 1099 1174 z "},"Õ":{"ha":1188,"x_min":104,"x_max":1229,"o":"m 1229 589 q 1017 167 1229 350 q 543 -17 804 -17 q 222 108 339 -17 q 104 415 104 232 q 319 847 104 665 q 813 1028 533 1028 q 1113 903 996 1028 q 1229 589 1229 778 m 940 881 q 919 969 940 939 q 842 1000 897 1000 q 759 976 792 1000 q 685 894 726 953 q 591 723 644 836 q 497 508 538 610 q 426 301 457 407 q 394 131 394 194 q 416 42 394 72 q 493 11 438 11 q 576 35 543 11 q 649 116 608 58 q 744 290 689 174 q 845 528 799 407 q 916 741 892 649 q 940 881 940 833 m 746 1174 q 697 1163 713 1174 q 651 1111 682 1151 l 626 1111 q 730 1245 682 1206 q 839 1285 778 1285 q 939 1260 879 1285 q 1031 1235 999 1235 q 1082 1249 1063 1235 q 1128 1299 1101 1263 l 1153 1299 q 1049 1163 1097 1203 q 939 1124 1001 1124 q 835 1149 904 1124 q 746 1174 767 1174 z "},"Œ":{"ha":1771,"x_min":104,"x_max":1918,"o":"m 940 881 q 919 969 940 939 q 842 999 897 999 q 760 974 794 999 q 684 892 725 950 q 590 722 643 833 q 497 510 538 611 q 426 301 457 408 q 394 132 394 194 q 416 43 394 74 q 493 13 438 13 q 575 35 542 13 q 649 116 608 58 q 744 290 689 174 q 845 528 799 407 q 916 741 892 649 q 940 881 940 833 m 718 0 q 630 -10 690 -4 q 543 -15 569 -15 q 222 108 339 -15 q 104 415 104 232 q 319 846 104 665 q 813 1026 535 1026 q 890 1023 856 1026 q 957 1013 925 1019 l 1918 1013 l 1744 582 l 1718 582 l 1713 679 q 1659 880 1700 793 q 1547 975 1618 967 q 1436 984 1476 983 q 1367 985 1396 985 l 1181 525 l 1225 529 q 1388 603 1314 543 q 1507 753 1461 663 l 1535 753 l 1331 246 l 1303 246 q 1313 296 1308 267 q 1318 357 1318 325 q 1294 462 1318 426 q 1214 497 1271 497 l 1169 499 l 982 28 l 1031 28 q 1198 37 1097 28 q 1408 130 1299 46 q 1586 291 1517 214 q 1697 415 1656 368 l 1725 415 l 1558 0 l 718 0 z "},"œ":{"ha":1129,"x_min":24,"x_max":1164,"o":"m 551 599 q 541 636 551 624 q 508 649 531 649 q 454 615 483 649 q 371 473 425 581 q 266 238 317 365 q 215 60 215 110 q 225 21 215 35 q 260 7 235 7 q 329 59 297 7 q 405 199 361 111 q 500 416 449 288 q 551 599 551 544 m 733 324 q 909 432 829 335 q 989 606 989 529 q 983 638 989 626 q 958 649 978 649 q 896 615 929 649 q 828 522 863 582 q 772 417 793 463 q 733 324 751 372 m 528 57 q 414 5 476 24 q 283 -14 351 -14 q 178 8 225 -14 q 77 88 131 31 q 24 261 24 144 q 156 544 24 415 q 485 672 289 672 q 601 652 553 672 q 688 582 649 632 q 951 672 811 672 q 1104 628 1044 672 q 1164 528 1164 585 q 1038 363 1164 418 q 729 308 911 308 q 714 240 721 282 q 707 169 707 197 q 728 60 707 92 q 792 28 750 28 q 849 35 824 28 q 907 63 874 43 q 977 119 940 82 q 1036 193 1014 157 l 1056 179 q 918 41 996 96 q 728 -14 840 -14 q 608 2 650 -14 q 528 57 565 18 z "},"–":{"ha":694,"x_min":-18,"x_max":719,"o":"m 719 396 l 676 288 l -18 288 l 25 396 l 719 396 z "},"—":{"ha":1389,"x_min":-18,"x_max":1414,"o":"m 1414 396 l 1371 288 l -18 288 l 25 396 l 1414 396 z "},"“":{"ha":633,"x_min":142,"x_max":789,"o":"m 478 990 q 322 942 393 990 q 251 844 251 893 q 264 825 251 825 q 284 830 268 825 q 310 835 300 835 q 386 803 354 835 q 418 729 418 771 q 382 631 418 674 q 283 589 346 589 q 183 631 224 589 q 142 732 142 674 q 239 929 142 846 q 478 1013 336 1013 l 478 990 m 789 990 q 633 942 704 990 q 563 844 563 893 q 575 825 563 825 q 595 830 579 825 q 621 835 611 835 q 697 803 665 835 q 729 729 729 771 q 693 631 729 674 q 594 589 657 589 q 494 631 535 589 q 453 732 453 674 q 550 929 453 846 q 789 1013 647 1013 l 789 990 z "},"”":{"ha":633,"x_min":181,"x_max":828,"o":"m 181 619 q 336 668 265 619 q 407 765 407 717 q 396 785 407 785 q 349 775 358 775 q 272 807 304 775 q 240 881 240 839 q 276 978 240 936 q 375 1021 313 1021 q 476 978 435 1021 q 517 878 517 936 q 419 681 517 764 q 181 597 322 597 l 181 619 m 492 619 q 647 668 576 619 q 718 765 718 717 q 707 785 718 785 q 660 775 669 775 q 583 807 615 775 q 551 881 551 839 q 588 978 551 936 q 686 1021 624 1021 q 787 978 746 1021 q 828 878 828 936 q 731 681 828 764 q 492 597 633 597 l 492 619 z "},"‘":{"ha":322,"x_min":142,"x_max":478,"o":"m 478 990 q 322 942 393 990 q 251 844 251 893 q 264 825 251 825 q 284 830 268 825 q 310 835 300 835 q 386 803 354 835 q 418 729 418 771 q 382 631 418 674 q 283 589 346 589 q 183 631 224 589 q 142 732 142 674 q 239 929 142 846 q 478 1013 336 1013 l 478 990 z "},"’":{"ha":322,"x_min":181,"x_max":517,"o":"m 181 619 q 336 668 265 619 q 407 765 407 717 q 396 785 407 785 q 349 775 358 775 q 272 807 304 775 q 240 881 240 839 q 276 978 240 936 q 375 1021 313 1021 q 476 978 435 1021 q 517 878 517 936 q 419 681 517 764 q 181 597 322 597 l 181 619 z "},"÷":{"ha":1157,"x_min":254,"x_max":1042,"o":"m 647 819 q 718 790 689 819 q 747 718 747 761 q 719 648 747 676 q 647 619 690 619 q 576 647 606 619 q 547 718 547 675 q 577 790 547 760 q 647 819 607 819 m 1042 510 l 1042 401 l 254 401 l 254 510 l 1042 510 m 650 290 q 721 261 692 290 q 750 190 750 232 q 722 120 750 149 q 650 92 693 92 q 579 119 608 92 q 550 190 550 147 q 579 261 550 232 q 650 290 608 290 z "},"ÿ":{"ha":882,"x_min":-69,"x_max":935,"o":"m 135 -322 q -11 -275 47 -322 q -69 -164 -69 -228 q -32 -75 -69 -114 q 69 -36 6 -36 q 160 -70 122 -36 q 199 -154 199 -104 q 126 -250 199 -229 q 75 -258 90 -256 q 60 -275 60 -260 q 74 -294 60 -287 q 118 -300 89 -300 q 250 -236 190 -300 q 352 -89 310 -172 q 464 156 394 -6 l 460 157 q 349 31 407 75 q 211 -12 292 -12 q 100 27 147 -12 q 53 149 53 67 q 71 235 53 186 q 112 332 89 283 q 190 483 135 381 q 246 606 246 586 q 240 622 246 617 q 224 628 235 628 q 151 581 189 628 q 83 488 113 533 q 38 415 54 443 l 19 424 q 151 612 97 551 q 306 672 206 672 q 415 627 378 672 q 453 518 453 582 q 442 439 453 469 q 403 350 431 408 q 322 190 375 292 q 268 56 268 88 q 274 35 268 42 q 293 28 281 28 q 329 40 308 28 q 374 77 350 53 q 426 141 399 101 q 484 242 454 181 q 571 435 514 304 q 640 597 628 565 q 664 658 651 628 l 935 658 q 878 519 915 611 q 803 335 842 428 q 684 65 764 242 q 468 -217 604 -112 q 135 -322 332 -322 m 365 857 q 393 919 365 892 q 458 947 421 947 q 522 921 496 947 q 549 857 549 894 q 524 790 549 817 q 458 764 499 764 q 393 792 421 764 q 365 857 365 819 m 671 857 q 699 919 671 892 q 763 947 726 947 q 827 920 800 947 q 854 857 854 893 q 828 790 854 817 q 763 764 801 764 q 699 792 726 764 q 671 857 671 819 z "},"Ÿ":{"ha":1199,"x_min":79,"x_max":1392,"o":"m 735 492 q 806 633 768 558 q 899 810 843 707 q 1019 971 956 914 q 1190 1028 1082 1028 q 1333 976 1274 1028 q 1392 842 1392 924 q 1339 704 1392 758 q 1203 650 1286 650 q 1075 694 1129 650 q 1021 810 1021 739 q 1025 850 1021 836 q 1038 881 1029 864 q 1061 919 1046 899 q 1076 954 1076 939 q 1064 964 1076 964 q 1022 940 1047 964 q 964 865 997 917 q 874 703 931 814 q 784 522 818 592 q 733 417 750 453 l 636 174 q 601 60 601 82 q 633 30 601 38 q 739 22 664 22 l 739 0 l 79 0 l 79 22 l 156 28 q 231 60 207 33 q 292 172 256 88 q 357 326 329 257 q 410 458 385 394 q 376 566 399 494 q 331 702 353 638 q 278 848 308 767 q 235 953 249 929 q 191 982 221 976 q 142 988 161 988 q 106 990 122 989 l 106 1013 l 754 1013 l 754 990 q 640 977 672 983 q 607 919 607 971 q 619 853 607 896 q 638 789 632 810 l 729 492 l 735 492 m 524 1204 q 551 1267 524 1239 q 617 1294 579 1294 q 681 1268 654 1294 q 707 1204 707 1242 q 682 1138 707 1164 q 617 1111 657 1111 q 551 1139 579 1111 q 524 1204 524 1167 m 829 1204 q 857 1267 829 1239 q 921 1294 885 1294 q 985 1267 958 1294 q 1013 1204 1013 1240 q 986 1138 1013 1164 q 921 1111 960 1111 q 857 1139 885 1111 q 829 1204 829 1167 z "},"∕":{"ha":232,"x_min":-158,"x_max":535,"o":"m -158 -3 l 485 1028 l 535 999 l -110 -33 l -158 -3 z "},"‹":{"ha":451,"x_min":51,"x_max":483,"o":"m 306 97 l 290 89 l 51 321 l 65 360 l 474 590 l 483 572 q 371 463 433 525 q 249 332 308 400 q 274 198 258 254 q 306 97 289 142 z "},"›":{"ha":451,"x_min":-25,"x_max":407,"o":"m 153 581 l 168 589 l 407 357 l 393 318 l -15 88 l -25 106 q 88 215 25 153 q 210 346 150 278 q 185 480 200 424 q 153 581 169 536 z "},"":{"ha":960,"x_min":-378,"x_max":972,"o":"m 972 658 l 713 90 q 701 49 701 65 q 709 31 701 35 q 729 26 717 26 q 769 44 744 26 q 831 106 794 63 q 906 225 867 150 l 925 217 q 806 45 861 104 q 650 -14 751 -14 q 532 31 576 -14 q 488 139 488 75 q 499 222 488 185 q 544 333 511 260 q 613 480 576 406 q 678 614 649 554 l 471 614 q 405 329 439 457 q 311 88 371 201 q 185 -109 251 -25 q 20 -258 119 -193 q -193 -324 -79 -324 q -324 -280 -271 -324 q -378 -167 -378 -236 q -339 -81 -378 -118 q -246 -43 -300 -43 q -158 -72 -196 -43 q -121 -149 -121 -101 q -142 -226 -121 -194 q -190 -286 -165 -256 q -168 -300 -190 -300 q -59 -240 -100 -300 q 19 -31 -18 -181 q 92 265 56 119 q 156 482 129 411 q 207 614 182 553 l 63 614 l 81 658 l 228 658 q 331 815 263 731 q 508 963 400 899 q 750 1028 617 1028 q 890 990 835 1028 q 944 885 944 953 q 901 788 944 826 q 799 749 858 749 q 720 777 753 749 q 688 849 688 806 q 710 931 688 897 q 760 990 735 960 q 739 1003 760 1003 q 551 886 597 1003 q 481 658 504 769 l 972 658 z "},"ﬁ":{"ha":960,"x_min":-378,"x_max":972,"o":"m 972 658 l 713 90 q 701 49 701 65 q 709 31 701 35 q 729 26 717 26 q 769 44 744 26 q 831 106 794 63 q 906 225 867 150 l 925 217 q 806 45 861 104 q 650 -14 751 -14 q 532 31 576 -14 q 488 139 488 75 q 499 222 488 185 q 544 333 511 260 q 613 480 576 406 q 678 614 649 554 l 471 614 q 405 329 439 457 q 311 88 371 201 q 185 -109 251 -25 q 20 -258 119 -193 q -193 -324 -79 -324 q -324 -280 -271 -324 q -378 -167 -378 -236 q -339 -81 -378 -118 q -246 -43 -300 -43 q -158 -72 -196 -43 q -121 -149 -121 -101 q -142 -226 -121 -194 q -190 -286 -165 -256 q -168 -300 -190 -300 q -59 -240 -100 -300 q 19 -31 -18 -181 q 92 265 56 119 q 156 482 129 411 q 207 614 182 553 l 63 614 l 81 658 l 228 658 q 331 815 263 731 q 508 963 400 899 q 750 1028 617 1028 q 890 990 835 1028 q 944 885 944 953 q 901 788 944 826 q 799 749 858 749 q 720 777 753 749 q 688 849 688 806 q 710 931 688 897 q 760 990 735 960 q 739 1003 760 1003 q 551 886 597 1003 q 481 658 504 769 l 972 658 z "},"":{"ha":954,"x_min":-378,"x_max":1085,"o":"m 889 1013 l 1085 1013 q 967 724 1038 897 q 807 331 896 551 q 709 85 718 111 q 700 49 700 58 q 706 31 700 38 q 721 25 711 25 q 763 43 738 25 q 826 106 788 61 q 911 233 864 150 l 931 224 q 801 43 856 100 q 660 -14 746 -14 q 536 36 585 -14 q 488 150 488 86 q 494 208 488 182 q 515 268 501 235 l 756 860 q 789 971 789 949 q 776 994 789 988 q 738 1000 763 1000 q 565 906 617 1000 q 479 658 513 813 l 631 658 l 611 614 l 469 614 q 403 329 438 457 q 310 89 369 201 q 185 -109 251 -24 q 19 -259 118 -194 q -193 -324 -79 -324 q -324 -280 -271 -324 q -378 -167 -378 -236 q -339 -81 -378 -118 q -246 -43 -300 -43 q -158 -74 -196 -43 q -121 -151 -121 -104 q -142 -228 -121 -197 q -190 -285 -165 -256 q -168 -300 -190 -300 q -59 -240 -100 -300 q 19 -31 -18 -181 q 92 265 56 119 q 156 482 129 411 q 207 614 182 553 l 63 614 l 81 658 l 228 658 q 330 814 264 732 q 503 960 396 896 q 746 1025 611 1025 q 825 1022 790 1025 q 889 1013 860 1018 z "},"ﬂ":{"ha":954,"x_min":-378,"x_max":1085,"o":"m 889 1013 l 1085 1013 q 967 724 1038 897 q 807 331 896 551 q 709 85 718 111 q 700 49 700 58 q 706 31 700 38 q 721 25 711 25 q 763 43 738 25 q 826 106 788 61 q 911 233 864 150 l 931 224 q 801 43 856 100 q 660 -14 746 -14 q 536 36 585 -14 q 488 150 488 86 q 494 208 488 182 q 515 268 501 235 l 756 860 q 789 971 789 949 q 776 994 789 988 q 738 1000 763 1000 q 565 906 617 1000 q 479 658 513 813 l 631 658 l 611 614 l 469 614 q 403 329 438 457 q 310 89 369 201 q 185 -109 251 -24 q 19 -259 118 -194 q -193 -324 -79 -324 q -324 -280 -271 -324 q -378 -167 -378 -236 q -339 -81 -378 -118 q -246 -43 -300 -43 q -158 -74 -196 -43 q -121 -151 -121 -104 q -142 -228 -121 -197 q -190 -285 -165 -256 q -168 -300 -190 -300 q -59 -240 -100 -300 q 19 -31 -18 -181 q 92 265 56 119 q 156 482 129 411 q 207 614 182 553 l 63 614 l 81 658 l 228 658 q 330 814 264 732 q 503 960 396 896 q 746 1025 611 1025 q 825 1022 790 1025 q 889 1013 860 1018 z "},"‡":{"ha":667,"x_min":65,"x_max":715,"o":"m 353 253 q 410 239 386 244 q 474 217 433 233 q 540 176 514 201 q 565 115 565 150 q 548 69 565 90 q 504 49 531 49 q 450 101 450 49 q 457 128 450 111 q 464 153 464 144 q 460 167 464 161 q 433 183 456 174 q 381 203 411 193 q 338 213 351 213 l 333 203 q 338 169 336 188 q 339 126 339 151 q 314 35 339 68 q 239 -22 289 3 l 232 -36 q 267 -99 267 -61 q 245 -148 267 -129 q 192 -167 224 -167 q 171 -164 185 -167 l 163 -183 q 146 -196 156 -196 q 132 -182 132 -196 l 142 -153 q 114 -126 124 -142 q 104 -90 104 -111 q 129 -37 104 -56 q 190 -19 154 -19 l 194 -8 q 180 35 185 15 q 175 75 175 56 q 209 167 175 133 q 279 221 243 200 l 283 232 q 220 249 251 240 q 153 272 189 257 q 92 311 118 286 q 65 368 65 336 q 83 416 65 393 q 125 439 100 439 q 167 424 151 439 q 182 388 182 408 q 175 358 182 376 q 168 332 168 340 q 199 304 168 318 q 258 283 229 290 q 297 274 288 276 l 429 599 q 362 616 386 610 q 306 635 338 622 q 244 674 274 647 q 214 735 214 701 q 233 781 214 760 q 276 803 251 803 q 331 750 331 803 q 324 724 331 740 q 317 699 317 707 q 321 684 317 690 q 347 668 325 678 q 399 649 369 658 q 443 639 429 639 l 447 649 q 443 682 444 664 q 442 725 442 700 q 467 817 442 783 q 543 875 493 850 l 549 888 q 514 950 514 913 q 535 999 514 981 q 589 1018 557 1018 q 610 1015 596 1018 l 618 1035 q 635 1047 625 1047 q 649 1033 649 1047 l 639 1004 q 667 978 658 994 q 676 942 676 963 q 651 889 676 907 q 590 871 626 871 l 586 860 q 601 816 596 836 q 606 776 606 796 q 572 685 606 718 q 501 631 538 651 l 497 619 q 560 603 529 611 q 628 580 592 594 q 690 541 664 565 q 715 481 715 517 q 698 435 715 457 q 656 413 681 413 q 614 428 629 413 q 599 464 599 443 q 606 493 599 475 q 613 519 613 511 q 582 547 613 533 q 522 568 551 561 q 483 578 493 575 l 353 253 z "},"∙":{"ha":378,"x_min":119,"x_max":396,"o":"m 119 460 q 160 554 119 515 q 257 593 200 593 q 355 555 314 593 q 396 460 396 517 q 356 364 396 403 q 257 325 315 325 q 160 364 200 325 q 119 460 119 403 z "},"‚":{"ha":322,"x_min":-26,"x_max":310,"o":"m -26 -156 q 129 -107 58 -156 q 200 -10 200 -58 q 189 10 200 10 q 142 0 151 0 q 65 32 97 0 q 33 106 33 64 q 69 203 33 161 q 168 246 106 246 q 269 203 228 246 q 310 103 310 161 q 213 -94 310 -11 q -26 -178 115 -178 l -26 -156 z "},"„":{"ha":633,"x_min":-26,"x_max":621,"o":"m -26 -156 q 129 -107 58 -156 q 200 -10 200 -58 q 189 10 200 10 q 142 0 151 0 q 65 32 97 0 q 33 106 33 64 q 69 203 33 161 q 168 246 106 246 q 269 203 228 246 q 310 103 310 161 q 213 -94 310 -11 q -26 -178 115 -178 l -26 -156 m 285 -156 q 440 -107 369 -156 q 511 -10 511 -58 q 500 10 511 10 q 453 0 463 0 q 376 32 408 0 q 344 106 344 64 q 381 203 344 161 q 479 246 417 246 q 580 203 539 246 q 621 103 621 161 q 524 -94 621 -11 q 285 -178 426 -178 l 285 -156 z "},"Â":{"ha":1353,"x_min":-44,"x_max":1436,"o":"m 890 497 l 1081 971 q 936 904 1008 956 q 813 790 864 853 q 718 657 763 728 q 625 497 674 586 l 890 497 m 607 465 q 560 374 600 451 q 459 193 519 296 q 332 37 399 90 q 160 -17 265 -17 q 15 34 74 -17 q -44 172 -44 85 q 10 306 -44 251 q 147 361 65 361 q 274 316 222 361 q 326 193 326 271 q 315 132 326 160 q 290 91 304 104 q 247 60 275 78 q 218 28 218 42 q 233 19 228 19 q 308 51 263 19 q 399 152 353 83 q 497 320 444 221 q 631 563 549 419 q 763 780 714 707 q 938 936 813 853 q 1247 1019 1063 1019 q 1363 1017 1321 1019 q 1436 1010 1404 1014 l 1100 174 q 1065 63 1065 86 q 1106 26 1065 29 q 1213 22 1146 22 l 1213 0 l 540 0 l 540 22 q 580 24 557 22 q 637 30 603 26 q 695 60 671 33 q 758 176 719 88 l 878 465 l 607 465 m 1367 1067 l 1351 1061 q 1277 1152 1315 1106 q 1222 1208 1239 1199 q 1111 1154 1189 1199 q 961 1067 1033 1110 l 949 1078 l 1192 1329 l 1311 1329 l 1367 1067 z "},"Ê":{"ha":1236,"x_min":-81,"x_max":1388,"o":"m 622 538 q 657 538 640 538 q 727 547 674 539 q 858 614 781 556 q 979 760 935 672 l 1007 760 l 803 253 l 775 253 q 785 306 781 275 q 790 369 790 338 q 764 474 790 439 q 676 510 738 510 l 611 511 l 415 28 l 465 28 q 635 37 535 28 q 852 130 736 46 q 1044 291 968 214 q 1167 415 1121 368 l 1194 415 l 1028 0 l -81 0 l -81 22 l -4 28 q 72 60 47 33 q 140 190 96 88 q 219 378 185 293 q 315 617 254 463 q 403 844 375 772 q 431 942 431 915 q 407 981 431 971 q 292 990 383 990 l 292 1013 l 1388 1013 l 1214 582 l 1188 582 l 1182 679 q 1128 880 1169 793 q 1026 974 1088 967 q 913 983 965 981 q 819 985 861 985 l 801 985 l 622 538 m 1114 1067 l 1099 1061 q 1024 1152 1063 1106 q 969 1208 986 1199 q 858 1154 936 1199 q 708 1067 781 1110 l 696 1078 l 939 1329 l 1058 1329 l 1114 1067 z "},"Á":{"ha":1353,"x_min":-44,"x_max":1436,"o":"m 890 497 l 1081 971 q 936 904 1008 956 q 813 790 864 853 q 718 657 763 728 q 625 497 674 586 l 890 497 m 607 465 q 560 374 600 451 q 459 193 519 296 q 332 37 399 90 q 160 -17 265 -17 q 15 34 74 -17 q -44 172 -44 85 q 10 306 -44 251 q 147 361 65 361 q 274 316 222 361 q 326 193 326 271 q 315 132 326 160 q 290 91 304 104 q 247 60 275 78 q 218 28 218 42 q 233 19 228 19 q 308 51 263 19 q 399 152 353 83 q 497 320 444 221 q 631 563 549 419 q 763 780 714 707 q 938 936 813 853 q 1247 1019 1063 1019 q 1363 1017 1321 1019 q 1436 1010 1404 1014 l 1100 174 q 1065 63 1065 86 q 1106 26 1065 29 q 1213 22 1146 22 l 1213 0 l 540 0 l 540 22 q 580 24 557 22 q 637 30 603 26 q 695 60 671 33 q 758 176 719 88 l 878 465 l 607 465 m 1292 1156 q 1188 1116 1251 1136 q 1065 1078 1124 1096 l 1057 1092 q 1164 1181 1118 1126 l 1264 1317 q 1292 1339 1279 1333 q 1324 1344 1304 1344 q 1370 1335 1349 1344 q 1397 1316 1392 1326 q 1403 1281 1403 1306 q 1380 1208 1403 1232 q 1292 1156 1357 1185 z "},"Ë":{"ha":1236,"x_min":-81,"x_max":1388,"o":"m 622 538 q 657 538 640 538 q 727 547 674 539 q 858 614 781 556 q 979 760 935 672 l 1007 760 l 803 253 l 775 253 q 785 306 781 275 q 790 369 790 338 q 764 474 790 439 q 676 510 738 510 l 611 511 l 415 28 l 465 28 q 635 37 535 28 q 852 130 736 46 q 1044 291 968 214 q 1167 415 1121 368 l 1194 415 l 1028 0 l -81 0 l -81 22 l -4 28 q 72 60 47 33 q 140 190 96 88 q 219 378 185 293 q 315 617 254 463 q 403 844 375 772 q 431 942 431 915 q 407 981 431 971 q 292 990 383 990 l 292 1013 l 1388 1013 l 1214 582 l 1188 582 l 1182 679 q 1128 880 1169 793 q 1026 974 1088 967 q 913 983 965 981 q 819 985 861 985 l 801 985 l 622 538 m 625 1204 q 653 1267 625 1239 q 718 1294 681 1294 q 782 1268 756 1294 q 808 1204 808 1242 q 783 1138 808 1164 q 718 1111 758 1111 q 653 1139 681 1111 q 625 1204 625 1167 m 931 1204 q 958 1267 931 1239 q 1022 1294 986 1294 q 1087 1267 1060 1294 q 1114 1204 1114 1240 q 1088 1138 1114 1164 q 1022 1111 1061 1111 q 958 1139 986 1111 q 931 1204 931 1167 z "},"È":{"ha":1236,"x_min":-81,"x_max":1388,"o":"m 622 538 q 657 538 640 538 q 727 547 674 539 q 858 614 781 556 q 979 760 935 672 l 1007 760 l 803 253 l 775 253 q 785 306 781 275 q 790 369 790 338 q 764 474 790 439 q 676 510 738 510 l 611 511 l 415 28 l 465 28 q 635 37 535 28 q 852 130 736 46 q 1044 291 968 214 q 1167 415 1121 368 l 1194 415 l 1028 0 l -81 0 l -81 22 l -4 28 q 72 60 47 33 q 140 190 96 88 q 219 378 185 293 q 315 617 254 463 q 403 844 375 772 q 431 942 431 915 q 407 981 431 971 q 292 990 383 990 l 292 1013 l 1388 1013 l 1214 582 l 1188 582 l 1182 679 q 1128 880 1169 793 q 1026 974 1088 967 q 913 983 965 981 q 819 985 861 985 l 801 985 l 622 538 m 967 1088 l 956 1074 q 768 1163 861 1118 q 695 1216 719 1190 q 671 1276 671 1242 q 679 1333 671 1324 q 706 1348 688 1342 q 746 1354 725 1354 q 813 1321 786 1354 q 883 1180 851 1235 q 967 1088 915 1125 z "},"Í":{"ha":733,"x_min":-81,"x_max":956,"o":"m 956 990 l 883 986 q 796 947 817 981 q 739 824 775 913 q 656 622 703 736 q 566 399 610 508 q 482 188 522 289 q 442 61 442 86 q 467 32 442 42 q 579 22 492 22 l 579 0 l -81 0 l -81 22 l -4 28 q 72 60 47 33 q 138 183 96 88 q 235 417 179 278 q 324 638 292 556 q 394 817 356 719 q 432 942 432 915 q 408 982 432 974 q 293 990 383 990 l 293 1013 l 956 1013 l 956 990 m 768 1156 q 664 1116 728 1136 q 542 1078 600 1096 l 533 1092 q 640 1181 594 1126 l 740 1317 q 768 1339 756 1333 q 800 1344 781 1344 q 847 1335 825 1344 q 874 1316 868 1326 q 879 1281 879 1306 q 856 1208 879 1232 q 768 1156 833 1185 z "},"Î":{"ha":733,"x_min":-81,"x_max":956,"o":"m 956 990 l 883 986 q 796 947 817 981 q 739 824 775 913 q 656 622 703 736 q 566 399 610 508 q 482 188 522 289 q 442 61 442 86 q 467 32 442 42 q 579 22 492 22 l 579 0 l -81 0 l -81 22 l -4 28 q 72 60 47 33 q 138 183 96 88 q 235 417 179 278 q 324 638 292 556 q 394 817 356 719 q 432 942 432 915 q 408 982 432 974 q 293 990 383 990 l 293 1013 l 956 1013 l 956 990 m 843 1067 l 828 1061 q 753 1152 792 1106 q 699 1208 715 1199 q 588 1154 665 1199 q 438 1067 510 1110 l 425 1078 l 668 1329 l 788 1329 l 843 1067 z "},"Ï":{"ha":733,"x_min":-81,"x_max":956,"o":"m 956 990 l 883 986 q 796 947 817 981 q 739 824 775 913 q 656 622 703 736 q 566 399 610 508 q 482 188 522 289 q 442 61 442 86 q 467 32 442 42 q 579 22 492 22 l 579 0 l -81 0 l -81 22 l -4 28 q 72 60 47 33 q 138 183 96 88 q 235 417 179 278 q 324 638 292 556 q 394 817 356 719 q 432 942 432 915 q 408 982 432 974 q 293 990 383 990 l 293 1013 l 956 1013 l 956 990 m 438 1204 q 465 1267 438 1239 q 531 1294 493 1294 q 594 1268 568 1294 q 621 1204 621 1242 q 596 1138 621 1164 q 531 1111 571 1111 q 465 1139 493 1111 q 438 1204 438 1167 m 743 1204 q 771 1267 743 1239 q 835 1294 799 1294 q 899 1267 872 1294 q 926 1204 926 1240 q 900 1138 926 1164 q 835 1111 874 1111 q 771 1139 799 1111 q 743 1204 743 1167 z "},"Ì":{"ha":733,"x_min":-81,"x_max":956,"o":"m 956 990 l 883 986 q 796 947 817 981 q 739 824 775 913 q 656 622 703 736 q 566 399 610 508 q 482 188 522 289 q 442 61 442 86 q 467 32 442 42 q 579 22 492 22 l 579 0 l -81 0 l -81 22 l -4 28 q 72 60 47 33 q 138 183 96 88 q 235 417 179 278 q 324 638 292 556 q 394 817 356 719 q 432 942 432 915 q 408 982 432 974 q 293 990 383 990 l 293 1013 l 956 1013 l 956 990 m 738 1088 l 726 1074 q 539 1163 632 1118 q 466 1216 490 1190 q 442 1276 442 1242 q 450 1333 442 1324 q 477 1348 458 1342 q 517 1354 496 1354 q 583 1321 557 1354 q 654 1180 622 1235 q 738 1088 686 1125 z "},"Ó":{"ha":1188,"x_min":104,"x_max":1229,"o":"m 1229 589 q 1017 167 1229 350 q 543 -17 804 -17 q 222 108 339 -17 q 104 415 104 232 q 319 847 104 665 q 813 1028 533 1028 q 1113 903 996 1028 q 1229 589 1229 778 m 940 881 q 919 969 940 939 q 842 1000 897 1000 q 759 976 792 1000 q 685 894 726 953 q 591 723 644 836 q 497 508 538 610 q 426 301 457 407 q 394 131 394 194 q 416 42 394 72 q 493 11 438 11 q 576 35 543 11 q 649 116 608 58 q 744 290 689 174 q 845 528 799 407 q 916 741 892 649 q 940 881 940 833 m 946 1156 q 842 1116 906 1136 q 719 1078 778 1096 l 711 1092 q 818 1181 772 1126 l 918 1317 q 946 1339 933 1333 q 978 1344 958 1344 q 1024 1335 1003 1344 q 1051 1316 1046 1326 q 1057 1281 1057 1306 q 1034 1208 1057 1232 q 946 1156 1011 1185 z "},"Ô":{"ha":1188,"x_min":104,"x_max":1229,"o":"m 1229 589 q 1017 167 1229 350 q 543 -17 804 -17 q 222 108 339 -17 q 104 415 104 232 q 319 847 104 665 q 813 1028 533 1028 q 1113 903 996 1028 q 1229 589 1229 778 m 940 881 q 919 969 940 939 q 842 1000 897 1000 q 759 976 792 1000 q 685 894 726 953 q 591 723 644 836 q 497 508 538 610 q 426 301 457 407 q 394 131 394 194 q 416 42 394 72 q 493 11 438 11 q 576 35 543 11 q 649 116 608 58 q 744 290 689 174 q 845 528 799 407 q 916 741 892 649 q 940 881 940 833 m 1035 1067 l 1019 1061 q 945 1152 983 1106 q 890 1208 907 1199 q 779 1154 857 1199 q 629 1067 701 1110 l 617 1078 l 860 1329 l 979 1329 l 1035 1067 z "},"İ":{"ha":733,"x_min":-81,"x_max":956,"o":"m 956 990 l 883 986 q 796 947 817 981 q 739 824 775 913 q 656 622 703 736 q 566 399 610 508 q 482 188 522 289 q 442 61 442 86 q 467 32 442 42 q 579 22 492 22 l 579 0 l -81 0 l -81 22 l -4 28 q 72 60 47 33 q 138 183 96 88 q 235 417 179 278 q 324 638 292 556 q 394 817 356 719 q 432 942 432 915 q 408 982 432 974 q 293 990 383 990 l 293 1013 l 956 1013 l 956 990 m 597 1206 q 625 1271 597 1243 q 693 1299 653 1299 q 758 1271 731 1299 q 786 1206 786 1243 q 760 1138 786 1165 q 693 1110 733 1110 q 626 1138 654 1110 q 597 1206 597 1167 z "},"Ò":{"ha":1188,"x_min":104,"x_max":1229,"o":"m 1229 589 q 1017 167 1229 350 q 543 -17 804 -17 q 222 108 339 -17 q 104 415 104 232 q 319 847 104 665 q 813 1028 533 1028 q 1113 903 996 1028 q 1229 589 1229 778 m 940 881 q 919 969 940 939 q 842 1000 897 1000 q 759 976 792 1000 q 685 894 726 953 q 591 723 644 836 q 497 508 538 610 q 426 301 457 407 q 394 131 394 194 q 416 42 394 72 q 493 11 438 11 q 576 35 543 11 q 649 116 608 58 q 744 290 689 174 q 845 528 799 407 q 916 741 892 649 q 940 881 940 833 m 929 1088 l 918 1074 q 731 1163 824 1118 q 658 1216 682 1190 q 633 1276 633 1242 q 642 1333 633 1324 q 669 1348 650 1342 q 708 1354 688 1354 q 775 1321 749 1354 q 846 1180 814 1235 q 929 1088 878 1125 z "},"Ú":{"ha":1185,"x_min":167,"x_max":1476,"o":"m 1175 776 q 1199 849 1188 808 q 1211 913 1211 890 q 1177 974 1211 958 q 1054 990 1143 990 l 1054 1013 l 1476 1013 l 1476 990 l 1383 983 q 1299 944 1332 978 q 1219 794 1265 911 q 1110 519 1172 678 q 1002 265 1049 361 q 865 76 956 169 q 546 -17 774 -17 q 263 67 360 -17 q 167 269 167 150 q 174 320 167 294 q 221 444 182 346 l 379 836 q 410 942 410 917 q 382 981 410 972 q 271 990 354 990 l 271 1013 l 933 1013 l 933 990 l 861 986 q 774 947 794 981 q 717 824 753 913 q 644 647 681 736 q 563 446 608 558 q 508 305 518 333 q 488 240 497 276 q 479 178 479 203 q 520 72 479 111 q 628 32 561 32 q 787 67 714 32 q 898 153 860 101 q 963 253 936 206 q 1003 334 989 300 q 1092 561 1018 368 q 1175 776 1167 754 m 986 1156 q 882 1116 946 1136 q 760 1078 818 1096 l 751 1092 q 858 1181 813 1126 l 958 1317 q 986 1339 974 1333 q 1018 1344 999 1344 q 1065 1335 1043 1344 q 1092 1316 1086 1326 q 1097 1281 1097 1306 q 1074 1208 1097 1232 q 986 1156 1051 1185 z "},"Û":{"ha":1185,"x_min":167,"x_max":1476,"o":"m 1175 776 q 1199 849 1188 808 q 1211 913 1211 890 q 1177 974 1211 958 q 1054 990 1143 990 l 1054 1013 l 1476 1013 l 1476 990 l 1383 983 q 1299 944 1332 978 q 1219 794 1265 911 q 1110 519 1172 678 q 1002 265 1049 361 q 865 76 956 169 q 546 -17 774 -17 q 263 67 360 -17 q 167 269 167 150 q 174 320 167 294 q 221 444 182 346 l 379 836 q 410 942 410 917 q 382 981 410 972 q 271 990 354 990 l 271 1013 l 933 1013 l 933 990 l 861 986 q 774 947 794 981 q 717 824 753 913 q 644 647 681 736 q 563 446 608 558 q 508 305 518 333 q 488 240 497 276 q 479 178 479 203 q 520 72 479 111 q 628 32 561 32 q 787 67 714 32 q 898 153 860 101 q 963 253 936 206 q 1003 334 989 300 q 1092 561 1018 368 q 1175 776 1167 754 m 1061 1067 l 1046 1061 q 972 1152 1010 1106 q 917 1208 933 1199 q 806 1154 883 1199 q 656 1067 728 1110 l 643 1078 l 886 1329 l 1006 1329 l 1061 1067 z "},"Ù":{"ha":1185,"x_min":167,"x_max":1476,"o":"m 1175 776 q 1199 849 1188 808 q 1211 913 1211 890 q 1177 974 1211 958 q 1054 990 1143 990 l 1054 1013 l 1476 1013 l 1476 990 l 1383 983 q 1299 944 1332 978 q 1219 794 1265 911 q 1110 519 1172 678 q 1002 265 1049 361 q 865 76 956 169 q 546 -17 774 -17 q 263 67 360 -17 q 167 269 167 150 q 174 320 167 294 q 221 444 182 346 l 379 836 q 410 942 410 917 q 382 981 410 972 q 271 990 354 990 l 271 1013 l 933 1013 l 933 990 l 861 986 q 774 947 794 981 q 717 824 753 913 q 644 647 681 736 q 563 446 608 558 q 508 305 518 333 q 488 240 497 276 q 479 178 479 203 q 520 72 479 111 q 628 32 561 32 q 787 67 714 32 q 898 153 860 101 q 963 253 936 206 q 1003 334 989 300 q 1092 561 1018 368 q 1175 776 1167 754 m 956 1088 l 944 1074 q 757 1163 850 1118 q 684 1216 708 1190 q 660 1276 660 1242 q 668 1333 660 1324 q 695 1348 676 1342 q 735 1354 714 1354 q 801 1321 775 1354 q 872 1180 840 1235 q 956 1088 904 1125 z "},"ı":{"ha":511,"x_min":43,"x_max":485,"o":"m 43 447 q 178 629 121 586 q 304 672 236 672 q 410 631 365 672 q 456 508 456 590 q 439 426 456 472 q 393 320 422 381 q 313 169 364 260 q 261 51 261 78 q 267 33 261 39 q 286 26 274 26 q 326 44 301 26 q 375 90 351 61 q 424 158 399 119 q 467 226 450 196 l 485 217 q 359 40 410 94 q 206 -14 308 -14 q 92 30 131 -14 q 53 140 53 74 q 66 220 53 185 q 122 339 79 256 q 196 488 164 422 q 238 576 228 553 q 247 611 247 600 q 242 626 247 621 q 228 631 238 631 q 195 613 218 631 q 135 552 172 596 q 61 439 99 508 l 43 447 z "},"ˆ":{"ha":694,"x_min":258,"x_max":676,"o":"m 676 719 l 661 714 q 587 805 625 758 q 532 861 549 851 q 421 807 499 851 q 271 719 343 763 l 258 731 l 501 982 l 621 982 l 676 719 z "},"˜":{"ha":694,"x_min":268,"x_max":794,"o":"m 388 826 q 339 815 354 826 q 293 764 324 804 l 268 764 q 372 898 324 858 q 481 938 419 938 q 581 913 521 938 q 672 888 640 888 q 724 901 704 888 q 769 951 743 915 l 794 951 q 691 816 739 856 q 581 776 643 776 q 477 801 546 776 q 388 826 408 826 z "},"ˉ":{"ha":694,"x_min":292,"x_max":751,"o":"m 292 797 l 335 901 l 751 901 l 708 797 l 292 797 z "},"˘":{"ha":694,"x_min":357,"x_max":767,"o":"m 374 1001 l 394 1001 l 393 983 q 426 902 393 933 q 531 871 460 871 q 660 906 604 871 q 746 1003 717 940 l 767 1003 q 660 816 736 888 q 499 744 585 744 q 393 785 429 744 q 357 899 357 825 q 374 1001 357 944 z "},"˙":{"ha":694,"x_min":424,"x_max":613,"o":"m 424 858 q 451 924 424 896 q 519 951 479 951 q 585 924 557 951 q 613 858 613 896 q 586 790 613 818 q 519 763 560 763 q 452 791 481 763 q 424 858 424 819 z "},"˚":{"ha":694,"x_min":378,"x_max":674,"o":"m 435 875 q 460 811 435 836 q 524 786 485 786 q 588 810 563 786 q 614 875 614 835 q 588 940 614 914 q 524 965 563 965 q 460 940 485 965 q 435 875 435 915 m 378 875 q 421 978 378 938 q 525 1018 464 1018 q 630 978 586 1018 q 674 875 674 939 q 630 773 674 814 q 525 732 586 732 q 422 773 465 732 q 378 875 378 814 z "},"¸":{"ha":694,"x_min":22,"x_max":342,"o":"m 222 0 l 147 -82 q 170 -79 154 -81 q 199 -78 186 -78 q 310 -111 279 -78 q 342 -186 342 -144 q 271 -302 342 -265 q 126 -339 200 -339 q 52 -320 82 -339 q 22 -271 22 -301 q 35 -238 22 -254 q 71 -222 49 -222 q 108 -237 97 -222 q 119 -271 119 -251 q 104 -311 119 -283 q 135 -321 104 -317 q 189 -290 164 -321 q 214 -208 214 -258 q 194 -153 214 -171 q 132 -135 174 -135 q 92 -140 106 -135 q 72 -147 78 -144 l 67 -137 l 193 0 l 222 0 z "},"˛":{"ha":694,"x_min":-4,"x_max":278,"o":"m 250 0 q 151 -90 182 -49 q 121 -174 121 -132 q 135 -216 121 -201 q 175 -231 149 -231 q 261 -181 225 -231 l 278 -190 q 99 -317 204 -317 q 22 -294 47 -317 q -4 -226 -4 -271 q 50 -117 -4 -168 q 225 0 104 -67 l 250 0 z "},"ˇ":{"ha":694,"x_min":369,"x_max":788,"o":"m 369 989 l 385 994 q 459 903 421 950 q 514 847 497 857 q 625 901 547 857 q 775 989 703 946 l 788 978 l 544 726 l 425 726 l 369 989 z "},"Š":{"ha":986,"x_min":-29,"x_max":1088,"o":"m 488 -17 q 310 26 399 -17 q 133 115 221 69 q 62 73 106 115 q -6 -17 18 31 l -29 -17 l 176 489 l 201 489 q 199 431 200 469 q 197 376 197 393 q 207 261 197 310 q 245 149 217 213 q 342 48 274 86 q 501 10 411 10 q 636 58 585 10 q 688 169 688 107 q 660 247 688 211 q 548 330 632 283 q 347 442 464 376 q 211 679 211 538 q 340 924 211 819 q 650 1028 469 1028 q 819 1000 744 1028 q 957 939 888 969 q 1013 961 990 939 q 1061 1028 1035 983 l 1088 1028 l 917 606 l 892 606 q 896 649 894 624 q 897 708 897 674 q 892 803 897 764 q 868 890 888 843 q 799 969 849 936 q 657 1001 749 1001 q 526 962 586 1001 q 465 856 465 922 q 492 775 465 813 q 556 717 519 738 q 679 648 592 696 q 821 566 767 600 q 915 469 875 532 q 954 332 954 407 q 822 82 954 181 q 488 -17 690 -17 m 615 1336 l 631 1342 q 705 1251 667 1297 q 760 1194 743 1204 q 871 1249 793 1204 q 1021 1336 949 1293 l 1033 1325 l 790 1074 l 671 1074 l 615 1336 z "},"š":{"ha":625,"x_min":-19,"x_max":788,"o":"m 431 672 q 580 628 518 672 q 642 519 642 585 q 612 437 642 471 q 536 403 582 403 q 461 435 496 403 q 426 511 426 467 q 440 556 426 536 q 469 585 453 576 q 509 598 485 593 q 533 617 533 603 q 510 640 533 629 q 447 651 488 651 q 356 624 392 651 q 319 554 319 597 q 332 501 319 521 q 376 453 344 482 l 488 356 q 543 285 525 321 q 561 201 561 249 q 465 42 561 99 q 253 -15 369 -15 q 65 38 149 -15 q -19 178 -19 92 q 12 256 -19 224 q 92 289 43 289 q 167 256 132 289 q 201 178 201 222 q 183 122 201 146 q 143 94 165 99 q 106 85 121 89 q 92 69 92 82 q 130 28 92 50 q 221 7 168 7 q 303 33 268 7 q 338 101 338 60 q 325 157 338 138 q 287 199 313 176 q 223 256 261 222 q 165 313 185 289 q 133 362 144 338 q 122 425 122 386 q 206 595 122 518 q 431 672 290 672 m 369 989 l 385 994 q 459 903 421 950 q 514 847 497 857 q 625 901 547 857 q 775 989 703 946 l 788 978 l 544 726 l 425 726 l 369 989 z "},"Ð":{"ha":1304,"x_min":-85,"x_max":1335,"o":"m 622 547 l 806 547 l 790 510 l 607 510 l 411 24 l 533 24 q 865 285 718 24 q 1013 796 1013 546 q 977 925 1013 872 q 902 983 942 978 q 843 988 863 988 q 806 989 824 989 l 622 547 m 269 510 l 90 510 l 106 547 l 283 547 l 397 836 q 428 942 428 915 q 397 981 428 972 q 275 990 367 990 l 275 1013 l 815 1015 q 1212 888 1089 1015 q 1335 590 1335 760 q 1271 325 1335 443 q 1096 133 1207 207 q 844 28 985 60 q 522 -3 704 -3 l -85 0 l -85 22 l -8 28 q 67 60 43 33 q 131 176 92 88 l 269 510 z "},"ð":{"ha":824,"x_min":24,"x_max":906,"o":"m 565 597 q 526 649 565 649 q 446 603 483 649 q 361 460 408 558 q 268 238 314 363 q 222 63 222 114 q 234 23 222 39 q 271 7 246 7 q 333 35 306 7 q 463 264 361 63 q 565 597 565 465 m 542 817 l 363 733 l 350 758 l 528 840 q 463 931 500 894 q 396 977 426 967 q 343 988 365 988 q 299 990 321 989 l 299 1013 l 647 1013 q 692 972 669 997 q 726 933 714 947 l 893 1010 l 906 985 l 742 911 q 809 773 778 861 q 840 599 840 685 q 672 159 840 332 q 290 -14 503 -14 q 95 68 167 -14 q 24 261 24 150 q 169 556 24 440 q 485 672 314 672 q 543 669 525 672 q 572 661 561 665 q 567 740 574 703 q 542 817 560 778 z "},"Ý":{"ha":1199,"x_min":79,"x_max":1392,"o":"m 735 492 q 806 633 768 558 q 899 810 843 707 q 1019 971 956 914 q 1190 1028 1082 1028 q 1333 976 1274 1028 q 1392 842 1392 924 q 1339 704 1392 758 q 1203 650 1286 650 q 1075 694 1129 650 q 1021 810 1021 739 q 1025 850 1021 836 q 1038 881 1029 864 q 1061 919 1046 899 q 1076 954 1076 939 q 1064 964 1076 964 q 1022 940 1047 964 q 964 865 997 917 q 874 703 931 814 q 784 522 818 592 q 733 417 750 453 l 636 174 q 601 60 601 82 q 633 30 601 38 q 739 22 664 22 l 739 0 l 79 0 l 79 22 l 156 28 q 231 60 207 33 q 292 172 256 88 q 357 326 329 257 q 410 458 385 394 q 376 566 399 494 q 331 702 353 638 q 278 848 308 767 q 235 953 249 929 q 191 982 221 976 q 142 988 161 988 q 106 990 122 989 l 106 1013 l 754 1013 l 754 990 q 640 977 672 983 q 607 919 607 971 q 619 853 607 896 q 638 789 632 810 l 729 492 l 735 492 m 882 1156 q 778 1116 842 1136 q 656 1078 714 1096 l 647 1092 q 754 1181 708 1126 l 854 1317 q 882 1339 869 1333 q 914 1344 894 1344 q 960 1335 939 1344 q 988 1316 982 1326 q 993 1281 993 1306 q 970 1208 993 1232 q 882 1156 947 1185 z "},"ý":{"ha":882,"x_min":-69,"x_max":935,"o":"m 135 -322 q -11 -275 47 -322 q -69 -164 -69 -228 q -32 -75 -69 -114 q 69 -36 6 -36 q 160 -70 122 -36 q 199 -154 199 -104 q 126 -250 199 -229 q 75 -258 90 -256 q 60 -275 60 -260 q 74 -294 60 -287 q 118 -300 89 -300 q 250 -236 190 -300 q 352 -89 310 -172 q 464 156 394 -6 l 460 157 q 349 31 407 75 q 211 -12 292 -12 q 100 27 147 -12 q 53 149 53 67 q 71 235 53 186 q 112 332 89 283 q 190 483 135 381 q 246 606 246 586 q 240 622 246 617 q 224 628 235 628 q 151 581 189 628 q 83 488 113 533 q 38 415 54 443 l 19 424 q 151 612 97 551 q 306 672 206 672 q 415 627 378 672 q 453 518 453 582 q 442 439 453 469 q 403 350 431 408 q 322 190 375 292 q 268 56 268 88 q 274 35 268 42 q 293 28 281 28 q 329 40 308 28 q 374 77 350 53 q 426 141 399 101 q 484 242 454 181 q 571 435 514 304 q 640 597 628 565 q 664 658 651 628 l 935 658 q 878 519 915 611 q 803 335 842 428 q 684 65 764 242 q 468 -217 604 -112 q 135 -322 332 -322 m 724 808 q 619 769 683 789 q 497 731 556 749 l 489 744 q 596 833 550 779 l 696 969 q 724 992 711 986 q 756 997 736 997 q 802 988 781 997 q 829 969 824 979 q 835 933 835 958 q 812 861 835 885 q 724 808 789 838 z "},"Þ":{"ha":1167,"x_min":-85,"x_max":1213,"o":"m 733 824 l 804 824 q 991 805 913 824 q 1119 749 1069 786 q 1190 663 1168 713 q 1213 560 1213 614 q 1080 317 1213 406 q 758 228 947 228 q 608 228 665 228 q 494 232 551 229 l 472 174 q 439 63 439 88 q 467 30 439 38 q 589 22 494 22 l 589 0 l -85 0 l -85 22 l -8 28 q 67 60 43 33 q 135 188 92 88 q 222 393 179 288 q 307 609 264 499 q 380 797 350 719 q 418 901 410 874 q 426 944 426 928 q 401 982 426 974 q 288 990 375 990 l 288 1013 l 951 1013 l 951 990 l 879 986 q 792 947 814 986 q 733 824 771 908 m 506 258 l 625 264 q 799 408 719 274 q 879 660 879 542 q 857 757 879 719 q 792 794 835 794 l 724 797 q 690 718 706 756 q 606 510 675 681 q 506 258 538 339 z "},"þ":{"ha":836,"x_min":-290,"x_max":818,"o":"m 586 581 q 551 633 586 633 q 485 591 519 633 q 415 477 450 549 q 332 273 381 406 q 283 88 283 140 q 294 45 283 60 q 328 31 304 31 q 384 69 356 31 q 456 194 413 108 q 542 402 499 279 q 586 581 586 525 m 818 439 q 698 136 818 286 q 406 -14 578 -14 q 303 13 344 -14 q 261 104 261 40 q 167 -132 214 -12 q 121 -264 121 -251 q 167 -296 121 -292 l 242 -299 l 242 -321 l -290 -321 l -290 -299 q -268 -297 -282 -299 q -223 -291 -254 -296 q -169 -266 -192 -286 q -99 -126 -147 -246 q -10 94 -50 -6 q 136 457 31 194 q 277 808 242 719 q 319 918 313 896 q 326 954 326 940 q 306 981 326 972 q 218 990 286 990 l 218 1013 l 628 1013 l 454 588 q 510 639 482 613 q 624 672 557 672 q 771 603 724 672 q 818 439 818 535 z "},"×":{"ha":1157,"x_min":264,"x_max":1046,"o":"m 654 535 l 968 847 l 1046 769 l 733 456 l 1046 142 l 968 65 l 654 379 l 342 67 l 265 143 l 578 456 l 264 769 l 342 846 l 654 535 z "},"€":{"ha":1040,"x_min":42,"x_max":1239,"o":"m 1239 1028 l 1094 664 l 1068 664 q 1074 778 1074 706 q 1057 876 1074 835 q 993 950 1040 917 q 893 983 946 983 q 703 872 799 983 q 526 579 608 761 l 1013 579 l 999 542 l 513 542 l 513 539 q 489 468 501 515 l 975 468 l 960 431 l 478 431 q 450 253 450 325 q 483 88 450 147 q 611 29 517 29 q 799 98 714 29 q 938 283 885 167 l 963 271 q 794 60 906 136 q 543 -17 683 -17 q 243 97 369 -17 q 117 414 117 211 l 117 431 l 42 431 l 57 468 l 119 468 q 131 542 121 494 l 63 542 l 78 579 l 140 579 q 368 893 192 758 q 785 1028 544 1028 q 954 1000 885 1028 q 1097 942 1093 942 q 1214 1028 1164 942 l 1239 1028 z "},"◊":{"ha":621,"x_min":32,"x_max":557,"o":"m 32 497 l 251 946 l 328 946 l 557 497 l 325 47 l 249 47 l 32 497 m 139 496 l 288 200 l 443 496 l 290 793 l 139 496 z "},"¦":{"ha":618,"x_min":254,"x_max":364,"o":"m 364 389 l 256 389 l 254 1075 l 364 1075 l 364 389 m 364 -425 l 254 -425 l 256 250 l 364 250 l 364 -425 z "},"¤":{"ha":1225,"x_min":293,"x_max":903,"o":"m 903 418 q 888 328 903 369 q 844 244 874 286 l 897 189 l 835 128 l 781 181 q 592 118 701 118 q 501 134 544 118 q 417 181 457 150 l 361 128 l 297 189 l 351 244 q 308 331 322 289 q 293 424 293 374 q 351 610 293 524 l 297 660 l 361 728 l 417 672 q 503 717 456 703 q 603 731 550 731 q 781 672 704 731 l 835 728 l 897 660 l 844 610 q 903 418 903 522 m 772 424 q 722 551 772 496 q 600 606 671 606 q 472 553 525 606 q 419 424 419 500 q 472 303 419 354 q 596 251 525 251 q 722 301 671 251 q 772 424 772 350 z "}}}
